<mxfile host="app.diagrams.net" agent="Mozilla/5.0 (Macintosh; Intel Mac OS X 10_15_7) AppleWebKit/605.1.15 (KHTML, like Gecko) Version/18.2 Safari/605.1.15" version="25.0.0" pages="2">
  <diagram name="Desenho de Solução" id="HKhAyZGMZW4k97IYFRnO">
    <mxGraphModel dx="2228" dy="946" grid="0" gridSize="10" guides="1" tooltips="1" connect="1" arrows="1" fold="1" page="0" pageScale="1" pageWidth="827" pageHeight="1169" math="0" shadow="0">
      <root>
        <mxCell id="0" />
        <mxCell id="1" parent="0" />
        <mxCell id="lgn-asn2bs2GslqByUnK-43" value=":Object" style="shape=umlLifeline;perimeter=lifelinePerimeter;whiteSpace=wrap;html=1;container=1;dropTarget=0;collapsible=0;recursiveResize=0;outlineConnect=0;portConstraint=eastwest;newEdgeStyle={&quot;curved&quot;:0,&quot;rounded&quot;:0};size=21;" vertex="1" parent="1">
          <mxGeometry x="4116.5" y="1340" width="61" height="1320" as="geometry" />
        </mxCell>
        <mxCell id="lgn-asn2bs2GslqByUnK-48" value="" style="html=1;points=[[0,0,0,0,5],[0,1,0,0,-5],[1,0,0,0,5],[1,1,0,0,-5]];perimeter=orthogonalPerimeter;outlineConnect=0;targetShapes=umlLifeline;portConstraint=eastwest;newEdgeStyle={&quot;curved&quot;:0,&quot;rounded&quot;:0};" vertex="1" parent="lgn-asn2bs2GslqByUnK-43">
          <mxGeometry x="25.5" y="577" width="10" height="69" as="geometry" />
        </mxCell>
        <mxCell id="lgn-asn2bs2GslqByUnK-51" value="" style="html=1;points=[[0,0,0,0,5],[0,1,0,0,-5],[1,0,0,0,5],[1,1,0,0,-5]];perimeter=orthogonalPerimeter;outlineConnect=0;targetShapes=umlLifeline;portConstraint=eastwest;newEdgeStyle={&quot;curved&quot;:0,&quot;rounded&quot;:0};" vertex="1" parent="lgn-asn2bs2GslqByUnK-43">
          <mxGeometry x="25.5" y="674" width="10" height="69" as="geometry" />
        </mxCell>
        <mxCell id="lgn-asn2bs2GslqByUnK-53" value="return" style="html=1;verticalAlign=bottom;endArrow=open;dashed=1;endSize=8;curved=0;rounded=0;" edge="1" parent="lgn-asn2bs2GslqByUnK-43" target="lgn-asn2bs2GslqByUnK-31">
          <mxGeometry relative="1" as="geometry">
            <mxPoint x="-400.5" y="735.0000000000005" as="targetPoint" />
            <mxPoint x="24.5" y="735.0000000000005" as="sourcePoint" />
          </mxGeometry>
        </mxCell>
        <mxCell id="lgn-asn2bs2GslqByUnK-63" value="" style="html=1;points=[[0,0,0,0,5],[0,1,0,0,-5],[1,0,0,0,5],[1,1,0,0,-5]];perimeter=orthogonalPerimeter;outlineConnect=0;targetShapes=umlLifeline;portConstraint=eastwest;newEdgeStyle={&quot;curved&quot;:0,&quot;rounded&quot;:0};" vertex="1" parent="lgn-asn2bs2GslqByUnK-43">
          <mxGeometry x="25.5" y="832" width="10" height="69" as="geometry" />
        </mxCell>
        <mxCell id="lgn-asn2bs2GslqByUnK-30" value=":Object" style="shape=umlLifeline;perimeter=lifelinePerimeter;whiteSpace=wrap;html=1;container=1;dropTarget=0;collapsible=0;recursiveResize=0;outlineConnect=0;portConstraint=eastwest;newEdgeStyle={&quot;curved&quot;:0,&quot;rounded&quot;:0};size=21;" vertex="1" parent="1">
          <mxGeometry x="3539.5" y="1346" width="61" height="1308" as="geometry" />
        </mxCell>
        <mxCell id="lgn-asn2bs2GslqByUnK-31" value="" style="html=1;points=[[0,0,0,0,5],[0,1,0,0,-5],[1,0,0,0,5],[1,1,0,0,-5]];perimeter=orthogonalPerimeter;outlineConnect=0;targetShapes=umlLifeline;portConstraint=eastwest;newEdgeStyle={&quot;curved&quot;:0,&quot;rounded&quot;:0};" vertex="1" parent="lgn-asn2bs2GslqByUnK-30">
          <mxGeometry x="25.5" y="367" width="10" height="379" as="geometry" />
        </mxCell>
        <mxCell id="lgn-asn2bs2GslqByUnK-32" value="AWS Glue&lt;div&gt;delta&lt;/div&gt;" style="sketch=0;outlineConnect=0;fontColor=#232F3E;gradientColor=none;strokeColor=#ffffff;fillColor=#232F3E;dashed=0;verticalLabelPosition=middle;verticalAlign=bottom;align=center;html=1;whiteSpace=wrap;fontSize=10;fontStyle=1;spacing=3;shape=mxgraph.aws4.productIcon;prIcon=mxgraph.aws4.glue;" vertex="1" parent="1">
          <mxGeometry x="3530" y="1258" width="80" height="110" as="geometry" />
        </mxCell>
        <mxCell id="lgn-asn2bs2GslqByUnK-26" value=":Object" style="shape=umlLifeline;perimeter=lifelinePerimeter;whiteSpace=wrap;html=1;container=1;dropTarget=0;collapsible=0;recursiveResize=0;outlineConnect=0;portConstraint=eastwest;newEdgeStyle={&quot;curved&quot;:0,&quot;rounded&quot;:0};size=21;" vertex="1" parent="1">
          <mxGeometry x="4398" y="1294" width="61" height="1369" as="geometry" />
        </mxCell>
        <mxCell id="lgn-asn2bs2GslqByUnK-20" value="" style="html=1;points=[[0,0,0,0,5],[0,1,0,0,-5],[1,0,0,0,5],[1,1,0,0,-5]];perimeter=orthogonalPerimeter;outlineConnect=0;targetShapes=umlLifeline;portConstraint=eastwest;newEdgeStyle={&quot;curved&quot;:0,&quot;rounded&quot;:0};" vertex="1" parent="lgn-asn2bs2GslqByUnK-26">
          <mxGeometry x="25.5" y="146" width="10" height="80" as="geometry" />
        </mxCell>
        <mxCell id="lgn-asn2bs2GslqByUnK-69" value="" style="html=1;points=[[0,0,0,0,5],[0,1,0,0,-5],[1,0,0,0,5],[1,1,0,0,-5]];perimeter=orthogonalPerimeter;outlineConnect=0;targetShapes=umlLifeline;portConstraint=eastwest;newEdgeStyle={&quot;curved&quot;:0,&quot;rounded&quot;:0};" vertex="1" parent="lgn-asn2bs2GslqByUnK-26">
          <mxGeometry x="25.5" y="1136" width="10" height="80" as="geometry" />
        </mxCell>
        <mxCell id="lgn-asn2bs2GslqByUnK-25" value=":Object" style="shape=umlLifeline;perimeter=lifelinePerimeter;whiteSpace=wrap;html=1;container=1;dropTarget=0;collapsible=0;recursiveResize=0;outlineConnect=0;portConstraint=eastwest;newEdgeStyle={&quot;curved&quot;:0,&quot;rounded&quot;:0};size=21;" vertex="1" parent="1">
          <mxGeometry x="4244.5" y="1346" width="61" height="1316" as="geometry" />
        </mxCell>
        <mxCell id="lgn-asn2bs2GslqByUnK-66" value="" style="html=1;points=[[0,0,0,0,5],[0,1,0,0,-5],[1,0,0,0,5],[1,1,0,0,-5]];perimeter=orthogonalPerimeter;outlineConnect=0;targetShapes=umlLifeline;portConstraint=eastwest;newEdgeStyle={&quot;curved&quot;:0,&quot;rounded&quot;:0};" vertex="1" parent="lgn-asn2bs2GslqByUnK-25">
          <mxGeometry x="25.62" y="1071" width="10" height="110" as="geometry" />
        </mxCell>
        <mxCell id="lgn-asn2bs2GslqByUnK-23" value=":Object" style="shape=umlLifeline;perimeter=lifelinePerimeter;whiteSpace=wrap;html=1;container=1;dropTarget=0;collapsible=0;recursiveResize=0;outlineConnect=0;portConstraint=eastwest;newEdgeStyle={&quot;curved&quot;:0,&quot;rounded&quot;:0};size=21;" vertex="1" parent="1">
          <mxGeometry x="3686.5" y="1350" width="61" height="1304" as="geometry" />
        </mxCell>
        <mxCell id="lgn-asn2bs2GslqByUnK-27" value="" style="html=1;points=[[0,0,0,0,5],[0,1,0,0,-5],[1,0,0,0,5],[1,1,0,0,-5]];perimeter=orthogonalPerimeter;outlineConnect=0;targetShapes=umlLifeline;portConstraint=eastwest;newEdgeStyle={&quot;curved&quot;:0,&quot;rounded&quot;:0};" vertex="1" parent="lgn-asn2bs2GslqByUnK-23">
          <mxGeometry x="25.5" y="219" width="10" height="69" as="geometry" />
        </mxCell>
        <mxCell id="lgn-asn2bs2GslqByUnK-44" value="" style="html=1;points=[[0,0,0,0,5],[0,1,0,0,-5],[1,0,0,0,5],[1,1,0,0,-5]];perimeter=orthogonalPerimeter;outlineConnect=0;targetShapes=umlLifeline;portConstraint=eastwest;newEdgeStyle={&quot;curved&quot;:0,&quot;rounded&quot;:0};" vertex="1" parent="lgn-asn2bs2GslqByUnK-23">
          <mxGeometry x="25.5" y="467" width="10" height="69" as="geometry" />
        </mxCell>
        <mxCell id="lgn-asn2bs2GslqByUnK-73" value="" style="html=1;points=[[0,0,0,0,5],[0,1,0,0,-5],[1,0,0,0,5],[1,1,0,0,-5]];perimeter=orthogonalPerimeter;outlineConnect=0;targetShapes=umlLifeline;portConstraint=eastwest;newEdgeStyle={&quot;curved&quot;:0,&quot;rounded&quot;:0};" vertex="1" parent="lgn-asn2bs2GslqByUnK-23">
          <mxGeometry x="25.5" y="941" width="10" height="69" as="geometry" />
        </mxCell>
        <mxCell id="kAWBLHEBBWcvH7VohKOh-404" value="Encarteiramento de Clientes Dynamics 365 Empresas" style="text;html=1;resizable=0;points=[];autosize=1;align=left;verticalAlign=top;spacingTop=-4;fontSize=30;fontStyle=1;fontFamily=Tahoma;" vertex="1" parent="1">
          <mxGeometry x="569" y="1173" width="721" height="42" as="geometry" />
        </mxCell>
        <mxCell id="kAWBLHEBBWcvH7VohKOh-405" value="Subtitle text&lt;br style=&quot;font-size: 16px&quot;&gt;" style="text;html=1;resizable=0;points=[];autosize=1;align=left;verticalAlign=top;spacingTop=-4;fontSize=16;fontFamily=Tahoma;" vertex="1" parent="1">
          <mxGeometry x="569" y="1223" width="103" height="25" as="geometry" />
        </mxCell>
        <mxCell id="kAWBLHEBBWcvH7VohKOh-406" value="" style="line;strokeWidth=2;html=1;fontSize=14;fontFamily=Tahoma;" vertex="1" parent="1">
          <mxGeometry x="565" y="1248" width="2522" height="10" as="geometry" />
        </mxCell>
        <mxCell id="kAWBLHEBBWcvH7VohKOh-448" value="AWS Cloud" style="points=[[0,0],[0.25,0],[0.5,0],[0.75,0],[1,0],[1,0.25],[1,0.5],[1,0.75],[1,1],[0.75,1],[0.5,1],[0.25,1],[0,1],[0,0.75],[0,0.5],[0,0.25]];outlineConnect=0;gradientColor=none;html=1;whiteSpace=wrap;fontSize=12;fontStyle=0;shape=mxgraph.aws4.group;grIcon=mxgraph.aws4.group_aws_cloud_alt;strokeColor=#232F3E;fillColor=none;verticalAlign=top;align=left;spacingLeft=30;fontColor=#232F3E;dashed=0;container=0;pointerEvents=0;collapsible=0;recursiveResize=0;fontFamily=Tahoma;" vertex="1" parent="1">
          <mxGeometry x="565" y="1280" width="440.5" height="1010" as="geometry" />
        </mxCell>
        <mxCell id="kAWBLHEBBWcvH7VohKOh-458" value="AWS Cloud" style="points=[[0,0],[0.25,0],[0.5,0],[0.75,0],[1,0],[1,0.25],[1,0.5],[1,0.75],[1,1],[0.75,1],[0.5,1],[0.25,1],[0,1],[0,0.75],[0,0.5],[0,0.25]];outlineConnect=0;gradientColor=none;html=1;whiteSpace=wrap;fontSize=12;fontStyle=0;shape=mxgraph.aws4.group;grIcon=mxgraph.aws4.group_aws_cloud_alt;strokeColor=#232F3E;fillColor=none;verticalAlign=top;align=left;spacingLeft=30;fontColor=#232F3E;dashed=0;container=0;pointerEvents=0;collapsible=0;recursiveResize=0;fontFamily=Tahoma;" vertex="1" parent="1">
          <mxGeometry x="1040" y="1280" width="1460" height="1010" as="geometry" />
        </mxCell>
        <mxCell id="kAWBLHEBBWcvH7VohKOh-509" style="edgeStyle=orthogonalEdgeStyle;rounded=0;orthogonalLoop=1;jettySize=auto;html=1;entryX=0.5;entryY=1;entryDx=0;entryDy=0;exitX=0;exitY=0.5;exitDx=0;exitDy=0;exitPerimeter=0;strokeColor=#545B64;strokeWidth=2;align=center;verticalAlign=middle;fontFamily=Tahoma;fontSize=11;fontColor=default;labelBackgroundColor=default;startArrow=none;endArrow=open;endFill=0;" edge="1" parent="1" source="kAWBLHEBBWcvH7VohKOh-507" target="kAWBLHEBBWcvH7VohKOh-493">
          <mxGeometry relative="1" as="geometry" />
        </mxCell>
        <mxCell id="kAWBLHEBBWcvH7VohKOh-507" value="AWS Glue&lt;div&gt;Cache&lt;/div&gt;" style="sketch=0;points=[[0,0,0],[0.25,0,0],[0.5,0,0],[0.75,0,0],[1,0,0],[0,1,0],[0.25,1,0],[0.5,1,0],[0.75,1,0],[1,1,0],[0,0.25,0],[0,0.5,0],[0,0.75,0],[1,0.25,0],[1,0.5,0],[1,0.75,0]];outlineConnect=0;fontColor=#232F3E;fillColor=#8C4FFF;strokeColor=#ffffff;dashed=0;verticalLabelPosition=bottom;verticalAlign=top;align=center;html=1;fontSize=16;fontStyle=0;aspect=fixed;shape=mxgraph.aws4.resourceIcon;resIcon=mxgraph.aws4.glue;fontFamily=Tahoma;container=0;" vertex="1" parent="1">
          <mxGeometry x="1701" y="1850" width="78" height="78" as="geometry" />
        </mxCell>
        <mxCell id="kAWBLHEBBWcvH7VohKOh-515" style="edgeStyle=orthogonalEdgeStyle;rounded=0;orthogonalLoop=1;jettySize=auto;html=1;entryX=0.5;entryY=1;entryDx=0;entryDy=0;strokeColor=#545B64;strokeWidth=2;align=center;verticalAlign=middle;fontFamily=Tahoma;fontSize=11;fontColor=default;labelBackgroundColor=default;startArrow=none;endArrow=open;endFill=0;dashed=1;" edge="1" parent="1" source="kAWBLHEBBWcvH7VohKOh-510" target="kAWBLHEBBWcvH7VohKOh-469">
          <mxGeometry relative="1" as="geometry" />
        </mxCell>
        <mxCell id="kAWBLHEBBWcvH7VohKOh-523" value="BOTO3" style="edgeStyle=orthogonalEdgeStyle;rounded=0;orthogonalLoop=1;jettySize=auto;html=1;dashed=1;strokeColor=#545B64;strokeWidth=2;align=center;verticalAlign=middle;fontFamily=Tahoma;fontSize=11;fontColor=default;labelBackgroundColor=default;startArrow=none;endArrow=open;endFill=0;sourcePerimeterSpacing=50;" edge="1" parent="1" source="kAWBLHEBBWcvH7VohKOh-510" target="kAWBLHEBBWcvH7VohKOh-522">
          <mxGeometry relative="1" as="geometry" />
        </mxCell>
        <mxCell id="kAWBLHEBBWcvH7VohKOh-524" value="INSERT - JDBC /3345" style="edgeStyle=orthogonalEdgeStyle;rounded=0;orthogonalLoop=1;jettySize=auto;html=1;entryX=0.5;entryY=0;entryDx=0;entryDy=0;exitX=1;exitY=0.75;exitDx=0;exitDy=0;exitPerimeter=0;strokeColor=#545B64;strokeWidth=2;align=center;verticalAlign=middle;fontFamily=Tahoma;fontSize=11;fontColor=default;labelBackgroundColor=default;startArrow=none;endArrow=open;endFill=0;" edge="1" parent="1" source="kAWBLHEBBWcvH7VohKOh-510" target="kAWBLHEBBWcvH7VohKOh-520">
          <mxGeometry relative="1" as="geometry">
            <Array as="points">
              <mxPoint x="1320" y="1910" />
              <mxPoint x="1551" y="1910" />
            </Array>
          </mxGeometry>
        </mxCell>
        <mxCell id="kAWBLHEBBWcvH7VohKOh-510" value="AWS Glue&lt;div&gt;Delta&lt;/div&gt;" style="sketch=0;points=[[0,0,0],[0.25,0,0],[0.5,0,0],[0.75,0,0],[1,0,0],[0,1,0],[0.25,1,0],[0.5,1,0],[0.75,1,0],[1,1,0],[0,0.25,0],[0,0.5,0],[0,0.75,0],[1,0.25,0],[1,0.5,0],[1,0.75,0]];outlineConnect=0;fontColor=#232F3E;fillColor=#8C4FFF;strokeColor=#ffffff;dashed=0;verticalLabelPosition=bottom;verticalAlign=top;align=center;html=1;fontSize=16;fontStyle=0;aspect=fixed;shape=mxgraph.aws4.resourceIcon;resIcon=mxgraph.aws4.glue;fontFamily=Tahoma;container=0;" vertex="1" parent="1">
          <mxGeometry x="1187.5" y="1851" width="78" height="78" as="geometry" />
        </mxCell>
        <mxCell id="kAWBLHEBBWcvH7VohKOh-511" value="" style="group;fontFamily=Tahoma;" vertex="1" connectable="0" parent="1">
          <mxGeometry x="1391" y="1360" width="430" height="450" as="geometry" />
        </mxCell>
        <mxCell id="kAWBLHEBBWcvH7VohKOh-493" value="CACHE" style="fillColor=none;strokeColor=#97D077;dashed=1;verticalAlign=top;fontStyle=1;fontColor=#5A6C86;whiteSpace=wrap;html=1;strokeWidth=2;fontSize=16;container=0;fontFamily=Tahoma;" vertex="1" parent="kAWBLHEBBWcvH7VohKOh-511">
          <mxGeometry width="430" height="450" as="geometry" />
        </mxCell>
        <mxCell id="kAWBLHEBBWcvH7VohKOh-494" value="AWS S3" style="sketch=0;points=[[0,0,0],[0.25,0,0],[0.5,0,0],[0.75,0,0],[1,0,0],[0,1,0],[0.25,1,0],[0.5,1,0],[0.75,1,0],[1,1,0],[0,0.25,0],[0,0.5,0],[0,0.75,0],[1,0.25,0],[1,0.5,0],[1,0.75,0]];outlineConnect=0;fontColor=#232F3E;fillColor=#7AA116;strokeColor=#ffffff;dashed=0;verticalLabelPosition=bottom;verticalAlign=top;align=center;html=1;fontSize=16;fontStyle=0;aspect=fixed;shape=mxgraph.aws4.resourceIcon;resIcon=mxgraph.aws4.s3;fontFamily=Tahoma;container=0;" vertex="1" parent="kAWBLHEBBWcvH7VohKOh-511">
          <mxGeometry width="78" height="78" as="geometry" />
        </mxCell>
        <mxCell id="kAWBLHEBBWcvH7VohKOh-495" value="CNPJ9" style="sketch=0;outlineConnect=0;fontColor=#232F3E;gradientColor=none;fillColor=#7AA116;strokeColor=none;dashed=0;verticalLabelPosition=bottom;verticalAlign=top;align=center;html=1;fontSize=12;fontStyle=0;aspect=fixed;pointerEvents=1;shape=mxgraph.aws4.bucket;fontFamily=Tahoma;container=0;" vertex="1" parent="kAWBLHEBBWcvH7VohKOh-511">
          <mxGeometry x="227.1199999999999" y="54" width="55.77" height="58" as="geometry" />
        </mxCell>
        <mxCell id="kAWBLHEBBWcvH7VohKOh-496" value="CNPJ14" style="sketch=0;outlineConnect=0;fontColor=#232F3E;gradientColor=none;fillColor=#7AA116;strokeColor=none;dashed=0;verticalLabelPosition=bottom;verticalAlign=top;align=center;html=1;fontSize=12;fontStyle=0;aspect=fixed;pointerEvents=1;shape=mxgraph.aws4.bucket;fontFamily=Tahoma;container=0;" vertex="1" parent="kAWBLHEBBWcvH7VohKOh-511">
          <mxGeometry x="327.1199999999999" y="54" width="55.77" height="58" as="geometry" />
        </mxCell>
        <mxCell id="kAWBLHEBBWcvH7VohKOh-497" value="CONTA&lt;div&gt;BANCÁRIA&lt;/div&gt;" style="sketch=0;outlineConnect=0;fontColor=#232F3E;gradientColor=none;fillColor=#7AA116;strokeColor=none;dashed=0;verticalLabelPosition=bottom;verticalAlign=top;align=center;html=1;fontSize=12;fontStyle=0;aspect=fixed;pointerEvents=1;shape=mxgraph.aws4.bucket;fontFamily=Tahoma;container=0;" vertex="1" parent="kAWBLHEBBWcvH7VohKOh-511">
          <mxGeometry x="50" y="177.5" width="55.77" height="58" as="geometry" />
        </mxCell>
        <mxCell id="kAWBLHEBBWcvH7VohKOh-498" value="CONTA&lt;div&gt;GESTORA&lt;/div&gt;" style="sketch=0;outlineConnect=0;fontColor=#232F3E;gradientColor=none;fillColor=#7AA116;strokeColor=none;dashed=0;verticalLabelPosition=bottom;verticalAlign=top;align=center;html=1;fontSize=12;fontStyle=0;aspect=fixed;pointerEvents=1;shape=mxgraph.aws4.bucket;fontFamily=Tahoma;container=0;" vertex="1" parent="kAWBLHEBBWcvH7VohKOh-511">
          <mxGeometry x="187.1199999999999" y="177.5" width="55.77" height="58" as="geometry" />
        </mxCell>
        <mxCell id="kAWBLHEBBWcvH7VohKOh-499" value="CARTEIRA" style="sketch=0;outlineConnect=0;fontColor=#232F3E;gradientColor=none;fillColor=#7AA116;strokeColor=none;dashed=0;verticalLabelPosition=bottom;verticalAlign=top;align=center;html=1;fontSize=12;fontStyle=0;aspect=fixed;pointerEvents=1;shape=mxgraph.aws4.bucket;fontFamily=Tahoma;container=0;" vertex="1" parent="kAWBLHEBBWcvH7VohKOh-511">
          <mxGeometry x="124.99999999999989" y="58" width="55.77" height="58" as="geometry" />
        </mxCell>
        <mxCell id="kAWBLHEBBWcvH7VohKOh-500" value="CARTEIRA&lt;div&gt;DA CONTA&lt;/div&gt;" style="sketch=0;outlineConnect=0;fontColor=#232F3E;gradientColor=none;fillColor=#7AA116;strokeColor=none;dashed=0;verticalLabelPosition=bottom;verticalAlign=top;align=center;html=1;fontSize=12;fontStyle=0;aspect=fixed;pointerEvents=1;shape=mxgraph.aws4.bucket;fontFamily=Tahoma;container=0;" vertex="1" parent="kAWBLHEBBWcvH7VohKOh-511">
          <mxGeometry x="50" y="313.5" width="55.77" height="58" as="geometry" />
        </mxCell>
        <mxCell id="kAWBLHEBBWcvH7VohKOh-501" value="CNPJ9&lt;div&gt;CARTEIRA&lt;/div&gt;" style="sketch=0;outlineConnect=0;fontColor=#232F3E;gradientColor=none;fillColor=#7AA116;strokeColor=none;dashed=0;verticalLabelPosition=bottom;verticalAlign=top;align=center;html=1;fontSize=12;fontStyle=0;aspect=fixed;pointerEvents=1;shape=mxgraph.aws4.bucket;fontFamily=Tahoma;container=0;" vertex="1" parent="kAWBLHEBBWcvH7VohKOh-511">
          <mxGeometry x="187.1199999999999" y="313.5" width="55.77" height="58" as="geometry" />
        </mxCell>
        <mxCell id="kAWBLHEBBWcvH7VohKOh-502" value="CLIENTE&lt;div&gt;CARTEIRA&lt;/div&gt;" style="sketch=0;outlineConnect=0;fontColor=#232F3E;gradientColor=none;fillColor=#7AA116;strokeColor=none;dashed=0;verticalLabelPosition=bottom;verticalAlign=top;align=center;html=1;fontSize=12;fontStyle=0;aspect=fixed;pointerEvents=1;shape=mxgraph.aws4.bucket;fontFamily=Tahoma;container=0;" vertex="1" parent="kAWBLHEBBWcvH7VohKOh-511">
          <mxGeometry x="327.1199999999999" y="177.5" width="55.77" height="58" as="geometry" />
        </mxCell>
        <mxCell id="kAWBLHEBBWcvH7VohKOh-503" value="CONTA&lt;div&gt;CLIENTE&lt;/div&gt;" style="sketch=0;outlineConnect=0;fontColor=#232F3E;gradientColor=none;fillColor=#7AA116;strokeColor=none;dashed=0;verticalLabelPosition=bottom;verticalAlign=top;align=center;html=1;fontSize=12;fontStyle=0;aspect=fixed;pointerEvents=1;shape=mxgraph.aws4.bucket;fontFamily=Tahoma;container=0;" vertex="1" parent="kAWBLHEBBWcvH7VohKOh-511">
          <mxGeometry x="327.1199999999999" y="313.5" width="55.77" height="58" as="geometry" />
        </mxCell>
        <mxCell id="kAWBLHEBBWcvH7VohKOh-506" value="4" style="rounded=1;whiteSpace=wrap;html=1;fillColor=#007CBD;strokeColor=none;fontColor=#FFFFFF;fontStyle=1;fontSize=22;labelBackgroundColor=none;container=0;fontFamily=Tahoma;" vertex="1" parent="kAWBLHEBBWcvH7VohKOh-511">
          <mxGeometry x="19" y="116" width="40" height="38" as="geometry" />
        </mxCell>
        <mxCell id="kAWBLHEBBWcvH7VohKOh-513" value="" style="group;fontFamily=Tahoma;" vertex="1" connectable="0" parent="1">
          <mxGeometry x="1100" y="1490" width="253" height="270" as="geometry" />
        </mxCell>
        <mxCell id="kAWBLHEBBWcvH7VohKOh-469" value="AWS IAM" style="fillColor=none;strokeColor=#DD3522;verticalAlign=top;fontStyle=0;fontColor=#DD3522;whiteSpace=wrap;html=1;fontFamily=Tahoma;fontSize=16;container=0;" vertex="1" parent="kAWBLHEBBWcvH7VohKOh-513">
          <mxGeometry width="253" height="270" as="geometry" />
        </mxCell>
        <mxCell id="kAWBLHEBBWcvH7VohKOh-459" value="glue-encarteiramento&lt;div&gt;-role-delta&lt;/div&gt;" style="sketch=0;outlineConnect=0;fontColor=#232F3E;gradientColor=none;fillColor=#DD344C;strokeColor=none;dashed=0;verticalLabelPosition=bottom;verticalAlign=top;align=center;html=1;fontSize=12;fontStyle=0;aspect=fixed;pointerEvents=1;shape=mxgraph.aws4.role;container=0;fontFamily=Tahoma;" vertex="1" parent="kAWBLHEBBWcvH7VohKOh-513">
          <mxGeometry x="130" y="113" width="78" height="44" as="geometry" />
        </mxCell>
        <mxCell id="kAWBLHEBBWcvH7VohKOh-466" value="Permissions" style="sketch=0;outlineConnect=0;fontColor=#232F3E;gradientColor=none;fillColor=#DD344C;strokeColor=none;dashed=0;verticalLabelPosition=bottom;verticalAlign=top;align=center;html=1;fontSize=12;fontStyle=0;aspect=fixed;pointerEvents=1;shape=mxgraph.aws4.permissions;container=0;fontFamily=Tahoma;" vertex="1" parent="kAWBLHEBBWcvH7VohKOh-513">
          <mxGeometry x="27" y="160" width="62" height="78" as="geometry" />
        </mxCell>
        <mxCell id="kAWBLHEBBWcvH7VohKOh-467" value="" style="outlineConnect=0;dashed=0;verticalLabelPosition=bottom;verticalAlign=top;align=center;html=1;shape=mxgraph.aws3.iam;fillColor=#759C3E;gradientColor=none;container=0;fontFamily=Tahoma;" vertex="1" parent="kAWBLHEBBWcvH7VohKOh-513">
          <mxGeometry x="37" y="30" width="42" height="81" as="geometry" />
        </mxCell>
        <mxCell id="kAWBLHEBBWcvH7VohKOh-471" value="2" style="rounded=1;whiteSpace=wrap;html=1;fillColor=#007CBD;strokeColor=none;fontColor=#FFFFFF;fontStyle=1;fontSize=22;labelBackgroundColor=none;container=0;fontFamily=Tahoma;" vertex="1" parent="kAWBLHEBBWcvH7VohKOh-513">
          <mxGeometry x="200" y="15" width="40" height="38" as="geometry" />
        </mxCell>
        <mxCell id="kAWBLHEBBWcvH7VohKOh-514" style="edgeStyle=orthogonalEdgeStyle;rounded=0;orthogonalLoop=1;jettySize=auto;html=1;entryX=1;entryY=0.5;entryDx=0;entryDy=0;entryPerimeter=0;exitX=0.25;exitY=1;exitDx=0;exitDy=0;strokeColor=#545B64;strokeWidth=2;align=center;verticalAlign=middle;fontFamily=Tahoma;fontSize=11;fontColor=default;labelBackgroundColor=default;startArrow=none;endArrow=open;endFill=0;" edge="1" parent="1" source="kAWBLHEBBWcvH7VohKOh-493" target="kAWBLHEBBWcvH7VohKOh-510">
          <mxGeometry relative="1" as="geometry" />
        </mxCell>
        <mxCell id="kAWBLHEBBWcvH7VohKOh-517" style="edgeStyle=orthogonalEdgeStyle;rounded=0;orthogonalLoop=1;jettySize=auto;html=1;entryX=0;entryY=0.5;entryDx=0;entryDy=0;entryPerimeter=0;strokeColor=#545B64;strokeWidth=2;align=center;verticalAlign=middle;fontFamily=Tahoma;fontSize=11;fontColor=default;labelBackgroundColor=default;startArrow=none;endArrow=open;endFill=0;exitX=1;exitY=0.684;exitDx=0;exitDy=0;exitPerimeter=0;" edge="1" parent="1" source="kAWBLHEBBWcvH7VohKOh-455" target="kAWBLHEBBWcvH7VohKOh-510">
          <mxGeometry relative="1" as="geometry">
            <Array as="points">
              <mxPoint x="940" y="1889" />
            </Array>
          </mxGeometry>
        </mxCell>
        <mxCell id="kAWBLHEBBWcvH7VohKOh-521" value="" style="group;fontFamily=Tahoma;" vertex="1" connectable="0" parent="1">
          <mxGeometry x="1348" y="1986" width="302" height="166" as="geometry" />
        </mxCell>
        <mxCell id="kAWBLHEBBWcvH7VohKOh-520" value="" style="fillColor=none;strokeColor=#FF00FF;dashed=1;verticalAlign=top;fontStyle=0;fontColor=#5A6C86;whiteSpace=wrap;html=1;strokeWidth=2;fontFamily=Tahoma;" vertex="1" parent="kAWBLHEBBWcvH7VohKOh-521">
          <mxGeometry width="302" height="166" as="geometry" />
        </mxCell>
        <mxCell id="kAWBLHEBBWcvH7VohKOh-518" value="" style="sketch=0;outlineConnect=0;fontColor=#232F3E;gradientColor=none;fillColor=#C925D1;strokeColor=none;dashed=0;verticalLabelPosition=bottom;verticalAlign=top;align=center;html=1;fontSize=12;fontStyle=0;aspect=fixed;pointerEvents=1;shape=mxgraph.aws4.rds_postgresql_instance;fontFamily=Tahoma;" vertex="1" parent="kAWBLHEBBWcvH7VohKOh-521">
          <mxGeometry x="192" y="39" width="78" height="78" as="geometry" />
        </mxCell>
        <mxCell id="kAWBLHEBBWcvH7VohKOh-519" value="AWS RDS" style="sketch=0;points=[[0,0,0],[0.25,0,0],[0.5,0,0],[0.75,0,0],[1,0,0],[0,1,0],[0.25,1,0],[0.5,1,0],[0.75,1,0],[1,1,0],[0,0.25,0],[0,0.5,0],[0,0.75,0],[1,0.25,0],[1,0.5,0],[1,0.75,0]];outlineConnect=0;fontColor=#232F3E;fillColor=#C925D1;strokeColor=#ffffff;dashed=0;verticalLabelPosition=bottom;verticalAlign=top;align=center;html=1;fontSize=16;fontStyle=0;aspect=fixed;shape=mxgraph.aws4.resourceIcon;resIcon=mxgraph.aws4.rds;fontFamily=Tahoma;" vertex="1" parent="kAWBLHEBBWcvH7VohKOh-521">
          <mxGeometry x="30" y="39" width="78" height="78" as="geometry" />
        </mxCell>
        <mxCell id="kAWBLHEBBWcvH7VohKOh-553" value="7" style="rounded=1;whiteSpace=wrap;html=1;fillColor=#007CBD;strokeColor=none;fontColor=#FFFFFF;fontStyle=1;fontSize=22;labelBackgroundColor=none;fontFamily=Tahoma;" vertex="1" parent="kAWBLHEBBWcvH7VohKOh-521">
          <mxGeometry x="131" y="59" width="40" height="38" as="geometry" />
        </mxCell>
        <mxCell id="kAWBLHEBBWcvH7VohKOh-522" value="Secret Manager&lt;div&gt;RDS Credentials&lt;/div&gt;" style="sketch=0;points=[[0,0,0],[0.25,0,0],[0.5,0,0],[0.75,0,0],[1,0,0],[0,1,0],[0.25,1,0],[0.5,1,0],[0.75,1,0],[1,1,0],[0,0.25,0],[0,0.5,0],[0,0.75,0],[1,0.25,0],[1,0.5,0],[1,0.75,0]];outlineConnect=0;fontColor=#232F3E;fillColor=#DD344C;strokeColor=#ffffff;dashed=0;verticalLabelPosition=bottom;verticalAlign=top;align=center;html=1;fontSize=16;fontStyle=0;aspect=fixed;shape=mxgraph.aws4.resourceIcon;resIcon=mxgraph.aws4.secrets_manager;fontFamily=Tahoma;" vertex="1" parent="1">
          <mxGeometry x="1187.5" y="2141.5" width="78" height="78" as="geometry" />
        </mxCell>
        <mxCell id="kAWBLHEBBWcvH7VohKOh-563" value="HTTP /POST&lt;div&gt;:7003&lt;/div&gt;" style="edgeStyle=orthogonalEdgeStyle;rounded=0;orthogonalLoop=1;jettySize=auto;html=1;strokeColor=#545B64;strokeWidth=2;align=center;verticalAlign=middle;fontFamily=Tahoma;fontSize=11;fontColor=default;labelBackgroundColor=default;startArrow=none;endArrow=open;endFill=0;" edge="1" parent="1" source="kAWBLHEBBWcvH7VohKOh-525" target="kAWBLHEBBWcvH7VohKOh-532">
          <mxGeometry relative="1" as="geometry" />
        </mxCell>
        <mxCell id="kAWBLHEBBWcvH7VohKOh-525" value="AWS Glue&lt;div&gt;Update Dynamics&lt;/div&gt;" style="sketch=0;points=[[0,0,0],[0.25,0,0],[0.5,0,0],[0.75,0,0],[1,0,0],[0,1,0],[0.25,1,0],[0.5,1,0],[0.75,1,0],[1,1,0],[0,0.25,0],[0,0.5,0],[0,0.75,0],[1,0.25,0],[1,0.5,0],[1,0.75,0]];outlineConnect=0;fontColor=#232F3E;fillColor=#8C4FFF;strokeColor=#ffffff;dashed=0;verticalLabelPosition=bottom;verticalAlign=top;align=center;html=1;fontSize=16;fontStyle=0;aspect=fixed;shape=mxgraph.aws4.resourceIcon;resIcon=mxgraph.aws4.glue;fontFamily=Tahoma;container=0;" vertex="1" parent="1">
          <mxGeometry x="1972" y="2040" width="78" height="78" as="geometry" />
        </mxCell>
        <mxCell id="kAWBLHEBBWcvH7VohKOh-526" value="SELECT JDBC /3345" style="edgeStyle=orthogonalEdgeStyle;rounded=0;orthogonalLoop=1;jettySize=auto;html=1;strokeColor=#545B64;strokeWidth=2;align=center;verticalAlign=middle;fontFamily=Tahoma;fontSize=11;fontColor=default;labelBackgroundColor=default;startArrow=open;endArrow=none;endFill=0;entryX=0;entryY=0.5;entryDx=0;entryDy=0;entryPerimeter=0;startFill=0;" edge="1" parent="1" target="kAWBLHEBBWcvH7VohKOh-525">
          <mxGeometry relative="1" as="geometry">
            <mxPoint x="1650" y="2078" as="sourcePoint" />
            <mxPoint x="2130" y="2165" as="targetPoint" />
            <Array as="points">
              <mxPoint x="1650" y="2079" />
            </Array>
          </mxGeometry>
        </mxCell>
        <mxCell id="kAWBLHEBBWcvH7VohKOh-545" value="" style="group;fontFamily=Tahoma;" vertex="1" connectable="0" parent="1">
          <mxGeometry x="1880" y="1360" width="570" height="610" as="geometry" />
        </mxCell>
        <mxCell id="kAWBLHEBBWcvH7VohKOh-529" value="VPC" style="points=[[0,0],[0.25,0],[0.5,0],[0.75,0],[1,0],[1,0.25],[1,0.5],[1,0.75],[1,1],[0.75,1],[0.5,1],[0.25,1],[0,1],[0,0.75],[0,0.5],[0,0.25]];outlineConnect=0;gradientColor=none;html=1;whiteSpace=wrap;fontSize=12;fontStyle=0;container=0;pointerEvents=0;collapsible=0;recursiveResize=0;shape=mxgraph.aws4.group;grIcon=mxgraph.aws4.group_vpc2;strokeColor=#8C4FFF;fillColor=none;verticalAlign=top;align=left;spacingLeft=30;fontColor=#AAB7B8;dashed=0;fontFamily=Tahoma;" vertex="1" parent="kAWBLHEBBWcvH7VohKOh-545">
          <mxGeometry width="570" height="610" as="geometry" />
        </mxCell>
        <mxCell id="kAWBLHEBBWcvH7VohKOh-530" value="Private subnet" style="points=[[0,0],[0.25,0],[0.5,0],[0.75,0],[1,0],[1,0.25],[1,0.5],[1,0.75],[1,1],[0.75,1],[0.5,1],[0.25,1],[0,1],[0,0.75],[0,0.5],[0,0.25]];outlineConnect=0;gradientColor=none;html=1;whiteSpace=wrap;fontSize=12;fontStyle=0;container=0;pointerEvents=0;collapsible=0;recursiveResize=0;shape=mxgraph.aws4.group;grIcon=mxgraph.aws4.group_security_group;grStroke=0;strokeColor=#00A4A6;fillColor=#E6F6F7;verticalAlign=top;align=left;spacingLeft=30;fontColor=#147EBA;dashed=0;fontFamily=Tahoma;" vertex="1" parent="kAWBLHEBBWcvH7VohKOh-545">
          <mxGeometry x="40" y="370" width="130" height="40" as="geometry" />
        </mxCell>
        <mxCell id="kAWBLHEBBWcvH7VohKOh-531" style="edgeStyle=orthogonalEdgeStyle;rounded=0;orthogonalLoop=1;jettySize=auto;html=1;entryX=0.5;entryY=1;entryDx=0;entryDy=0;strokeColor=#545B64;strokeWidth=2;align=center;verticalAlign=middle;fontFamily=Tahoma;fontSize=11;fontColor=default;labelBackgroundColor=default;startArrow=none;endArrow=open;endFill=0;sourcePerimeterSpacing=45;" edge="1" parent="kAWBLHEBBWcvH7VohKOh-545" source="kAWBLHEBBWcvH7VohKOh-532" target="kAWBLHEBBWcvH7VohKOh-534">
          <mxGeometry relative="1" as="geometry">
            <mxPoint x="-9.99999999999909" y="939.0050000000001" as="targetPoint" />
          </mxGeometry>
        </mxCell>
        <mxCell id="kAWBLHEBBWcvH7VohKOh-532" value="Network&lt;div&gt;Load Balancer&lt;/div&gt;" style="sketch=0;outlineConnect=0;fontColor=#232F3E;gradientColor=none;fillColor=#8C4FFF;strokeColor=none;dashed=0;verticalLabelPosition=top;verticalAlign=bottom;align=center;html=1;fontSize=16;fontStyle=0;aspect=fixed;pointerEvents=1;shape=mxgraph.aws4.network_load_balancer;fontFamily=Tahoma;container=0;labelPosition=center;spacingBottom=3;" vertex="1" parent="kAWBLHEBBWcvH7VohKOh-545">
          <mxGeometry x="246" y="490" width="78" height="78" as="geometry" />
        </mxCell>
        <mxCell id="kAWBLHEBBWcvH7VohKOh-533" value="Private subnet" style="points=[[0,0],[0.25,0],[0.5,0],[0.75,0],[1,0],[1,0.25],[1,0.5],[1,0.75],[1,1],[0.75,1],[0.5,1],[0.25,1],[0,1],[0,0.75],[0,0.5],[0,0.25]];outlineConnect=0;gradientColor=none;html=1;whiteSpace=wrap;fontSize=12;fontStyle=0;container=0;pointerEvents=0;collapsible=0;recursiveResize=0;shape=mxgraph.aws4.group;grIcon=mxgraph.aws4.group_security_group;grStroke=0;strokeColor=#00A4A6;fillColor=#E6F6F7;verticalAlign=top;align=left;spacingLeft=30;fontColor=#147EBA;dashed=0;fontFamily=Tahoma;" vertex="1" parent="kAWBLHEBBWcvH7VohKOh-545">
          <mxGeometry x="400" y="370" width="130" height="40" as="geometry" />
        </mxCell>
        <mxCell id="kAWBLHEBBWcvH7VohKOh-534" value="" style="fillColor=none;strokeColor=#FF9933;dashed=1;verticalAlign=top;fontStyle=0;fontColor=#5A6C86;whiteSpace=wrap;html=1;strokeWidth=2;container=0;fontFamily=Tahoma;" vertex="1" parent="kAWBLHEBBWcvH7VohKOh-545">
          <mxGeometry x="40" y="70" width="490" height="288.25" as="geometry" />
        </mxCell>
        <mxCell id="kAWBLHEBBWcvH7VohKOh-535" value="Elastic Container&lt;div&gt;Service&lt;/div&gt;" style="sketch=0;points=[[0,0,0],[0.25,0,0],[0.5,0,0],[0.75,0,0],[1,0,0],[0,1,0],[0.25,1,0],[0.5,1,0],[0.75,1,0],[1,1,0],[0,0.25,0],[0,0.5,0],[0,0.75,0],[1,0.25,0],[1,0.5,0],[1,0.75,0]];outlineConnect=0;fontColor=#232F3E;fillColor=#ED7100;strokeColor=#ffffff;dashed=0;verticalLabelPosition=bottom;verticalAlign=top;align=left;html=1;fontSize=16;fontStyle=0;aspect=fixed;shape=mxgraph.aws4.resourceIcon;resIcon=mxgraph.aws4.ecs;fontFamily=Tahoma;container=0;" vertex="1" parent="kAWBLHEBBWcvH7VohKOh-545">
          <mxGeometry x="40" y="70" width="78" height="78" as="geometry" />
        </mxCell>
        <mxCell id="kAWBLHEBBWcvH7VohKOh-536" value="Fargate" style="sketch=0;points=[[0,0,0],[0.25,0,0],[0.5,0,0],[0.75,0,0],[1,0,0],[0,1,0],[0.25,1,0],[0.5,1,0],[0.75,1,0],[1,1,0],[0,0.25,0],[0,0.5,0],[0,0.75,0],[1,0.25,0],[1,0.5,0],[1,0.75,0]];outlineConnect=0;fontColor=#232F3E;fillColor=#ED7100;strokeColor=#ffffff;dashed=0;verticalLabelPosition=bottom;verticalAlign=top;align=center;html=1;fontSize=16;fontStyle=0;aspect=fixed;shape=mxgraph.aws4.resourceIcon;resIcon=mxgraph.aws4.fargate;fontFamily=Tahoma;container=0;" vertex="1" parent="kAWBLHEBBWcvH7VohKOh-545">
          <mxGeometry x="40" y="240" width="78" height="78" as="geometry" />
        </mxCell>
        <mxCell id="kAWBLHEBBWcvH7VohKOh-538" value="ECS&lt;div&gt;Service&lt;/div&gt;" style="sketch=0;outlineConnect=0;fontColor=#232F3E;gradientColor=none;fillColor=#ED7100;strokeColor=none;dashed=0;verticalLabelPosition=bottom;verticalAlign=top;align=left;html=1;fontSize=14;fontStyle=0;aspect=fixed;pointerEvents=1;shape=mxgraph.aws4.ecs_service;fontFamily=Tahoma;container=0;" vertex="1" parent="kAWBLHEBBWcvH7VohKOh-545">
          <mxGeometry x="224.75" y="106.75" width="39" height="48" as="geometry" />
        </mxCell>
        <mxCell id="kAWBLHEBBWcvH7VohKOh-539" value="Auto&lt;div&gt;Scaling&lt;/div&gt;" style="sketch=0;points=[[0,0,0],[0.25,0,0],[0.5,0,0],[0.75,0,0],[1,0,0],[0,1,0],[0.25,1,0],[0.5,1,0],[0.75,1,0],[1,1,0],[0,0.25,0],[0,0.5,0],[0,0.75,0],[1,0.25,0],[1,0.5,0],[1,0.75,0]];outlineConnect=0;fontColor=#232F3E;fillColor=#ED7100;strokeColor=#ffffff;dashed=0;verticalLabelPosition=bottom;verticalAlign=top;align=left;html=1;fontSize=14;fontStyle=0;aspect=fixed;shape=mxgraph.aws4.resourceIcon;resIcon=mxgraph.aws4.auto_scaling3;container=0;fontFamily=Tahoma;" vertex="1" parent="kAWBLHEBBWcvH7VohKOh-545">
          <mxGeometry x="220" y="227.5" width="48.5" height="48.5" as="geometry" />
        </mxCell>
        <mxCell id="kAWBLHEBBWcvH7VohKOh-540" value="Task&lt;div&gt;Definition&lt;/div&gt;" style="sketch=0;outlineConnect=0;fontColor=#232F3E;gradientColor=none;fillColor=#ED7100;strokeColor=none;dashed=0;verticalLabelPosition=bottom;verticalAlign=top;align=center;html=1;fontSize=14;fontStyle=0;aspect=fixed;pointerEvents=1;shape=mxgraph.aws4.ecs_task;fontFamily=Tahoma;container=0;" vertex="1" parent="kAWBLHEBBWcvH7VohKOh-545">
          <mxGeometry x="348.53999999999996" y="106.75" width="37" height="48" as="geometry" />
        </mxCell>
        <mxCell id="kAWBLHEBBWcvH7VohKOh-541" value="IAM Role" style="sketch=0;outlineConnect=0;fontColor=#232F3E;gradientColor=none;fillColor=#DD344C;strokeColor=none;dashed=0;verticalLabelPosition=bottom;verticalAlign=top;align=center;html=1;fontSize=14;fontStyle=0;aspect=fixed;pointerEvents=1;shape=mxgraph.aws4.role;fontFamily=Tahoma;container=0;" vertex="1" parent="kAWBLHEBBWcvH7VohKOh-545">
          <mxGeometry x="340" y="227.5" width="54.07" height="30.5" as="geometry" />
        </mxCell>
        <mxCell id="kAWBLHEBBWcvH7VohKOh-542" value="Task" style="sketch=0;outlineConnect=0;fontColor=#232F3E;gradientColor=none;fillColor=#ED7100;strokeColor=none;dashed=0;verticalLabelPosition=bottom;verticalAlign=top;align=center;html=1;fontSize=14;fontStyle=0;aspect=fixed;pointerEvents=1;shape=mxgraph.aws4.container_3;container=0;fontFamily=Tahoma;" vertex="1" parent="kAWBLHEBBWcvH7VohKOh-545">
          <mxGeometry x="440" y="227.5" width="48" height="31" as="geometry" />
        </mxCell>
        <mxCell id="kAWBLHEBBWcvH7VohKOh-543" value="Task" style="sketch=0;outlineConnect=0;fontColor=#232F3E;gradientColor=none;fillColor=#ED7100;strokeColor=none;dashed=0;verticalLabelPosition=bottom;verticalAlign=top;align=center;html=1;fontSize=14;fontStyle=0;aspect=fixed;pointerEvents=1;shape=mxgraph.aws4.container_3;container=0;fontFamily=Tahoma;" vertex="1" parent="kAWBLHEBBWcvH7VohKOh-545">
          <mxGeometry x="440" y="106.75" width="48" height="31" as="geometry" />
        </mxCell>
        <mxCell id="kAWBLHEBBWcvH7VohKOh-544" value="" style="fillColor=none;strokeColor=#5A6C86;verticalAlign=top;fontStyle=0;fontColor=#5A6C86;whiteSpace=wrap;html=1;container=0;fontFamily=Tahoma;" vertex="1" parent="kAWBLHEBBWcvH7VohKOh-545">
          <mxGeometry x="210" y="98.25" width="290" height="228.5" as="geometry" />
        </mxCell>
        <mxCell id="kAWBLHEBBWcvH7VohKOh-537" value="3" style="rounded=1;whiteSpace=wrap;html=1;fillColor=#007CBD;strokeColor=none;fontColor=#FFFFFF;fontStyle=1;fontSize=22;labelBackgroundColor=none;container=0;fontFamily=Tahoma;" vertex="1" parent="kAWBLHEBBWcvH7VohKOh-545">
          <mxGeometry x="40" y="440" width="40" height="38" as="geometry" />
        </mxCell>
        <mxCell id="kAWBLHEBBWcvH7VohKOh-547" value="Secret Manager&lt;div&gt;Usuário Dynamics&lt;/div&gt;" style="sketch=0;points=[[0,0,0],[0.25,0,0],[0.5,0,0],[0.75,0,0],[1,0,0],[0,1,0],[0.25,1,0],[0.5,1,0],[0.75,1,0],[1,1,0],[0,0.25,0],[0,0.5,0],[0,0.75,0],[1,0.25,0],[1,0.5,0],[1,0.75,0]];outlineConnect=0;fontColor=#232F3E;fillColor=#DD344C;strokeColor=#ffffff;dashed=0;verticalLabelPosition=bottom;verticalAlign=top;align=center;html=1;fontSize=16;fontStyle=0;aspect=fixed;shape=mxgraph.aws4.resourceIcon;resIcon=mxgraph.aws4.secrets_manager;fontFamily=Tahoma;" vertex="1" parent="1">
          <mxGeometry x="2198" y="2138.5" width="78" height="78" as="geometry" />
        </mxCell>
        <mxCell id="kAWBLHEBBWcvH7VohKOh-551" value="5" style="rounded=1;whiteSpace=wrap;html=1;fillColor=#007CBD;strokeColor=none;fontColor=#FFFFFF;fontStyle=1;fontSize=22;labelBackgroundColor=none;arcSize=0;align=center;verticalAlign=middle;fontFamily=Tahoma;" vertex="1" parent="1">
          <mxGeometry x="1720" y="1986" width="40" height="38" as="geometry" />
        </mxCell>
        <mxCell id="kAWBLHEBBWcvH7VohKOh-552" value="6" style="rounded=1;whiteSpace=wrap;html=1;fillColor=#007CBD;strokeColor=none;fontColor=#FFFFFF;fontStyle=1;fontSize=22;labelBackgroundColor=none;fontFamily=Tahoma;" vertex="1" parent="1">
          <mxGeometry x="1150" y="1797.25" width="40" height="38" as="geometry" />
        </mxCell>
        <mxCell id="kAWBLHEBBWcvH7VohKOh-554" value="8" style="rounded=1;whiteSpace=wrap;html=1;fillColor=#007CBD;strokeColor=none;fontColor=#FFFFFF;fontStyle=1;fontSize=22;labelBackgroundColor=none;fontFamily=Tahoma;" vertex="1" parent="1">
          <mxGeometry x="1991" y="1996" width="40" height="38" as="geometry" />
        </mxCell>
        <mxCell id="kAWBLHEBBWcvH7VohKOh-455" value="&#39;Data Lake&#39;" style="rounded=1;whiteSpace=wrap;html=1;verticalAlign=top;fontSize=22;fontColor=#606060;fillColor=#F7F7F7;fontFamily=Tahoma;" vertex="1" parent="1">
          <mxGeometry x="664" y="1466.5" width="270" height="618" as="geometry" />
        </mxCell>
        <mxCell id="kAWBLHEBBWcvH7VohKOh-452" value="AWS Lake&lt;div&gt;Formation&lt;/div&gt;" style="sketch=0;points=[[0,0,0],[0.25,0,0],[0.5,0,0],[0.75,0,0],[1,0,0],[0,1,0],[0.25,1,0],[0.5,1,0],[0.75,1,0],[1,1,0],[0,0.25,0],[0,0.5,0],[0,0.75,0],[1,0.25,0],[1,0.5,0],[1,0.75,0]];outlineConnect=0;fontColor=#232F3E;fillColor=#8C4FFF;strokeColor=#ffffff;dashed=0;verticalLabelPosition=bottom;verticalAlign=top;align=center;html=1;fontSize=16;fontStyle=0;aspect=fixed;shape=mxgraph.aws4.resourceIcon;resIcon=mxgraph.aws4.lake_formation;fontFamily=Tahoma;" vertex="1" parent="1">
          <mxGeometry x="760" y="1896.5" width="78" height="78" as="geometry" />
        </mxCell>
        <mxCell id="kAWBLHEBBWcvH7VohKOh-453" value="&lt;div&gt;Data Lake Bucket&lt;/div&gt;Amazon S3" style="outlineConnect=0;fontColor=#232F3E;gradientColor=#60A337;gradientDirection=north;fillColor=#277116;strokeColor=#ffffff;dashed=0;verticalLabelPosition=bottom;verticalAlign=top;align=center;html=1;fontSize=16;fontStyle=0;aspect=fixed;shape=mxgraph.aws4.resourceIcon;resIcon=mxgraph.aws4.s3;labelBackgroundColor=none;fontFamily=Tahoma;" vertex="1" parent="1">
          <mxGeometry x="760" y="1556.5" width="78" height="78" as="geometry" />
        </mxCell>
        <mxCell id="kAWBLHEBBWcvH7VohKOh-454" value="AWS Glue&lt;div&gt;Data Catalog&lt;/div&gt;" style="sketch=0;outlineConnect=0;fontColor=#232F3E;gradientColor=none;fillColor=#8C4FFF;strokeColor=none;dashed=0;verticalLabelPosition=bottom;verticalAlign=top;align=center;html=1;fontSize=16;fontStyle=0;aspect=fixed;pointerEvents=1;shape=mxgraph.aws4.glue_data_catalog;fontFamily=Tahoma;" vertex="1" parent="1">
          <mxGeometry x="763" y="1726.5" width="72" height="78" as="geometry" />
        </mxCell>
        <mxCell id="kAWBLHEBBWcvH7VohKOh-457" value="1" style="rounded=1;whiteSpace=wrap;html=1;fillColor=#007CBD;strokeColor=none;fontColor=#FFFFFF;fontStyle=1;fontSize=22;labelBackgroundColor=none;fontFamily=Tahoma;" vertex="1" parent="1">
          <mxGeometry x="884.5" y="1868" width="40" height="38" as="geometry" />
        </mxCell>
        <mxCell id="kAWBLHEBBWcvH7VohKOh-556" style="edgeStyle=orthogonalEdgeStyle;rounded=0;orthogonalLoop=1;jettySize=auto;html=1;entryX=0.5;entryY=0;entryDx=0;entryDy=0;entryPerimeter=0;dashed=1;strokeColor=#545B64;strokeWidth=2;align=center;verticalAlign=middle;fontFamily=Tahoma;fontSize=11;fontColor=default;labelBackgroundColor=default;startArrow=none;endArrow=open;endFill=0;sourcePerimeterSpacing=50;exitX=0.646;exitY=1;exitDx=0;exitDy=0;exitPerimeter=0;" edge="1" parent="1" source="kAWBLHEBBWcvH7VohKOh-534" target="kAWBLHEBBWcvH7VohKOh-547">
          <mxGeometry relative="1" as="geometry">
            <Array as="points">
              <mxPoint x="2236" y="2100" />
              <mxPoint x="2237" y="2100" />
            </Array>
          </mxGeometry>
        </mxCell>
        <mxCell id="kAWBLHEBBWcvH7VohKOh-557" value="9" style="rounded=1;whiteSpace=wrap;html=1;fillColor=#007CBD;strokeColor=none;fontColor=#FFFFFF;fontStyle=1;fontSize=22;labelBackgroundColor=none;fontFamily=Tahoma;" vertex="1" parent="1">
          <mxGeometry x="1140" y="2161.5" width="40" height="38" as="geometry" />
        </mxCell>
        <mxCell id="kAWBLHEBBWcvH7VohKOh-558" value="9" style="rounded=1;whiteSpace=wrap;html=1;fillColor=#007CBD;strokeColor=none;fontColor=#FFFFFF;fontStyle=1;fontSize=22;labelBackgroundColor=none;fontFamily=Tahoma;" vertex="1" parent="1">
          <mxGeometry x="2290" y="2161.5" width="40" height="38" as="geometry" />
        </mxCell>
        <mxCell id="kAWBLHEBBWcvH7VohKOh-559" value="BOTO3" style="edgeStyle=orthogonalEdgeStyle;rounded=0;orthogonalLoop=1;jettySize=auto;html=1;dashed=1;strokeColor=#545B64;strokeWidth=2;align=center;verticalAlign=middle;fontFamily=Tahoma;fontSize=11;fontColor=default;labelBackgroundColor=default;startArrow=none;endArrow=open;endFill=0;sourcePerimeterSpacing=50;" edge="1" parent="1" target="kAWBLHEBBWcvH7VohKOh-522">
          <mxGeometry relative="1" as="geometry">
            <mxPoint x="2008.5" y="2169" as="sourcePoint" />
            <mxPoint x="1282" y="2202" as="targetPoint" />
            <Array as="points">
              <mxPoint x="2009" y="2202" />
            </Array>
          </mxGeometry>
        </mxCell>
        <mxCell id="kAWBLHEBBWcvH7VohKOh-561" value="" style="group;fontFamily=Tahoma;" vertex="1" connectable="0" parent="1">
          <mxGeometry x="2550" y="1280" width="539" height="1098" as="geometry" />
        </mxCell>
        <mxCell id="kAWBLHEBBWcvH7VohKOh-407" value="" style="rounded=0;whiteSpace=wrap;html=1;fillColor=#EAEDED;fontSize=22;fontColor=#FFFFFF;strokeColor=none;labelBackgroundColor=none;fontFamily=Tahoma;" vertex="1" parent="kAWBLHEBBWcvH7VohKOh-561">
          <mxGeometry width="539" height="1098" as="geometry" />
        </mxCell>
        <mxCell id="kAWBLHEBBWcvH7VohKOh-408" value="1" style="rounded=1;whiteSpace=wrap;html=1;fillColor=#007CBD;strokeColor=none;fontColor=#FFFFFF;fontStyle=1;fontSize=22;labelBackgroundColor=none;fontFamily=Tahoma;" vertex="1" parent="kAWBLHEBBWcvH7VohKOh-561">
          <mxGeometry x="17.5" y="12" width="40" height="38" as="geometry" />
        </mxCell>
        <mxCell id="kAWBLHEBBWcvH7VohKOh-409" value="2" style="rounded=1;whiteSpace=wrap;html=1;fillColor=#007CBD;strokeColor=none;fontColor=#FFFFFF;fontStyle=1;fontSize=22;labelBackgroundColor=none;fontFamily=Tahoma;" vertex="1" parent="kAWBLHEBBWcvH7VohKOh-561">
          <mxGeometry x="17.5" y="134" width="40" height="38" as="geometry" />
        </mxCell>
        <mxCell id="kAWBLHEBBWcvH7VohKOh-410" value="3" style="rounded=1;whiteSpace=wrap;html=1;fillColor=#007CBD;strokeColor=none;fontColor=#FFFFFF;fontStyle=1;fontSize=22;labelBackgroundColor=none;fontFamily=Tahoma;" vertex="1" parent="kAWBLHEBBWcvH7VohKOh-561">
          <mxGeometry x="17.5" y="254" width="40" height="38" as="geometry" />
        </mxCell>
        <mxCell id="kAWBLHEBBWcvH7VohKOh-411" value="4" style="rounded=1;whiteSpace=wrap;html=1;fillColor=#007CBD;strokeColor=none;fontColor=#FFFFFF;fontStyle=1;fontSize=22;labelBackgroundColor=none;fontFamily=Tahoma;" vertex="1" parent="kAWBLHEBBWcvH7VohKOh-561">
          <mxGeometry x="17.5" y="368" width="40" height="38" as="geometry" />
        </mxCell>
        <mxCell id="kAWBLHEBBWcvH7VohKOh-412" value="5" style="rounded=1;whiteSpace=wrap;html=1;fillColor=#007CBD;strokeColor=none;fontColor=#FFFFFF;fontStyle=1;fontSize=22;labelBackgroundColor=none;fontFamily=Tahoma;" vertex="1" parent="kAWBLHEBBWcvH7VohKOh-561">
          <mxGeometry x="17.5" y="485" width="40" height="38" as="geometry" />
        </mxCell>
        <mxCell id="kAWBLHEBBWcvH7VohKOh-413" value="6" style="rounded=1;whiteSpace=wrap;html=1;fillColor=#007CBD;strokeColor=none;fontColor=#FFFFFF;fontStyle=1;fontSize=22;labelBackgroundColor=none;fontFamily=Tahoma;" vertex="1" parent="kAWBLHEBBWcvH7VohKOh-561">
          <mxGeometry x="17.5" y="600" width="40" height="38" as="geometry" />
        </mxCell>
        <mxCell id="kAWBLHEBBWcvH7VohKOh-414" value="7" style="rounded=1;whiteSpace=wrap;html=1;fillColor=#007CBD;strokeColor=none;fontColor=#FFFFFF;fontStyle=1;fontSize=22;labelBackgroundColor=none;fontFamily=Tahoma;" vertex="1" parent="kAWBLHEBBWcvH7VohKOh-561">
          <mxGeometry x="17.5" y="716" width="40" height="38" as="geometry" />
        </mxCell>
        <mxCell id="kAWBLHEBBWcvH7VohKOh-415" value="8" style="rounded=1;whiteSpace=wrap;html=1;fillColor=#007CBD;strokeColor=none;fontColor=#FFFFFF;fontStyle=1;fontSize=22;labelBackgroundColor=none;fontFamily=Tahoma;" vertex="1" parent="kAWBLHEBBWcvH7VohKOh-561">
          <mxGeometry x="17.5" y="834" width="40" height="38" as="geometry" />
        </mxCell>
        <mxCell id="kAWBLHEBBWcvH7VohKOh-416" value="&lt;span&gt;GX6 -&amp;nbsp;&lt;/span&gt;Tabela Encarteiramento&amp;nbsp;" style="text;html=1;align=left;verticalAlign=top;spacingTop=-4;fontSize=14;labelBackgroundColor=none;whiteSpace=wrap;fontFamily=Tahoma;" vertex="1" parent="kAWBLHEBBWcvH7VohKOh-561">
          <mxGeometry x="69" y="11.5" width="449" height="118" as="geometry" />
        </mxCell>
        <mxCell id="kAWBLHEBBWcvH7VohKOh-417" value="&lt;span&gt;Role AWS Glue Encarteiramento Delta&lt;/span&gt;" style="text;html=1;align=left;verticalAlign=top;spacingTop=-4;fontSize=14;labelBackgroundColor=none;whiteSpace=wrap;fontFamily=Tahoma;" vertex="1" parent="kAWBLHEBBWcvH7VohKOh-561">
          <mxGeometry x="68.5" y="134.5" width="450" height="115" as="geometry" />
        </mxCell>
        <mxCell id="kAWBLHEBBWcvH7VohKOh-418" value="&lt;span&gt;Lorem ipsum dolor sit amet, consectetur adipiscing elit, sed do eiusmod tempor incididunt ut labore et dolore magna aliqua. Ut enim ad minim veniam, quis nostrud exercitation ullamco laboris nisi ut aliquip ex ea commodo consequat. Duis aute irure dolor in reprehenderit in voluptate velit esse cillum dolore eu fugiat nulla pariatur. Excepteur sint occaecat cupidatat non proident, sunt in culpa qui officia deserunt mollit anim id est laborum.&lt;/span&gt;&lt;br&gt;" style="text;html=1;align=left;verticalAlign=top;spacingTop=-4;fontSize=14;labelBackgroundColor=none;whiteSpace=wrap;fontFamily=Tahoma;" vertex="1" parent="kAWBLHEBBWcvH7VohKOh-561">
          <mxGeometry x="68.5" y="252.5" width="450" height="117" as="geometry" />
        </mxCell>
        <mxCell id="kAWBLHEBBWcvH7VohKOh-419" value="&lt;span&gt;Lorem ipsum dolor sit amet, consectetur adipiscing elit, sed do eiusmod tempor incididunt ut labore et dolore magna aliqua. Ut enim ad minim veniam, quis nostrud exercitation ullamco laboris nisi ut aliquip ex ea commodo consequat. Duis aute irure dolor in reprehenderit in voluptate velit esse cillum dolore eu fugiat nulla pariatur. Excepteur sint occaecat cupidatat non proident, sunt in culpa qui officia deserunt mollit anim id est laborum.&lt;/span&gt;&lt;br&gt;" style="text;html=1;align=left;verticalAlign=top;spacingTop=-4;fontSize=14;labelBackgroundColor=none;whiteSpace=wrap;fontFamily=Tahoma;" vertex="1" parent="kAWBLHEBBWcvH7VohKOh-561">
          <mxGeometry x="68.5" y="368.5" width="450" height="121" as="geometry" />
        </mxCell>
        <mxCell id="kAWBLHEBBWcvH7VohKOh-420" value="&lt;span&gt;Lorem ipsum dolor sit amet, consectetur adipiscing elit, sed do eiusmod tempor incididunt ut labore et dolore magna aliqua. Ut enim ad minim veniam, quis nostrud exercitation ullamco laboris nisi ut aliquip ex ea commodo consequat. Duis aute irure dolor in reprehenderit in voluptate velit esse cillum dolore eu fugiat nulla pariatur. Excepteur sint occaecat cupidatat non proident, sunt in culpa qui officia deserunt mollit anim id est laborum.&lt;/span&gt;&lt;br&gt;" style="text;html=1;align=left;verticalAlign=top;spacingTop=-4;fontSize=14;labelBackgroundColor=none;whiteSpace=wrap;fontFamily=Tahoma;" vertex="1" parent="kAWBLHEBBWcvH7VohKOh-561">
          <mxGeometry x="69" y="485.5" width="449" height="114" as="geometry" />
        </mxCell>
        <mxCell id="kAWBLHEBBWcvH7VohKOh-421" value="&lt;span&gt;Lorem ipsum dolor sit amet, consectetur adipiscing elit, sed do eiusmod tempor incididunt ut labore et dolore magna aliqua. Ut enim ad minim veniam, quis nostrud exercitation ullamco laboris nisi ut aliquip ex ea commodo consequat. Duis aute irure dolor in reprehenderit in voluptate velit esse cillum dolore eu fugiat nulla pariatur. Excepteur sint occaecat cupidatat non proident, sunt in culpa qui officia deserunt mollit anim id est laborum.&lt;/span&gt;&lt;br&gt;" style="text;html=1;align=left;verticalAlign=top;spacingTop=-4;fontSize=14;labelBackgroundColor=none;whiteSpace=wrap;fontFamily=Tahoma;" vertex="1" parent="kAWBLHEBBWcvH7VohKOh-561">
          <mxGeometry x="68.5" y="601.5" width="450" height="118" as="geometry" />
        </mxCell>
        <mxCell id="kAWBLHEBBWcvH7VohKOh-422" value="&lt;span&gt;Lorem ipsum dolor sit amet, consectetur adipiscing elit, sed do eiusmod tempor incididunt ut labore et dolore magna aliqua. Ut enim ad minim veniam, quis nostrud exercitation ullamco laboris nisi ut aliquip ex ea commodo consequat. Duis aute irure dolor in reprehenderit in voluptate velit esse cillum dolore eu fugiat nulla pariatur. Excepteur sint occaecat cupidatat non proident, sunt in culpa qui officia deserunt mollit anim id est laborum.&lt;/span&gt;&lt;br&gt;" style="text;html=1;align=left;verticalAlign=top;spacingTop=-4;fontSize=14;labelBackgroundColor=none;whiteSpace=wrap;fontFamily=Tahoma;" vertex="1" parent="kAWBLHEBBWcvH7VohKOh-561">
          <mxGeometry x="69" y="716.5" width="449" height="113" as="geometry" />
        </mxCell>
        <mxCell id="kAWBLHEBBWcvH7VohKOh-423" value="&lt;span&gt;Lorem ipsum dolor sit amet, consectetur adipiscing elit, sed do eiusmod tempor incididunt ut labore et dolore magna aliqua. Ut enim ad minim veniam, quis nostrud exercitation ullamco laboris nisi ut aliquip ex ea commodo consequat. Duis aute irure dolor in reprehenderit in voluptate velit esse cillum dolore eu fugiat nulla pariatur. Excepteur sint occaecat cupidatat non proident, sunt in culpa qui officia deserunt mollit anim id est laborum.&lt;/span&gt;&lt;br&gt;" style="text;html=1;align=left;verticalAlign=top;spacingTop=-4;fontSize=14;labelBackgroundColor=none;whiteSpace=wrap;fontFamily=Tahoma;" vertex="1" parent="kAWBLHEBBWcvH7VohKOh-561">
          <mxGeometry x="69" y="835.5" width="449" height="124" as="geometry" />
        </mxCell>
        <mxCell id="kAWBLHEBBWcvH7VohKOh-425" value="9" style="rounded=1;whiteSpace=wrap;html=1;fillColor=#007CBD;strokeColor=none;fontColor=#FFFFFF;fontStyle=1;fontSize=22;labelBackgroundColor=none;fontFamily=Tahoma;" vertex="1" parent="kAWBLHEBBWcvH7VohKOh-561">
          <mxGeometry x="17.5" y="969" width="40" height="38" as="geometry" />
        </mxCell>
        <mxCell id="kAWBLHEBBWcvH7VohKOh-426" value="&lt;span&gt;Lorem ipsum dolor sit amet, consectetur adipiscing elit, sed do eiusmod tempor incididunt ut labore et dolore magna aliqua. Ut enim ad minim veniam, quis nostrud exercitation ullamco laboris nisi ut aliquip ex ea commodo consequat. Duis aute irure dolor in reprehenderit in voluptate velit esse cillum dolore eu fugiat nulla pariatur. Excepteur sint occaecat cupidatat non proident, sunt in culpa qui officia deserunt mollit anim id est laborum.&lt;/span&gt;&lt;br&gt;" style="text;html=1;align=left;verticalAlign=top;spacingTop=-4;fontSize=14;labelBackgroundColor=none;whiteSpace=wrap;fontFamily=Tahoma;" vertex="1" parent="kAWBLHEBBWcvH7VohKOh-561">
          <mxGeometry x="69" y="970.5" width="449" height="124" as="geometry" />
        </mxCell>
        <mxCell id="kAWBLHEBBWcvH7VohKOh-562" value="HTTP GET/ :7003" style="edgeStyle=orthogonalEdgeStyle;rounded=0;orthogonalLoop=1;jettySize=auto;html=1;entryX=1;entryY=0.5;entryDx=0;entryDy=0;entryPerimeter=0;strokeColor=#545B64;strokeWidth=2;align=center;verticalAlign=middle;fontFamily=Tahoma;fontSize=11;fontColor=default;labelBackgroundColor=default;startArrow=open;endArrow=none;endFill=0;startFill=0;" edge="1" parent="1" source="kAWBLHEBBWcvH7VohKOh-532" target="kAWBLHEBBWcvH7VohKOh-507">
          <mxGeometry relative="1" as="geometry" />
        </mxCell>
        <mxCell id="kAWBLHEBBWcvH7VohKOh-565" value="VPC" style="points=[[0,0],[0.25,0],[0.5,0],[0.75,0],[1,0],[1,0.25],[1,0.5],[1,0.75],[1,1],[0.75,1],[0.5,1],[0.25,1],[0,1],[0,0.75],[0,0.5],[0,0.25]];outlineConnect=0;gradientColor=none;html=1;whiteSpace=wrap;fontSize=12;fontStyle=0;container=0;pointerEvents=0;collapsible=0;recursiveResize=0;shape=mxgraph.aws4.group;grIcon=mxgraph.aws4.group_vpc2;strokeColor=#E5CCFF;fillColor=none;verticalAlign=top;align=left;spacingLeft=30;fontColor=#AAB7B8;dashed=0;fontFamily=Tahoma;" vertex="1" parent="1">
          <mxGeometry x="1317" y="1960" width="353" height="210" as="geometry" />
        </mxCell>
        <mxCell id="kAWBLHEBBWcvH7VohKOh-581" value="Region" style="points=[[0,0],[0.25,0],[0.5,0],[0.75,0],[1,0],[1,0.25],[1,0.5],[1,0.75],[1,1],[0.75,1],[0.5,1],[0.25,1],[0,1],[0,0.75],[0,0.5],[0,0.25]];outlineConnect=0;gradientColor=none;html=1;whiteSpace=wrap;fontSize=12;fontStyle=0;container=1;pointerEvents=0;collapsible=0;recursiveResize=0;shape=mxgraph.aws4.group;grIcon=mxgraph.aws4.group_region;strokeColor=#00A4A6;fillColor=none;verticalAlign=top;align=left;spacingLeft=30;fontColor=#147EBA;dashed=1;" vertex="1" parent="1">
          <mxGeometry x="1063" y="1315" width="1408" height="965" as="geometry" />
        </mxCell>
        <mxCell id="kAWBLHEBBWcvH7VohKOh-560" value="CloudWatch" style="outlineConnect=0;dashed=0;verticalLabelPosition=bottom;verticalAlign=top;align=center;html=1;shape=mxgraph.aws3.cloudwatch;fillColor=#759C3E;gradientColor=none;fontFamily=Tahoma;fontSize=18;" vertex="1" parent="kAWBLHEBBWcvH7VohKOh-581">
          <mxGeometry x="124.5" y="45" width="68.5" height="79" as="geometry" />
        </mxCell>
        <mxCell id="lgn-asn2bs2GslqByUnK-76" value="" style="sketch=0;outlineConnect=0;fontColor=#232F3E;gradientColor=none;fillColor=#DD344C;strokeColor=none;dashed=0;verticalLabelPosition=bottom;verticalAlign=top;align=center;html=1;fontSize=12;fontStyle=0;aspect=fixed;pointerEvents=1;shape=mxgraph.aws4.role;container=0;fontFamily=Tahoma;" vertex="1" parent="kAWBLHEBBWcvH7VohKOh-581">
          <mxGeometry x="583" y="583.9999999999998" width="44" height="24.82" as="geometry" />
        </mxCell>
        <mxCell id="lgn-asn2bs2GslqByUnK-77" value="" style="sketch=0;outlineConnect=0;fontColor=#232F3E;gradientColor=none;fillColor=#DD344C;strokeColor=none;dashed=0;verticalLabelPosition=bottom;verticalAlign=top;align=center;html=1;fontSize=12;fontStyle=0;aspect=fixed;pointerEvents=1;shape=mxgraph.aws4.role;container=0;fontFamily=Tahoma;" vertex="1" parent="kAWBLHEBBWcvH7VohKOh-581">
          <mxGeometry x="857" y="774" width="44" height="24.82" as="geometry" />
        </mxCell>
        <mxCell id="lgn-asn2bs2GslqByUnK-4" value="Amazon ECS&lt;div&gt;API&lt;/div&gt;" style="sketch=0;outlineConnect=0;fontColor=#232F3E;gradientColor=none;strokeColor=#ffffff;fillColor=#232F3E;dashed=0;verticalLabelPosition=middle;verticalAlign=bottom;align=center;html=1;whiteSpace=wrap;fontSize=10;fontStyle=1;spacing=3;shape=mxgraph.aws4.productIcon;prIcon=mxgraph.aws4.ecs;" vertex="1" parent="1">
          <mxGeometry x="4235" y="1262" width="80" height="110" as="geometry" />
        </mxCell>
        <mxCell id="lgn-asn2bs2GslqByUnK-6" value="Amazon S3&lt;div&gt;Cache&lt;/div&gt;" style="sketch=0;outlineConnect=0;fontColor=#232F3E;gradientColor=none;strokeColor=#ffffff;fillColor=#232F3E;dashed=0;verticalLabelPosition=middle;verticalAlign=bottom;align=center;html=1;whiteSpace=wrap;fontSize=10;fontStyle=1;spacing=3;shape=mxgraph.aws4.productIcon;prIcon=mxgraph.aws4.s3;" vertex="1" parent="1">
          <mxGeometry x="3677" y="1262" width="80" height="110" as="geometry" />
        </mxCell>
        <mxCell id="lgn-asn2bs2GslqByUnK-8" value="Dataverse" style="image;aspect=fixed;html=1;points=[];align=center;fontSize=12;image=img/lib/azure2/power_platform/Dataverse.svg;" vertex="1" parent="1">
          <mxGeometry x="4394" y="1262.75" width="80" height="61.65" as="geometry" />
        </mxCell>
        <mxCell id="lgn-asn2bs2GslqByUnK-10" value="Todos Dias&lt;div&gt;01h&lt;/div&gt;" style="shape=image;html=1;verticalAlign=top;verticalLabelPosition=bottom;labelBackgroundColor=#ffffff;imageAspect=0;aspect=fixed;image=https://cdn4.iconfinder.com/data/icons/evil-icons-user-interface/64/clock-128.png" vertex="1" parent="1">
          <mxGeometry x="3257" y="1393" width="65" height="65" as="geometry" />
        </mxCell>
        <mxCell id="lgn-asn2bs2GslqByUnK-12" value="get /api" style="html=1;verticalAlign=bottom;endArrow=block;curved=0;rounded=0;entryX=0;entryY=0;entryDx=0;entryDy=5;" edge="1" target="lgn-asn2bs2GslqByUnK-11" parent="1" source="lgn-asn2bs2GslqByUnK-16">
          <mxGeometry relative="1" as="geometry">
            <mxPoint x="3559" y="1470" as="sourcePoint" />
          </mxGeometry>
        </mxCell>
        <mxCell id="lgn-asn2bs2GslqByUnK-13" value="return" style="html=1;verticalAlign=bottom;endArrow=open;dashed=1;endSize=8;curved=0;rounded=0;exitX=0;exitY=1;exitDx=0;exitDy=-5;" edge="1" source="lgn-asn2bs2GslqByUnK-11" parent="1" target="lgn-asn2bs2GslqByUnK-17">
          <mxGeometry relative="1" as="geometry">
            <mxPoint x="3559" y="1540" as="targetPoint" />
          </mxGeometry>
        </mxCell>
        <mxCell id="lgn-asn2bs2GslqByUnK-16" value=":Object" style="shape=umlLifeline;perimeter=lifelinePerimeter;whiteSpace=wrap;html=1;container=1;dropTarget=0;collapsible=0;recursiveResize=0;outlineConnect=0;portConstraint=eastwest;newEdgeStyle={&quot;curved&quot;:0,&quot;rounded&quot;:0};size=21;" vertex="1" parent="1">
          <mxGeometry x="3386.5" y="1350" width="61" height="1302" as="geometry" />
        </mxCell>
        <mxCell id="lgn-asn2bs2GslqByUnK-17" value="" style="html=1;points=[[0,0,0,0,5],[0,1,0,0,-5],[1,0,0,0,5],[1,1,0,0,-5]];perimeter=orthogonalPerimeter;outlineConnect=0;targetShapes=umlLifeline;portConstraint=eastwest;newEdgeStyle={&quot;curved&quot;:0,&quot;rounded&quot;:0};" vertex="1" parent="lgn-asn2bs2GslqByUnK-16">
          <mxGeometry x="25.5" y="71" width="10" height="245" as="geometry" />
        </mxCell>
        <mxCell id="lgn-asn2bs2GslqByUnK-3" value="AWS Glue&lt;div&gt;Cache&lt;/div&gt;" style="sketch=0;outlineConnect=0;fontColor=#232F3E;gradientColor=none;strokeColor=#ffffff;fillColor=#232F3E;dashed=0;verticalLabelPosition=middle;verticalAlign=bottom;align=center;html=1;whiteSpace=wrap;fontSize=10;fontStyle=1;spacing=3;shape=mxgraph.aws4.productIcon;prIcon=mxgraph.aws4.glue;" vertex="1" parent="1">
          <mxGeometry x="3377" y="1262" width="80" height="110" as="geometry" />
        </mxCell>
        <mxCell id="lgn-asn2bs2GslqByUnK-18" style="edgeStyle=orthogonalEdgeStyle;rounded=0;orthogonalLoop=1;jettySize=auto;html=1;entryX=0;entryY=0;entryDx=0;entryDy=5;entryPerimeter=0;" edge="1" parent="1" source="lgn-asn2bs2GslqByUnK-10" target="lgn-asn2bs2GslqByUnK-17">
          <mxGeometry relative="1" as="geometry" />
        </mxCell>
        <mxCell id="lgn-asn2bs2GslqByUnK-21" value="get dataverse" style="html=1;verticalAlign=bottom;endArrow=block;curved=0;rounded=0;entryX=0;entryY=0;entryDx=0;entryDy=5;" edge="1" target="lgn-asn2bs2GslqByUnK-20" parent="1" source="lgn-asn2bs2GslqByUnK-25">
          <mxGeometry relative="1" as="geometry">
            <mxPoint x="4404" y="1459" as="sourcePoint" />
          </mxGeometry>
        </mxCell>
        <mxCell id="lgn-asn2bs2GslqByUnK-22" value="return" style="html=1;verticalAlign=bottom;endArrow=open;dashed=1;endSize=8;curved=0;rounded=0;exitX=0;exitY=1;exitDx=0;exitDy=-5;" edge="1" source="lgn-asn2bs2GslqByUnK-20" parent="1" target="lgn-asn2bs2GslqByUnK-11">
          <mxGeometry relative="1" as="geometry">
            <mxPoint x="4404" y="1529" as="targetPoint" />
          </mxGeometry>
        </mxCell>
        <mxCell id="lgn-asn2bs2GslqByUnK-11" value="" style="html=1;points=[[0,0,0,0,5],[0,1,0,0,-5],[1,0,0,0,5],[1,1,0,0,-5]];perimeter=orthogonalPerimeter;outlineConnect=0;targetShapes=umlLifeline;portConstraint=eastwest;newEdgeStyle={&quot;curved&quot;:0,&quot;rounded&quot;:0};" vertex="1" parent="1">
          <mxGeometry x="4270" y="1431" width="10" height="104" as="geometry" />
        </mxCell>
        <mxCell id="lgn-asn2bs2GslqByUnK-28" value="write parquet s3" style="html=1;verticalAlign=bottom;endArrow=block;curved=0;rounded=0;entryX=0;entryY=0;entryDx=0;entryDy=5;entryPerimeter=0;" edge="1" parent="1" source="lgn-asn2bs2GslqByUnK-17" target="lgn-asn2bs2GslqByUnK-27">
          <mxGeometry relative="1" as="geometry">
            <mxPoint x="3426" y="1586" as="sourcePoint" />
            <mxPoint x="4002" y="1586" as="targetPoint" />
          </mxGeometry>
        </mxCell>
        <mxCell id="lgn-asn2bs2GslqByUnK-29" value="return" style="html=1;verticalAlign=bottom;endArrow=open;dashed=1;endSize=8;curved=0;rounded=0;exitX=0;exitY=1;exitDx=0;exitDy=-5;exitPerimeter=0;" edge="1" parent="1" source="lgn-asn2bs2GslqByUnK-27" target="lgn-asn2bs2GslqByUnK-17">
          <mxGeometry relative="1" as="geometry">
            <mxPoint x="3422" y="1635" as="targetPoint" />
            <mxPoint x="3697" y="1637" as="sourcePoint" />
          </mxGeometry>
        </mxCell>
        <mxCell id="lgn-asn2bs2GslqByUnK-33" value="Todos Dias&lt;div&gt;12h&lt;/div&gt;" style="shape=image;html=1;verticalAlign=top;verticalLabelPosition=bottom;labelBackgroundColor=#ffffff;imageAspect=0;aspect=fixed;image=https://cdn4.iconfinder.com/data/icons/evil-icons-user-interface/64/clock-128.png" vertex="1" parent="1">
          <mxGeometry x="3471" y="1694" width="47" height="47" as="geometry" />
        </mxCell>
        <mxCell id="lgn-asn2bs2GslqByUnK-35" style="rounded=0;orthogonalLoop=1;jettySize=auto;html=1;entryX=0;entryY=0;entryDx=0;entryDy=5;entryPerimeter=0;exitX=1;exitY=0.5;exitDx=0;exitDy=0;" edge="1" parent="1" source="lgn-asn2bs2GslqByUnK-33" target="lgn-asn2bs2GslqByUnK-31">
          <mxGeometry relative="1" as="geometry">
            <mxPoint x="3523" y="1711" as="sourcePoint" />
            <mxPoint x="3604" y="1563" as="targetPoint" />
          </mxGeometry>
        </mxCell>
        <mxCell id="lgn-asn2bs2GslqByUnK-37" value=":Object" style="shape=umlLifeline;perimeter=lifelinePerimeter;whiteSpace=wrap;html=1;container=1;dropTarget=0;collapsible=0;recursiveResize=0;outlineConnect=0;portConstraint=eastwest;newEdgeStyle={&quot;curved&quot;:0,&quot;rounded&quot;:0};size=21;" vertex="1" parent="1">
          <mxGeometry x="3829" y="1342.4" width="61" height="1313.6" as="geometry" />
        </mxCell>
        <mxCell id="lgn-asn2bs2GslqByUnK-39" value="" style="html=1;points=[[0,0,0,0,5],[0,1,0,0,-5],[1,0,0,0,5],[1,1,0,0,-5]];perimeter=orthogonalPerimeter;outlineConnect=0;targetShapes=umlLifeline;portConstraint=eastwest;newEdgeStyle={&quot;curved&quot;:0,&quot;rounded&quot;:0};" vertex="1" parent="lgn-asn2bs2GslqByUnK-37">
          <mxGeometry x="25.5" y="377.5999999999999" width="10" height="69" as="geometry" />
        </mxCell>
        <mxCell id="lgn-asn2bs2GslqByUnK-38" value="" style="rounded=0;whiteSpace=wrap;html=1;fillColor=default;strokeColor=none;" vertex="1" parent="1">
          <mxGeometry x="3827" y="1330" width="65" height="38" as="geometry" />
        </mxCell>
        <mxCell id="lgn-asn2bs2GslqByUnK-36" value="Data Lake" style="sketch=0;outlineConnect=0;fontColor=#232F3E;gradientColor=none;fillColor=#8C4FFF;strokeColor=none;dashed=0;verticalLabelPosition=bottom;verticalAlign=top;align=center;html=1;fontSize=12;fontStyle=0;aspect=fixed;pointerEvents=1;shape=mxgraph.aws4.data_lake_resource_icon;" vertex="1" parent="1">
          <mxGeometry x="3821" y="1258" width="87" height="87" as="geometry" />
        </mxCell>
        <mxCell id="lgn-asn2bs2GslqByUnK-40" value="read lake" style="html=1;verticalAlign=bottom;endArrow=block;curved=0;rounded=0;entryX=0;entryY=0;entryDx=0;entryDy=5;entryPerimeter=0;" edge="1" parent="1" source="lgn-asn2bs2GslqByUnK-31">
          <mxGeometry relative="1" as="geometry">
            <mxPoint x="3586" y="1728" as="sourcePoint" />
            <mxPoint x="3853" y="1731" as="targetPoint" />
          </mxGeometry>
        </mxCell>
        <mxCell id="lgn-asn2bs2GslqByUnK-41" value="return" style="html=1;verticalAlign=bottom;endArrow=open;dashed=1;endSize=8;curved=0;rounded=0;exitX=0;exitY=1;exitDx=0;exitDy=-5;exitPerimeter=0;" edge="1" parent="1" source="lgn-asn2bs2GslqByUnK-39">
          <mxGeometry relative="1" as="geometry">
            <mxPoint x="3575" y="1784" as="targetPoint" />
            <mxPoint x="3853" y="1778" as="sourcePoint" />
          </mxGeometry>
        </mxCell>
        <mxCell id="lgn-asn2bs2GslqByUnK-42" value="Amazon RDS" style="sketch=0;outlineConnect=0;fontColor=#232F3E;gradientColor=none;strokeColor=#ffffff;fillColor=#232F3E;dashed=0;verticalLabelPosition=middle;verticalAlign=bottom;align=center;html=1;whiteSpace=wrap;fontSize=10;fontStyle=1;spacing=3;shape=mxgraph.aws4.productIcon;prIcon=mxgraph.aws4.rds;" vertex="1" parent="1">
          <mxGeometry x="4107" y="1262" width="80" height="100" as="geometry" />
        </mxCell>
        <mxCell id="lgn-asn2bs2GslqByUnK-45" value="read cache s3" style="html=1;verticalAlign=bottom;endArrow=block;curved=0;rounded=0;entryX=0;entryY=0;entryDx=0;entryDy=5;entryPerimeter=0;" edge="1" parent="1" target="lgn-asn2bs2GslqByUnK-44" source="lgn-asn2bs2GslqByUnK-31">
          <mxGeometry relative="1" as="geometry">
            <mxPoint x="3432" y="1584" as="sourcePoint" />
            <mxPoint x="4012" y="1596" as="targetPoint" />
          </mxGeometry>
        </mxCell>
        <mxCell id="lgn-asn2bs2GslqByUnK-46" value="return" style="html=1;verticalAlign=bottom;endArrow=open;dashed=1;endSize=8;curved=0;rounded=0;exitX=0;exitY=1;exitDx=0;exitDy=-5;exitPerimeter=0;" edge="1" parent="1" source="lgn-asn2bs2GslqByUnK-44" target="lgn-asn2bs2GslqByUnK-31">
          <mxGeometry relative="1" as="geometry">
            <mxPoint x="3432" y="1643" as="targetPoint" />
            <mxPoint x="3707" y="1647" as="sourcePoint" />
          </mxGeometry>
        </mxCell>
        <mxCell id="lgn-asn2bs2GslqByUnK-49" value="insert rds" style="html=1;verticalAlign=bottom;endArrow=block;curved=0;rounded=0;entryX=0;entryY=0;entryDx=0;entryDy=5;entryPerimeter=0;" edge="1" parent="1" source="lgn-asn2bs2GslqByUnK-31" target="lgn-asn2bs2GslqByUnK-48">
          <mxGeometry relative="1" as="geometry">
            <mxPoint x="3720.5" y="1925" as="sourcePoint" />
            <mxPoint x="3998.5" y="1925" as="targetPoint" />
          </mxGeometry>
        </mxCell>
        <mxCell id="lgn-asn2bs2GslqByUnK-50" value="return" style="html=1;verticalAlign=bottom;endArrow=open;dashed=1;endSize=8;curved=0;rounded=0;exitX=-0.033;exitY=0.865;exitDx=0;exitDy=0;exitPerimeter=0;" edge="1" parent="1" source="lgn-asn2bs2GslqByUnK-48">
          <mxGeometry relative="1" as="geometry">
            <mxPoint x="3574" y="1978.0000000000005" as="targetPoint" />
            <mxPoint x="3999" y="1978.0000000000005" as="sourcePoint" />
          </mxGeometry>
        </mxCell>
        <mxCell id="lgn-asn2bs2GslqByUnK-52" value="delete rds d-1 (n)" style="html=1;verticalAlign=bottom;endArrow=block;curved=0;rounded=0;entryX=0;entryY=0;entryDx=0;entryDy=5;entryPerimeter=0;" edge="1" parent="1" target="lgn-asn2bs2GslqByUnK-51" source="lgn-asn2bs2GslqByUnK-31">
          <mxGeometry x="-0.0003" relative="1" as="geometry">
            <mxPoint x="3717" y="2019" as="sourcePoint" />
            <mxPoint x="4140.5" y="2022" as="targetPoint" />
            <mxPoint as="offset" />
          </mxGeometry>
        </mxCell>
        <mxCell id="lgn-asn2bs2GslqByUnK-58" value=":Object" style="shape=umlLifeline;perimeter=lifelinePerimeter;whiteSpace=wrap;html=1;container=1;dropTarget=0;collapsible=0;recursiveResize=0;outlineConnect=0;portConstraint=eastwest;newEdgeStyle={&quot;curved&quot;:0,&quot;rounded&quot;:0};size=21;" vertex="1" parent="1">
          <mxGeometry x="3983.5" y="1350" width="61" height="1307" as="geometry" />
        </mxCell>
        <mxCell id="lgn-asn2bs2GslqByUnK-59" value="" style="html=1;points=[[0,0,0,0,5],[0,1,0,0,-5],[1,0,0,0,5],[1,1,0,0,-5]];perimeter=orthogonalPerimeter;outlineConnect=0;targetShapes=umlLifeline;portConstraint=eastwest;newEdgeStyle={&quot;curved&quot;:0,&quot;rounded&quot;:0};" vertex="1" parent="lgn-asn2bs2GslqByUnK-58">
          <mxGeometry x="25.5" y="816" width="10" height="384" as="geometry" />
        </mxCell>
        <mxCell id="lgn-asn2bs2GslqByUnK-60" value="AWS Glue&lt;div&gt;Atualizar Dyn&lt;/div&gt;" style="sketch=0;outlineConnect=0;fontColor=#232F3E;gradientColor=none;strokeColor=#ffffff;fillColor=#232F3E;dashed=0;verticalLabelPosition=middle;verticalAlign=bottom;align=center;html=1;whiteSpace=wrap;fontSize=10;fontStyle=1;spacing=3;shape=mxgraph.aws4.productIcon;prIcon=mxgraph.aws4.glue;" vertex="1" parent="1">
          <mxGeometry x="3974" y="1262" width="80" height="110" as="geometry" />
        </mxCell>
        <mxCell id="lgn-asn2bs2GslqByUnK-61" value="Todos Dias&lt;div&gt;19h&lt;/div&gt;" style="shape=image;html=1;verticalAlign=top;verticalLabelPosition=bottom;labelBackgroundColor=#ffffff;imageAspect=0;aspect=fixed;image=https://cdn4.iconfinder.com/data/icons/evil-icons-user-interface/64/clock-128.png" vertex="1" parent="1">
          <mxGeometry x="3917" y="2148" width="47" height="47" as="geometry" />
        </mxCell>
        <mxCell id="lgn-asn2bs2GslqByUnK-62" style="rounded=0;orthogonalLoop=1;jettySize=auto;html=1;entryX=0;entryY=0;entryDx=0;entryDy=5;entryPerimeter=0;exitX=1;exitY=0.5;exitDx=0;exitDy=0;" edge="1" parent="1" source="lgn-asn2bs2GslqByUnK-61" target="lgn-asn2bs2GslqByUnK-59">
          <mxGeometry relative="1" as="geometry">
            <mxPoint x="3944" y="2170" as="sourcePoint" />
            <mxPoint x="3986" y="2177" as="targetPoint" />
          </mxGeometry>
        </mxCell>
        <mxCell id="lgn-asn2bs2GslqByUnK-64" value="select rds" style="html=1;verticalAlign=bottom;endArrow=block;curved=0;rounded=0;entryX=0;entryY=0;entryDx=0;entryDy=5;entryPerimeter=0;" edge="1" parent="1" target="lgn-asn2bs2GslqByUnK-63" source="lgn-asn2bs2GslqByUnK-59">
          <mxGeometry relative="1" as="geometry">
            <mxPoint x="4005" y="2183" as="sourcePoint" />
            <mxPoint x="4442" y="1957" as="targetPoint" />
          </mxGeometry>
        </mxCell>
        <mxCell id="lgn-asn2bs2GslqByUnK-65" value="return" style="html=1;verticalAlign=bottom;endArrow=open;dashed=1;endSize=8;curved=0;rounded=0;exitX=0;exitY=1;exitDx=0;exitDy=-5;exitPerimeter=0;" edge="1" parent="1" source="lgn-asn2bs2GslqByUnK-63" target="lgn-asn2bs2GslqByUnK-59">
          <mxGeometry relative="1" as="geometry">
            <mxPoint x="4005" y="2242" as="targetPoint" />
            <mxPoint x="4137" y="2008" as="sourcePoint" />
          </mxGeometry>
        </mxCell>
        <mxCell id="lgn-asn2bs2GslqByUnK-67" value="post api ecs" style="html=1;verticalAlign=bottom;endArrow=block;curved=0;rounded=0;entryX=0;entryY=0;entryDx=0;entryDy=5;entryPerimeter=0;" edge="1" parent="1" target="lgn-asn2bs2GslqByUnK-66" source="lgn-asn2bs2GslqByUnK-59">
          <mxGeometry relative="1" as="geometry">
            <mxPoint x="4148.12" y="2294" as="sourcePoint" />
            <mxPoint x="4571.12" y="2074" as="targetPoint" />
          </mxGeometry>
        </mxCell>
        <mxCell id="lgn-asn2bs2GslqByUnK-68" value="return" style="html=1;verticalAlign=bottom;endArrow=open;dashed=1;endSize=8;curved=0;rounded=0;exitX=0;exitY=1;exitDx=0;exitDy=-5;exitPerimeter=0;" edge="1" parent="1" source="lgn-asn2bs2GslqByUnK-66" target="lgn-asn2bs2GslqByUnK-59">
          <mxGeometry relative="1" as="geometry">
            <mxPoint x="4148.12" y="2353" as="targetPoint" />
            <mxPoint x="4266.12" y="2125" as="sourcePoint" />
          </mxGeometry>
        </mxCell>
        <mxCell id="lgn-asn2bs2GslqByUnK-70" value="update dataverse" style="html=1;verticalAlign=bottom;endArrow=block;curved=0;rounded=0;entryX=0;entryY=0;entryDx=0;entryDy=5;" edge="1" parent="1" target="lgn-asn2bs2GslqByUnK-69" source="lgn-asn2bs2GslqByUnK-66">
          <mxGeometry relative="1" as="geometry">
            <mxPoint x="4274" y="2309" as="sourcePoint" />
          </mxGeometry>
        </mxCell>
        <mxCell id="lgn-asn2bs2GslqByUnK-71" value="return" style="html=1;verticalAlign=bottom;endArrow=open;dashed=1;endSize=8;curved=0;rounded=0;exitX=0;exitY=1;exitDx=0;exitDy=-5;" edge="1" parent="1" source="lgn-asn2bs2GslqByUnK-69" target="lgn-asn2bs2GslqByUnK-66">
          <mxGeometry relative="1" as="geometry">
            <mxPoint x="4280" y="2379" as="targetPoint" />
          </mxGeometry>
        </mxCell>
        <mxCell id="lgn-asn2bs2GslqByUnK-72" value="" style="endArrow=none;html=1;rounded=0;" edge="1" parent="1">
          <mxGeometry width="50" height="50" relative="1" as="geometry">
            <mxPoint x="3416" y="2651" as="sourcePoint" />
            <mxPoint x="4429.5" y="2664" as="targetPoint" />
          </mxGeometry>
        </mxCell>
        <mxCell id="lgn-asn2bs2GslqByUnK-74" value="consultar atualizar id dynamics" style="html=1;verticalAlign=bottom;endArrow=block;curved=0;rounded=0;" edge="1" parent="1">
          <mxGeometry relative="1" as="geometry">
            <mxPoint x="4009" y="2298" as="sourcePoint" />
            <mxPoint x="3722" y="2298" as="targetPoint" />
          </mxGeometry>
        </mxCell>
        <mxCell id="lgn-asn2bs2GslqByUnK-75" value="return" style="html=1;verticalAlign=bottom;endArrow=open;dashed=1;endSize=8;curved=0;rounded=0;" edge="1" parent="1" source="lgn-asn2bs2GslqByUnK-73">
          <mxGeometry relative="1" as="geometry">
            <mxPoint x="4009" y="2353" as="targetPoint" />
            <mxPoint x="3722" y="2353" as="sourcePoint" />
          </mxGeometry>
        </mxCell>
      </root>
    </mxGraphModel>
  </diagram>
  <diagram id="HUaYmUU1Vt1cCYWW1Z4a" name="AWS Glue Delta">
    <mxGraphModel dx="2554" dy="2094" grid="0" gridSize="10" guides="1" tooltips="1" connect="1" arrows="1" fold="1" page="0" pageScale="1" pageWidth="827" pageHeight="1169" math="0" shadow="0">
      <root>
        <mxCell id="0" />
        <mxCell id="1" parent="0" />
        <mxCell id="CDHpQQd7UO4hf2axw3v3-4" value="PARAMETERS" style="swimlane;fontStyle=1;align=center;verticalAlign=top;childLayout=stackLayout;horizontal=1;startSize=26;horizontalStack=0;resizeParent=1;resizeParentMax=0;resizeLast=0;collapsible=1;marginBottom=0;whiteSpace=wrap;html=1;fontFamily=Tahoma;fontSize=13;" vertex="1" parent="1">
          <mxGeometry x="2596" y="605" width="602" height="86" as="geometry" />
        </mxCell>
        <mxCell id="CDHpQQd7UO4hf2axw3v3-5" value="--&lt;b&gt;SINGLE_BASES&lt;/b&gt; = CNPJ9,CNPJ14,CARTEIRA,CONTA" style="text;strokeColor=none;fillColor=none;align=left;verticalAlign=top;spacingLeft=4;spacingRight=4;overflow=hidden;rotatable=0;points=[[0,0.5],[1,0.5]];portConstraint=eastwest;whiteSpace=wrap;html=1;" vertex="1" parent="CDHpQQd7UO4hf2axw3v3-4">
          <mxGeometry y="26" width="602" height="26" as="geometry" />
        </mxCell>
        <mxCell id="CDHpQQd7UO4hf2axw3v3-6" value="" style="line;strokeWidth=1;fillColor=none;align=left;verticalAlign=middle;spacingTop=-1;spacingLeft=3;spacingRight=3;rotatable=0;labelPosition=right;points=[];portConstraint=eastwest;strokeColor=inherit;" vertex="1" parent="CDHpQQd7UO4hf2axw3v3-4">
          <mxGeometry y="52" width="602" height="8" as="geometry" />
        </mxCell>
        <mxCell id="CDHpQQd7UO4hf2axw3v3-7" value="--&lt;b&gt;LINKED_BASES&lt;/b&gt; = CLIENTE_CARTEIRA,CARTEIRA_CONTA,CNPJ9_CARTEIRA,CONTA_CLIENTE" style="text;strokeColor=none;fillColor=none;align=left;verticalAlign=top;spacingLeft=4;spacingRight=4;overflow=hidden;rotatable=0;points=[[0,0.5],[1,0.5]];portConstraint=eastwest;whiteSpace=wrap;html=1;" vertex="1" parent="CDHpQQd7UO4hf2axw3v3-4">
          <mxGeometry y="60" width="602" height="26" as="geometry" />
        </mxCell>
        <mxCell id="g5iHBWscEhBEzwBSpOcC-303" value="Transform" style="fillColor=#f5f5f5;strokeColor=#666666;dashed=1;verticalAlign=top;fontStyle=0;fontColor=#333333;whiteSpace=wrap;html=1;fontFamily=Verdana;fontSize=18;" vertex="1" parent="1">
          <mxGeometry x="2467" y="743" width="826" height="3657" as="geometry" />
        </mxCell>
        <mxCell id="g5iHBWscEhBEzwBSpOcC-304" value="CNPJ9" style="rounded=1;whiteSpace=wrap;html=1;arcSize=5;verticalAlign=top;" vertex="1" parent="1">
          <mxGeometry x="2715" y="796" width="465" height="300" as="geometry" />
        </mxCell>
        <mxCell id="g5iHBWscEhBEzwBSpOcC-305" value="Data Frame&lt;div&gt;EncartPJ_Cnpj9&lt;/div&gt;" style="sketch=0;outlineConnect=0;fontColor=#232F3E;gradientColor=none;strokeColor=#232F3E;fillColor=#ffffff;dashed=0;verticalLabelPosition=bottom;verticalAlign=top;align=center;html=1;fontSize=12;fontStyle=0;aspect=fixed;shape=mxgraph.aws4.resourceIcon;resIcon=mxgraph.aws4.table;fontFamily=Verdana;" vertex="1" parent="1">
          <mxGeometry x="2904" y="832.5" width="54.5" height="54.5" as="geometry" />
        </mxCell>
        <mxCell id="g5iHBWscEhBEzwBSpOcC-306" style="edgeStyle=orthogonalEdgeStyle;rounded=0;orthogonalLoop=1;jettySize=auto;html=1;strokeColor=#666666;endArrow=open;endFill=0;strokeWidth=2;" edge="1" parent="1" source="g5iHBWscEhBEzwBSpOcC-284" target="g5iHBWscEhBEzwBSpOcC-305">
          <mxGeometry relative="1" as="geometry" />
        </mxCell>
        <mxCell id="g5iHBWscEhBEzwBSpOcC-284" value="Drop Duplicates" style="sketch=0;outlineConnect=0;fontColor=#232F3E;gradientColor=none;fillColor=#666666;strokeColor=none;dashed=0;verticalLabelPosition=bottom;verticalAlign=top;align=center;html=1;fontSize=12;fontStyle=0;aspect=fixed;pointerEvents=1;shape=mxgraph.aws4.filtering_rule;" vertex="1" parent="1">
          <mxGeometry x="2773" y="832.5" width="53" height="53" as="geometry" />
        </mxCell>
        <mxCell id="g5iHBWscEhBEzwBSpOcC-308" value="Data Frame&lt;div&gt;Cache_Cnpj9&lt;/div&gt;" style="sketch=0;outlineConnect=0;fontColor=#232F3E;gradientColor=none;strokeColor=#232F3E;fillColor=#ffffff;dashed=0;verticalLabelPosition=bottom;verticalAlign=top;align=center;html=1;fontSize=12;fontStyle=0;aspect=fixed;shape=mxgraph.aws4.resourceIcon;resIcon=mxgraph.aws4.table;fontFamily=Verdana;" vertex="1" parent="1">
          <mxGeometry x="2587.75" y="972" width="54.5" height="54.5" as="geometry" />
        </mxCell>
        <mxCell id="g5iHBWscEhBEzwBSpOcC-313" style="edgeStyle=orthogonalEdgeStyle;rounded=0;orthogonalLoop=1;jettySize=auto;html=1;strokeColor=#666666;strokeWidth=2;align=center;verticalAlign=middle;fontFamily=Helvetica;fontSize=11;fontColor=default;labelBackgroundColor=default;endArrow=open;endFill=0;" edge="1" parent="1" source="g5iHBWscEhBEzwBSpOcC-281" target="g5iHBWscEhBEzwBSpOcC-311">
          <mxGeometry relative="1" as="geometry">
            <Array as="points">
              <mxPoint x="3030" y="1005" />
              <mxPoint x="3030" y="931" />
            </Array>
          </mxGeometry>
        </mxCell>
        <mxCell id="g5iHBWscEhBEzwBSpOcC-281" value="Join" style="verticalLabelPosition=bottom;shadow=0;dashed=0;align=right;html=1;verticalAlign=top;strokeWidth=3;shape=mxgraph.electrical.signal_sources.current_source;rotation=-90;horizontal=1;labelPosition=left;textDirection=vertical-lr;fontFamily=Verdana;strokeColor=#666666;" vertex="1" parent="1">
          <mxGeometry x="2909.25" y="972" width="44" height="66" as="geometry" />
        </mxCell>
        <mxCell id="g5iHBWscEhBEzwBSpOcC-309" style="edgeStyle=orthogonalEdgeStyle;rounded=0;orthogonalLoop=1;jettySize=auto;html=1;entryX=0.639;entryY=0.05;entryDx=0;entryDy=0;entryPerimeter=0;strokeColor=#666666;strokeWidth=2;align=center;verticalAlign=middle;fontFamily=Helvetica;fontSize=11;fontColor=default;labelBackgroundColor=default;endArrow=open;endFill=0;" edge="1" parent="1" source="g5iHBWscEhBEzwBSpOcC-308" target="g5iHBWscEhBEzwBSpOcC-281">
          <mxGeometry relative="1" as="geometry" />
        </mxCell>
        <mxCell id="g5iHBWscEhBEzwBSpOcC-311" value="Data Frame&lt;div&gt;Delta_Cnpj9&lt;/div&gt;" style="sketch=0;outlineConnect=0;fontColor=#232F3E;gradientColor=none;strokeColor=#232F3E;fillColor=#ffffff;dashed=0;verticalLabelPosition=bottom;verticalAlign=top;align=center;html=1;fontSize=12;fontStyle=0;aspect=fixed;shape=mxgraph.aws4.resourceIcon;resIcon=mxgraph.aws4.table;fontFamily=Verdana;" vertex="1" parent="1">
          <mxGeometry x="3067" y="904" width="54.5" height="54.5" as="geometry" />
        </mxCell>
        <mxCell id="g5iHBWscEhBEzwBSpOcC-312" style="edgeStyle=orthogonalEdgeStyle;rounded=0;orthogonalLoop=1;jettySize=auto;html=1;entryX=0.926;entryY=0.512;entryDx=0;entryDy=0;entryPerimeter=0;strokeColor=#666666;strokeWidth=2;align=center;verticalAlign=middle;fontFamily=Helvetica;fontSize=11;fontColor=default;labelBackgroundColor=default;endArrow=open;endFill=0;sourcePerimeterSpacing=35;" edge="1" parent="1" source="g5iHBWscEhBEzwBSpOcC-305" target="g5iHBWscEhBEzwBSpOcC-281">
          <mxGeometry relative="1" as="geometry" />
        </mxCell>
        <mxCell id="g5iHBWscEhBEzwBSpOcC-314" value="Load" style="fillColor=#f5f5f5;strokeColor=#666666;dashed=1;verticalAlign=top;fontStyle=0;fontColor=#333333;whiteSpace=wrap;html=1;fontFamily=Verdana;fontSize=18;" vertex="1" parent="1">
          <mxGeometry x="3426" y="741.5" width="691" height="667" as="geometry" />
        </mxCell>
        <mxCell id="g5iHBWscEhBEzwBSpOcC-315" value="Load" style="rounded=1;whiteSpace=wrap;html=1;arcSize=5;verticalAlign=top;" vertex="1" parent="1">
          <mxGeometry x="3539" y="899.5" width="465" height="300" as="geometry" />
        </mxCell>
        <mxCell id="g5iHBWscEhBEzwBSpOcC-319" style="edgeStyle=orthogonalEdgeStyle;rounded=0;orthogonalLoop=1;jettySize=auto;html=1;strokeColor=#666666;strokeWidth=2;align=center;verticalAlign=middle;fontFamily=Helvetica;fontSize=11;fontColor=default;labelBackgroundColor=default;endArrow=open;endFill=0;" edge="1" parent="1" source="g5iHBWscEhBEzwBSpOcC-316" target="g5iHBWscEhBEzwBSpOcC-318">
          <mxGeometry relative="1" as="geometry" />
        </mxCell>
        <mxCell id="g5iHBWscEhBEzwBSpOcC-316" value="boto3" style="outlineConnect=0;dashed=0;verticalLabelPosition=bottom;verticalAlign=top;align=center;html=1;shape=mxgraph.aws3.android;fillColor=#FFD44F;gradientColor=none;" vertex="1" parent="1">
          <mxGeometry x="3539" y="785.5" width="56" height="63" as="geometry" />
        </mxCell>
        <mxCell id="g5iHBWscEhBEzwBSpOcC-318" value="AWS Secrets Manager" style="sketch=0;outlineConnect=0;fontColor=#232F3E;gradientColor=none;strokeColor=#ffffff;fillColor=#232F3E;dashed=0;verticalLabelPosition=middle;verticalAlign=bottom;align=center;html=1;whiteSpace=wrap;fontSize=10;fontStyle=1;spacing=3;shape=mxgraph.aws4.productIcon;prIcon=mxgraph.aws4.secrets_manager;" vertex="1" parent="1">
          <mxGeometry x="3533.55" y="601.5" width="65.45" height="107" as="geometry" />
        </mxCell>
        <mxCell id="g5iHBWscEhBEzwBSpOcC-320" style="edgeStyle=orthogonalEdgeStyle;rounded=0;orthogonalLoop=1;jettySize=auto;html=1;entryX=1;entryY=0.5;entryDx=0;entryDy=0;entryPerimeter=0;strokeColor=#666666;strokeWidth=2;align=center;verticalAlign=middle;fontFamily=Helvetica;fontSize=11;fontColor=default;labelBackgroundColor=default;endArrow=open;endFill=0;" edge="1" parent="1" source="g5iHBWscEhBEzwBSpOcC-315" target="g5iHBWscEhBEzwBSpOcC-316">
          <mxGeometry relative="1" as="geometry" />
        </mxCell>
        <mxCell id="g5iHBWscEhBEzwBSpOcC-324" style="edgeStyle=orthogonalEdgeStyle;rounded=0;orthogonalLoop=1;jettySize=auto;html=1;entryX=0;entryY=0.5;entryDx=0;entryDy=0;strokeColor=#666666;strokeWidth=2;align=center;verticalAlign=middle;fontFamily=Helvetica;fontSize=11;fontColor=default;labelBackgroundColor=default;endArrow=open;endFill=0;" edge="1" parent="1" source="g5iHBWscEhBEzwBSpOcC-321" target="g5iHBWscEhBEzwBSpOcC-323">
          <mxGeometry relative="1" as="geometry" />
        </mxCell>
        <mxCell id="g5iHBWscEhBEzwBSpOcC-321" value="Data Frame" style="sketch=0;outlineConnect=0;fontColor=#232F3E;gradientColor=none;strokeColor=#232F3E;fillColor=#ffffff;dashed=0;verticalLabelPosition=bottom;verticalAlign=top;align=center;html=1;fontSize=12;fontStyle=0;aspect=fixed;shape=mxgraph.aws4.resourceIcon;resIcon=mxgraph.aws4.table;fontFamily=Verdana;" vertex="1" parent="1">
          <mxGeometry x="3599" y="1022.5" width="54.5" height="54.5" as="geometry" />
        </mxCell>
        <mxCell id="g5iHBWscEhBEzwBSpOcC-326" style="edgeStyle=orthogonalEdgeStyle;rounded=0;orthogonalLoop=1;jettySize=auto;html=1;strokeColor=#666666;strokeWidth=2;align=center;verticalAlign=middle;fontFamily=Helvetica;fontSize=11;fontColor=default;labelBackgroundColor=default;endArrow=open;endFill=0;" edge="1" parent="1" source="g5iHBWscEhBEzwBSpOcC-323" target="g5iHBWscEhBEzwBSpOcC-325">
          <mxGeometry relative="1" as="geometry" />
        </mxCell>
        <mxCell id="g5iHBWscEhBEzwBSpOcC-323" value="Load Data&lt;div&gt;RDS Table&lt;/div&gt;" style="rounded=1;whiteSpace=wrap;html=1;fontFamily=Verdana;strokeWidth=3;strokeColor=#666666;" vertex="1" parent="1">
          <mxGeometry x="3734" y="1014" width="176.32" height="71" as="geometry" />
        </mxCell>
        <mxCell id="g5iHBWscEhBEzwBSpOcC-325" value="Amazon RDS" style="sketch=0;outlineConnect=0;fontColor=#232F3E;gradientColor=none;strokeColor=#ffffff;fillColor=#232F3E;dashed=0;verticalLabelPosition=middle;verticalAlign=bottom;align=center;html=1;whiteSpace=wrap;fontSize=10;fontStyle=1;spacing=3;shape=mxgraph.aws4.productIcon;prIcon=mxgraph.aws4.rds;" vertex="1" parent="1">
          <mxGeometry x="4211" y="999.75" width="80" height="100" as="geometry" />
        </mxCell>
        <mxCell id="g5iHBWscEhBEzwBSpOcC-328" value="CNPJ14" style="rounded=1;whiteSpace=wrap;html=1;arcSize=5;verticalAlign=top;" vertex="1" parent="1">
          <mxGeometry x="2715" y="1143" width="465" height="300" as="geometry" />
        </mxCell>
        <mxCell id="g5iHBWscEhBEzwBSpOcC-329" value="Data Frame&lt;div&gt;EncartPJ_Cnpj14&lt;/div&gt;" style="sketch=0;outlineConnect=0;fontColor=#232F3E;gradientColor=none;strokeColor=#232F3E;fillColor=#ffffff;dashed=0;verticalLabelPosition=bottom;verticalAlign=top;align=center;html=1;fontSize=12;fontStyle=0;aspect=fixed;shape=mxgraph.aws4.resourceIcon;resIcon=mxgraph.aws4.table;fontFamily=Verdana;" vertex="1" parent="1">
          <mxGeometry x="2904" y="1179.5" width="54.5" height="54.5" as="geometry" />
        </mxCell>
        <mxCell id="g5iHBWscEhBEzwBSpOcC-330" style="edgeStyle=orthogonalEdgeStyle;rounded=0;orthogonalLoop=1;jettySize=auto;html=1;strokeColor=#666666;endArrow=open;endFill=0;strokeWidth=2;" edge="1" parent="1" source="g5iHBWscEhBEzwBSpOcC-331" target="g5iHBWscEhBEzwBSpOcC-329">
          <mxGeometry relative="1" as="geometry" />
        </mxCell>
        <mxCell id="g5iHBWscEhBEzwBSpOcC-331" value="Drop Duplicates" style="sketch=0;outlineConnect=0;fontColor=#232F3E;gradientColor=none;fillColor=#666666;strokeColor=none;dashed=0;verticalLabelPosition=bottom;verticalAlign=top;align=center;html=1;fontSize=12;fontStyle=0;aspect=fixed;pointerEvents=1;shape=mxgraph.aws4.filtering_rule;" vertex="1" parent="1">
          <mxGeometry x="2773" y="1179.5" width="53" height="53" as="geometry" />
        </mxCell>
        <mxCell id="g5iHBWscEhBEzwBSpOcC-332" value="Data Frame&lt;div&gt;Cache_Cnpj9&lt;/div&gt;" style="sketch=0;outlineConnect=0;fontColor=#232F3E;gradientColor=none;strokeColor=#232F3E;fillColor=#ffffff;dashed=0;verticalLabelPosition=bottom;verticalAlign=top;align=center;html=1;fontSize=12;fontStyle=0;aspect=fixed;shape=mxgraph.aws4.resourceIcon;resIcon=mxgraph.aws4.table;fontFamily=Verdana;" vertex="1" parent="1">
          <mxGeometry x="2773" y="1319" width="54.5" height="54.5" as="geometry" />
        </mxCell>
        <mxCell id="g5iHBWscEhBEzwBSpOcC-333" style="edgeStyle=orthogonalEdgeStyle;rounded=0;orthogonalLoop=1;jettySize=auto;html=1;strokeColor=#666666;strokeWidth=2;align=center;verticalAlign=middle;fontFamily=Helvetica;fontSize=11;fontColor=default;labelBackgroundColor=default;endArrow=open;endFill=0;" edge="1" parent="1" source="g5iHBWscEhBEzwBSpOcC-334" target="g5iHBWscEhBEzwBSpOcC-336">
          <mxGeometry relative="1" as="geometry">
            <Array as="points">
              <mxPoint x="3030" y="1352" />
              <mxPoint x="3030" y="1278" />
            </Array>
          </mxGeometry>
        </mxCell>
        <mxCell id="g5iHBWscEhBEzwBSpOcC-334" value="Join" style="verticalLabelPosition=bottom;shadow=0;dashed=0;align=right;html=1;verticalAlign=top;strokeWidth=3;shape=mxgraph.electrical.signal_sources.current_source;rotation=-90;horizontal=1;labelPosition=left;textDirection=vertical-lr;fontFamily=Verdana;strokeColor=#666666;" vertex="1" parent="1">
          <mxGeometry x="2909.25" y="1319" width="44" height="66" as="geometry" />
        </mxCell>
        <mxCell id="g5iHBWscEhBEzwBSpOcC-335" style="edgeStyle=orthogonalEdgeStyle;rounded=0;orthogonalLoop=1;jettySize=auto;html=1;entryX=0.639;entryY=0.05;entryDx=0;entryDy=0;entryPerimeter=0;strokeColor=#666666;strokeWidth=2;align=center;verticalAlign=middle;fontFamily=Helvetica;fontSize=11;fontColor=default;labelBackgroundColor=default;endArrow=open;endFill=0;" edge="1" parent="1" source="g5iHBWscEhBEzwBSpOcC-332" target="g5iHBWscEhBEzwBSpOcC-334">
          <mxGeometry relative="1" as="geometry" />
        </mxCell>
        <mxCell id="g5iHBWscEhBEzwBSpOcC-336" value="Data Frame&lt;div&gt;Delta_Cnpj14&lt;/div&gt;" style="sketch=0;outlineConnect=0;fontColor=#232F3E;gradientColor=none;strokeColor=#232F3E;fillColor=#ffffff;dashed=0;verticalLabelPosition=bottom;verticalAlign=top;align=center;html=1;fontSize=12;fontStyle=0;aspect=fixed;shape=mxgraph.aws4.resourceIcon;resIcon=mxgraph.aws4.table;fontFamily=Verdana;" vertex="1" parent="1">
          <mxGeometry x="3067" y="1251" width="54.5" height="54.5" as="geometry" />
        </mxCell>
        <mxCell id="g5iHBWscEhBEzwBSpOcC-337" style="edgeStyle=orthogonalEdgeStyle;rounded=0;orthogonalLoop=1;jettySize=auto;html=1;entryX=0.926;entryY=0.512;entryDx=0;entryDy=0;entryPerimeter=0;strokeColor=#666666;strokeWidth=2;align=center;verticalAlign=middle;fontFamily=Helvetica;fontSize=11;fontColor=default;labelBackgroundColor=default;endArrow=open;endFill=0;sourcePerimeterSpacing=35;" edge="1" parent="1" source="g5iHBWscEhBEzwBSpOcC-329" target="g5iHBWscEhBEzwBSpOcC-334">
          <mxGeometry relative="1" as="geometry" />
        </mxCell>
        <mxCell id="g5iHBWscEhBEzwBSpOcC-302" value="Extract" style="fillColor=#f5f5f5;strokeColor=#666666;dashed=1;verticalAlign=top;fontStyle=0;fontColor=#333333;whiteSpace=wrap;html=1;fontFamily=Verdana;fontSize=18;" vertex="1" parent="1">
          <mxGeometry x="1354" y="741.5" width="967" height="1163" as="geometry" />
        </mxCell>
        <mxCell id="g5iHBWscEhBEzwBSpOcC-294" value="" style="sketch=0;outlineConnect=0;fontColor=#232F3E;gradientColor=none;strokeColor=#232F3E;fillColor=#ffffff;dashed=0;verticalLabelPosition=bottom;verticalAlign=top;align=center;html=1;fontSize=12;fontStyle=0;aspect=fixed;shape=mxgraph.aws4.resourceIcon;resIcon=mxgraph.aws4.table;fontFamily=Verdana;" vertex="1" parent="1">
          <mxGeometry x="2178" y="1137.5" width="70" height="70" as="geometry" />
        </mxCell>
        <mxCell id="YnsC97xw09o-qkvb76Xq-1" value="CNPJ9" style="sketch=0;outlineConnect=0;fontColor=#232F3E;gradientColor=none;fillColor=#7AA116;strokeColor=none;dashed=0;verticalLabelPosition=bottom;verticalAlign=top;align=center;html=1;fontSize=12;fontStyle=0;aspect=fixed;pointerEvents=1;shape=mxgraph.aws4.bucket;fontFamily=Tahoma;container=0;" vertex="1" parent="1">
          <mxGeometry x="1411" y="1079.5" width="55.77" height="58" as="geometry" />
        </mxCell>
        <mxCell id="YnsC97xw09o-qkvb76Xq-2" value="CNPJ14" style="sketch=0;outlineConnect=0;fontColor=#232F3E;gradientColor=none;fillColor=#7AA116;strokeColor=none;dashed=0;verticalLabelPosition=bottom;verticalAlign=top;align=center;html=1;fontSize=12;fontStyle=0;aspect=fixed;pointerEvents=1;shape=mxgraph.aws4.bucket;fontFamily=Tahoma;container=0;" vertex="1" parent="1">
          <mxGeometry x="1411" y="978.5" width="55.77" height="58" as="geometry" />
        </mxCell>
        <mxCell id="YnsC97xw09o-qkvb76Xq-3" value="CONTA&lt;div&gt;BANCÁRIA&lt;/div&gt;" style="sketch=0;outlineConnect=0;fontColor=#232F3E;gradientColor=none;fillColor=#7AA116;strokeColor=none;dashed=0;verticalLabelPosition=bottom;verticalAlign=top;align=center;html=1;fontSize=12;fontStyle=0;aspect=fixed;pointerEvents=1;shape=mxgraph.aws4.bucket;fontFamily=Tahoma;container=0;" vertex="1" parent="1">
          <mxGeometry x="1411" y="1280.5" width="55.77" height="58" as="geometry" />
        </mxCell>
        <mxCell id="YnsC97xw09o-qkvb76Xq-5" value="CARTEIRA" style="sketch=0;outlineConnect=0;fontColor=#232F3E;gradientColor=none;fillColor=#7AA116;strokeColor=none;dashed=0;verticalLabelPosition=bottom;verticalAlign=top;align=center;html=1;fontSize=12;fontStyle=0;aspect=fixed;pointerEvents=1;shape=mxgraph.aws4.bucket;fontFamily=Tahoma;container=0;" vertex="1" parent="1">
          <mxGeometry x="1411" y="1179.5" width="55.77" height="58" as="geometry" />
        </mxCell>
        <mxCell id="CDHpQQd7UO4hf2axw3v3-1" value="Base Encart PJ" style="sketch=0;outlineConnect=0;fontColor=#232F3E;gradientColor=none;fillColor=#8C4FFF;strokeColor=none;dashed=0;verticalLabelPosition=bottom;verticalAlign=top;align=center;html=1;fontSize=12;fontStyle=0;aspect=fixed;pointerEvents=1;shape=mxgraph.aws4.data_lake_resource_icon;" vertex="1" parent="1">
          <mxGeometry x="1411" y="827.5" width="59" height="59" as="geometry" />
        </mxCell>
        <mxCell id="g5iHBWscEhBEzwBSpOcC-282" value="Data Frame&lt;div&gt;EncartPJ&lt;/div&gt;" style="sketch=0;outlineConnect=0;fontColor=#232F3E;gradientColor=none;strokeColor=#232F3E;fillColor=#ffffff;dashed=0;verticalLabelPosition=bottom;verticalAlign=top;align=center;html=1;fontSize=12;fontStyle=0;aspect=fixed;shape=mxgraph.aws4.resourceIcon;resIcon=mxgraph.aws4.table;fontFamily=Verdana;" vertex="1" parent="1">
          <mxGeometry x="2198" y="822" width="70" height="70" as="geometry" />
        </mxCell>
        <mxCell id="g5iHBWscEhBEzwBSpOcC-288" value="get&lt;div&gt;last partition&lt;/div&gt;" style="edgeStyle=orthogonalEdgeStyle;rounded=0;orthogonalLoop=1;jettySize=auto;html=1;strokeWidth=2;strokeColor=#4D4D4D;" edge="1" parent="1" source="g5iHBWscEhBEzwBSpOcC-283" target="g5iHBWscEhBEzwBSpOcC-285">
          <mxGeometry relative="1" as="geometry" />
        </mxCell>
        <mxCell id="g5iHBWscEhBEzwBSpOcC-291" style="edgeStyle=orthogonalEdgeStyle;rounded=0;orthogonalLoop=1;jettySize=auto;html=1;strokeWidth=3;strokeColor=#666666;" edge="1" parent="1" source="g5iHBWscEhBEzwBSpOcC-283" target="g5iHBWscEhBEzwBSpOcC-282">
          <mxGeometry relative="1" as="geometry" />
        </mxCell>
        <mxCell id="g5iHBWscEhBEzwBSpOcC-283" value="Extract&lt;div&gt;Data Catalog&lt;/div&gt;" style="rounded=1;whiteSpace=wrap;html=1;fontFamily=Verdana;strokeWidth=3;strokeColor=#666666;" vertex="1" parent="1">
          <mxGeometry x="1913" y="821.5" width="176.32" height="71" as="geometry" />
        </mxCell>
        <mxCell id="g5iHBWscEhBEzwBSpOcC-287" value="read" style="edgeStyle=orthogonalEdgeStyle;rounded=0;orthogonalLoop=1;jettySize=auto;html=1;strokeWidth=2;strokeColor=#B3B3B3;dashed=1;align=center;verticalAlign=middle;fontFamily=Helvetica;fontSize=11;fontColor=default;labelBackgroundColor=default;endArrow=classic;" edge="1" parent="1" source="g5iHBWscEhBEzwBSpOcC-285" target="CDHpQQd7UO4hf2axw3v3-1">
          <mxGeometry relative="1" as="geometry" />
        </mxCell>
        <mxCell id="g5iHBWscEhBEzwBSpOcC-285" value="Itau Data Utils&lt;div&gt;last partition&lt;/div&gt;" style="verticalLabelPosition=middle;verticalAlign=middle;html=1;shape=process;whiteSpace=wrap;rounded=1;size=0.14;arcSize=6;labelPosition=center;align=center;fontFamily=Verdana;" vertex="1" parent="1">
          <mxGeometry x="1617" y="823.5" width="134" height="67" as="geometry" />
        </mxCell>
        <mxCell id="g5iHBWscEhBEzwBSpOcC-296" value="read&lt;div&gt;parquet&lt;/div&gt;" style="edgeStyle=orthogonalEdgeStyle;rounded=0;orthogonalLoop=1;jettySize=auto;html=1;entryX=1;entryY=0.5;entryDx=0;entryDy=0;" edge="1" parent="1" source="g5iHBWscEhBEzwBSpOcC-292" target="g5iHBWscEhBEzwBSpOcC-295">
          <mxGeometry relative="1" as="geometry" />
        </mxCell>
        <mxCell id="g5iHBWscEhBEzwBSpOcC-292" value="Extract&lt;div&gt;Single Bases&lt;/div&gt;" style="rounded=1;whiteSpace=wrap;html=1;fontFamily=Verdana;strokeWidth=3;strokeColor=#666666;" vertex="1" parent="1">
          <mxGeometry x="1895" y="1137.5" width="176.32" height="71" as="geometry" />
        </mxCell>
        <mxCell id="g5iHBWscEhBEzwBSpOcC-293" value="Data Frame&lt;div&gt;Single Bases&lt;/div&gt;" style="sketch=0;outlineConnect=0;fontColor=#232F3E;gradientColor=none;strokeColor=#232F3E;fillColor=#ffffff;dashed=0;verticalLabelPosition=bottom;verticalAlign=top;align=center;html=1;fontSize=12;fontStyle=0;aspect=fixed;shape=mxgraph.aws4.resourceIcon;resIcon=mxgraph.aws4.table;fontFamily=Verdana;" vertex="1" parent="1">
          <mxGeometry x="2198" y="1156" width="70" height="70" as="geometry" />
        </mxCell>
        <mxCell id="g5iHBWscEhBEzwBSpOcC-297" value="read" style="edgeStyle=orthogonalEdgeStyle;rounded=0;orthogonalLoop=1;jettySize=auto;html=1;strokeColor=#B3B3B3;dashed=1;strokeWidth=2;" edge="1" parent="1" source="g5iHBWscEhBEzwBSpOcC-295" target="YnsC97xw09o-qkvb76Xq-2">
          <mxGeometry relative="1" as="geometry">
            <Array as="points">
              <mxPoint x="1552" y="1175.5" />
              <mxPoint x="1552" y="1016.5" />
            </Array>
          </mxGeometry>
        </mxCell>
        <mxCell id="g5iHBWscEhBEzwBSpOcC-295" value="pySpark" style="verticalLabelPosition=middle;verticalAlign=middle;html=1;shape=process;whiteSpace=wrap;rounded=1;size=0.14;arcSize=6;labelPosition=center;align=center;fontFamily=Verdana;" vertex="1" parent="1">
          <mxGeometry x="1599" y="1151" width="134" height="43" as="geometry" />
        </mxCell>
        <mxCell id="g5iHBWscEhBEzwBSpOcC-298" value="read" style="edgeStyle=orthogonalEdgeStyle;rounded=0;orthogonalLoop=1;jettySize=auto;html=1;strokeColor=#B3B3B3;dashed=1;strokeWidth=2;exitX=0;exitY=0.5;exitDx=0;exitDy=0;" edge="1" parent="1" source="g5iHBWscEhBEzwBSpOcC-295" target="YnsC97xw09o-qkvb76Xq-1">
          <mxGeometry relative="1" as="geometry">
            <mxPoint x="1609" y="1185.5" as="sourcePoint" />
            <mxPoint x="1477" y="1026.5" as="targetPoint" />
            <Array as="points">
              <mxPoint x="1552" y="1175.5" />
              <mxPoint x="1552" y="1108.5" />
            </Array>
          </mxGeometry>
        </mxCell>
        <mxCell id="g5iHBWscEhBEzwBSpOcC-299" value="read" style="edgeStyle=orthogonalEdgeStyle;rounded=0;orthogonalLoop=1;jettySize=auto;html=1;strokeColor=#B3B3B3;dashed=1;strokeWidth=2;exitX=0;exitY=0.5;exitDx=0;exitDy=0;" edge="1" parent="1" source="g5iHBWscEhBEzwBSpOcC-295" target="YnsC97xw09o-qkvb76Xq-5">
          <mxGeometry relative="1" as="geometry">
            <mxPoint x="1609" y="1185.5" as="sourcePoint" />
            <mxPoint x="1477" y="1118.5" as="targetPoint" />
            <Array as="points">
              <mxPoint x="1552" y="1175.5" />
              <mxPoint x="1552" y="1212.5" />
            </Array>
          </mxGeometry>
        </mxCell>
        <mxCell id="g5iHBWscEhBEzwBSpOcC-300" value="read" style="edgeStyle=orthogonalEdgeStyle;rounded=0;orthogonalLoop=1;jettySize=auto;html=1;strokeColor=#B3B3B3;dashed=1;strokeWidth=2;exitX=0;exitY=0.5;exitDx=0;exitDy=0;" edge="1" parent="1" source="g5iHBWscEhBEzwBSpOcC-295" target="YnsC97xw09o-qkvb76Xq-3">
          <mxGeometry relative="1" as="geometry">
            <mxPoint x="1611" y="1275.5" as="sourcePoint" />
            <mxPoint x="1479" y="1312.5" as="targetPoint" />
            <Array as="points">
              <mxPoint x="1551" y="1175.5" />
              <mxPoint x="1551" y="1312.5" />
            </Array>
          </mxGeometry>
        </mxCell>
        <mxCell id="g5iHBWscEhBEzwBSpOcC-301" style="edgeStyle=orthogonalEdgeStyle;rounded=0;orthogonalLoop=1;jettySize=auto;html=1;strokeWidth=3;strokeColor=#666666;" edge="1" parent="1">
          <mxGeometry relative="1" as="geometry">
            <mxPoint x="2071.32" y="1175.3899999999999" as="sourcePoint" />
            <mxPoint x="2180.32" y="1175.3899999999999" as="targetPoint" />
          </mxGeometry>
        </mxCell>
        <mxCell id="g5iHBWscEhBEzwBSpOcC-340" style="edgeStyle=orthogonalEdgeStyle;rounded=0;orthogonalLoop=1;jettySize=auto;html=1;strokeColor=#666666;strokeWidth=2;align=center;verticalAlign=middle;fontFamily=Helvetica;fontSize=11;fontColor=default;labelBackgroundColor=default;endArrow=open;endFill=0;" edge="1" parent="1" source="g5iHBWscEhBEzwBSpOcC-339" target="g5iHBWscEhBEzwBSpOcC-284">
          <mxGeometry relative="1" as="geometry" />
        </mxCell>
        <mxCell id="g5iHBWscEhBEzwBSpOcC-339" value="Data Frame&lt;div&gt;EncartPJ&lt;/div&gt;" style="sketch=0;outlineConnect=0;fontColor=#232F3E;gradientColor=none;strokeColor=#232F3E;fillColor=#ffffff;dashed=0;verticalLabelPosition=bottom;verticalAlign=top;align=center;html=1;fontSize=12;fontStyle=0;aspect=fixed;shape=mxgraph.aws4.resourceIcon;resIcon=mxgraph.aws4.table;fontFamily=Verdana;" vertex="1" parent="1">
          <mxGeometry x="2580" y="825" width="70" height="70" as="geometry" />
        </mxCell>
        <mxCell id="g5iHBWscEhBEzwBSpOcC-345" style="edgeStyle=orthogonalEdgeStyle;rounded=0;orthogonalLoop=1;jettySize=auto;html=1;strokeColor=#666666;strokeWidth=2;align=center;verticalAlign=middle;fontFamily=Helvetica;fontSize=11;fontColor=default;labelBackgroundColor=default;endArrow=open;endFill=0;" edge="1" parent="1" source="g5iHBWscEhBEzwBSpOcC-342" target="g5iHBWscEhBEzwBSpOcC-332">
          <mxGeometry relative="1" as="geometry" />
        </mxCell>
        <mxCell id="g5iHBWscEhBEzwBSpOcC-342" value="Data Frame&lt;div&gt;Cache_Cnpj14&lt;/div&gt;" style="sketch=0;outlineConnect=0;fontColor=#232F3E;gradientColor=none;strokeColor=#232F3E;fillColor=#ffffff;dashed=0;verticalLabelPosition=bottom;verticalAlign=top;align=center;html=1;fontSize=12;fontStyle=0;aspect=fixed;shape=mxgraph.aws4.resourceIcon;resIcon=mxgraph.aws4.table;fontFamily=Verdana;" vertex="1" parent="1">
          <mxGeometry x="2600.75" y="1319" width="54.5" height="54.5" as="geometry" />
        </mxCell>
        <mxCell id="g5iHBWscEhBEzwBSpOcC-344" style="edgeStyle=orthogonalEdgeStyle;rounded=0;orthogonalLoop=1;jettySize=auto;html=1;strokeColor=#666666;strokeWidth=2;align=center;verticalAlign=middle;fontFamily=Helvetica;fontSize=11;fontColor=default;labelBackgroundColor=default;endArrow=open;endFill=0;" edge="1" parent="1" source="g5iHBWscEhBEzwBSpOcC-343" target="g5iHBWscEhBEzwBSpOcC-331">
          <mxGeometry relative="1" as="geometry" />
        </mxCell>
        <mxCell id="g5iHBWscEhBEzwBSpOcC-343" value="Data Frame&lt;div&gt;EncartPJ&lt;/div&gt;" style="sketch=0;outlineConnect=0;fontColor=#232F3E;gradientColor=none;strokeColor=#232F3E;fillColor=#ffffff;dashed=0;verticalLabelPosition=bottom;verticalAlign=top;align=center;html=1;fontSize=12;fontStyle=0;aspect=fixed;shape=mxgraph.aws4.resourceIcon;resIcon=mxgraph.aws4.table;fontFamily=Verdana;" vertex="1" parent="1">
          <mxGeometry x="2593" y="1171.75" width="70" height="70" as="geometry" />
        </mxCell>
        <mxCell id="g5iHBWscEhBEzwBSpOcC-346" value="Carteira" style="rounded=1;whiteSpace=wrap;html=1;arcSize=5;verticalAlign=top;" vertex="1" parent="1">
          <mxGeometry x="2715" y="1485" width="465" height="300" as="geometry" />
        </mxCell>
        <mxCell id="g5iHBWscEhBEzwBSpOcC-347" value="Data Frame&lt;div&gt;EncartPJ_carteira&lt;/div&gt;" style="sketch=0;outlineConnect=0;fontColor=#232F3E;gradientColor=none;strokeColor=#232F3E;fillColor=#ffffff;dashed=0;verticalLabelPosition=bottom;verticalAlign=top;align=center;html=1;fontSize=12;fontStyle=0;aspect=fixed;shape=mxgraph.aws4.resourceIcon;resIcon=mxgraph.aws4.table;fontFamily=Verdana;" vertex="1" parent="1">
          <mxGeometry x="2904" y="1521.5" width="54.5" height="54.5" as="geometry" />
        </mxCell>
        <mxCell id="g5iHBWscEhBEzwBSpOcC-348" style="edgeStyle=orthogonalEdgeStyle;rounded=0;orthogonalLoop=1;jettySize=auto;html=1;strokeColor=#666666;endArrow=open;endFill=0;strokeWidth=2;" edge="1" parent="1" source="g5iHBWscEhBEzwBSpOcC-349" target="g5iHBWscEhBEzwBSpOcC-347">
          <mxGeometry relative="1" as="geometry" />
        </mxCell>
        <mxCell id="g5iHBWscEhBEzwBSpOcC-349" value="Drop Duplicates" style="sketch=0;outlineConnect=0;fontColor=#232F3E;gradientColor=none;fillColor=#666666;strokeColor=none;dashed=0;verticalLabelPosition=bottom;verticalAlign=top;align=center;html=1;fontSize=12;fontStyle=0;aspect=fixed;pointerEvents=1;shape=mxgraph.aws4.filtering_rule;" vertex="1" parent="1">
          <mxGeometry x="2773" y="1521.5" width="53" height="53" as="geometry" />
        </mxCell>
        <mxCell id="g5iHBWscEhBEzwBSpOcC-350" value="Data Frame&lt;div&gt;Cache_carteira&lt;/div&gt;" style="sketch=0;outlineConnect=0;fontColor=#232F3E;gradientColor=none;strokeColor=#232F3E;fillColor=#ffffff;dashed=0;verticalLabelPosition=bottom;verticalAlign=top;align=center;html=1;fontSize=12;fontStyle=0;aspect=fixed;shape=mxgraph.aws4.resourceIcon;resIcon=mxgraph.aws4.table;fontFamily=Verdana;" vertex="1" parent="1">
          <mxGeometry x="2773" y="1661" width="54.5" height="54.5" as="geometry" />
        </mxCell>
        <mxCell id="g5iHBWscEhBEzwBSpOcC-351" style="edgeStyle=orthogonalEdgeStyle;rounded=0;orthogonalLoop=1;jettySize=auto;html=1;strokeColor=#666666;strokeWidth=2;align=center;verticalAlign=middle;fontFamily=Helvetica;fontSize=11;fontColor=default;labelBackgroundColor=default;endArrow=open;endFill=0;" edge="1" parent="1" source="g5iHBWscEhBEzwBSpOcC-352" target="g5iHBWscEhBEzwBSpOcC-354">
          <mxGeometry relative="1" as="geometry">
            <Array as="points">
              <mxPoint x="3030" y="1694" />
              <mxPoint x="3030" y="1620" />
            </Array>
          </mxGeometry>
        </mxCell>
        <mxCell id="g5iHBWscEhBEzwBSpOcC-352" value="Join" style="verticalLabelPosition=bottom;shadow=0;dashed=0;align=right;html=1;verticalAlign=top;strokeWidth=3;shape=mxgraph.electrical.signal_sources.current_source;rotation=-90;horizontal=1;labelPosition=left;textDirection=vertical-lr;fontFamily=Verdana;strokeColor=#666666;" vertex="1" parent="1">
          <mxGeometry x="2909.25" y="1661" width="44" height="66" as="geometry" />
        </mxCell>
        <mxCell id="g5iHBWscEhBEzwBSpOcC-353" style="edgeStyle=orthogonalEdgeStyle;rounded=0;orthogonalLoop=1;jettySize=auto;html=1;entryX=0.639;entryY=0.05;entryDx=0;entryDy=0;entryPerimeter=0;strokeColor=#666666;strokeWidth=2;align=center;verticalAlign=middle;fontFamily=Helvetica;fontSize=11;fontColor=default;labelBackgroundColor=default;endArrow=open;endFill=0;" edge="1" parent="1" source="g5iHBWscEhBEzwBSpOcC-350" target="g5iHBWscEhBEzwBSpOcC-352">
          <mxGeometry relative="1" as="geometry" />
        </mxCell>
        <mxCell id="g5iHBWscEhBEzwBSpOcC-354" value="Data Frame&lt;div&gt;Delta_Carteira&lt;/div&gt;" style="sketch=0;outlineConnect=0;fontColor=#232F3E;gradientColor=none;strokeColor=#232F3E;fillColor=#ffffff;dashed=0;verticalLabelPosition=bottom;verticalAlign=top;align=center;html=1;fontSize=12;fontStyle=0;aspect=fixed;shape=mxgraph.aws4.resourceIcon;resIcon=mxgraph.aws4.table;fontFamily=Verdana;" vertex="1" parent="1">
          <mxGeometry x="3067" y="1593" width="54.5" height="54.5" as="geometry" />
        </mxCell>
        <mxCell id="g5iHBWscEhBEzwBSpOcC-355" style="edgeStyle=orthogonalEdgeStyle;rounded=0;orthogonalLoop=1;jettySize=auto;html=1;entryX=0.926;entryY=0.512;entryDx=0;entryDy=0;entryPerimeter=0;strokeColor=#666666;strokeWidth=2;align=center;verticalAlign=middle;fontFamily=Helvetica;fontSize=11;fontColor=default;labelBackgroundColor=default;endArrow=open;endFill=0;sourcePerimeterSpacing=35;" edge="1" parent="1" source="g5iHBWscEhBEzwBSpOcC-347" target="g5iHBWscEhBEzwBSpOcC-352">
          <mxGeometry relative="1" as="geometry" />
        </mxCell>
        <mxCell id="g5iHBWscEhBEzwBSpOcC-356" style="edgeStyle=orthogonalEdgeStyle;rounded=0;orthogonalLoop=1;jettySize=auto;html=1;strokeColor=#666666;strokeWidth=2;align=center;verticalAlign=middle;fontFamily=Helvetica;fontSize=11;fontColor=default;labelBackgroundColor=default;endArrow=open;endFill=0;" edge="1" parent="1" source="g5iHBWscEhBEzwBSpOcC-357" target="g5iHBWscEhBEzwBSpOcC-350">
          <mxGeometry relative="1" as="geometry" />
        </mxCell>
        <mxCell id="g5iHBWscEhBEzwBSpOcC-357" value="Data Frame&lt;div&gt;Cache_Carteira&lt;/div&gt;" style="sketch=0;outlineConnect=0;fontColor=#232F3E;gradientColor=none;strokeColor=#232F3E;fillColor=#ffffff;dashed=0;verticalLabelPosition=bottom;verticalAlign=top;align=center;html=1;fontSize=12;fontStyle=0;aspect=fixed;shape=mxgraph.aws4.resourceIcon;resIcon=mxgraph.aws4.table;fontFamily=Verdana;" vertex="1" parent="1">
          <mxGeometry x="2600.75" y="1661" width="54.5" height="54.5" as="geometry" />
        </mxCell>
        <mxCell id="g5iHBWscEhBEzwBSpOcC-358" style="edgeStyle=orthogonalEdgeStyle;rounded=0;orthogonalLoop=1;jettySize=auto;html=1;strokeColor=#666666;strokeWidth=2;align=center;verticalAlign=middle;fontFamily=Helvetica;fontSize=11;fontColor=default;labelBackgroundColor=default;endArrow=open;endFill=0;" edge="1" parent="1" source="g5iHBWscEhBEzwBSpOcC-359" target="g5iHBWscEhBEzwBSpOcC-349">
          <mxGeometry relative="1" as="geometry" />
        </mxCell>
        <mxCell id="g5iHBWscEhBEzwBSpOcC-359" value="Data Frame&lt;div&gt;EncartPJ&lt;/div&gt;" style="sketch=0;outlineConnect=0;fontColor=#232F3E;gradientColor=none;strokeColor=#232F3E;fillColor=#ffffff;dashed=0;verticalLabelPosition=bottom;verticalAlign=top;align=center;html=1;fontSize=12;fontStyle=0;aspect=fixed;shape=mxgraph.aws4.resourceIcon;resIcon=mxgraph.aws4.table;fontFamily=Verdana;" vertex="1" parent="1">
          <mxGeometry x="2593" y="1513.75" width="70" height="70" as="geometry" />
        </mxCell>
        <mxCell id="g5iHBWscEhBEzwBSpOcC-360" value="Conta" style="rounded=1;whiteSpace=wrap;html=1;arcSize=5;verticalAlign=top;" vertex="1" parent="1">
          <mxGeometry x="2715" y="1834" width="465" height="300" as="geometry" />
        </mxCell>
        <mxCell id="g5iHBWscEhBEzwBSpOcC-361" value="Data Frame&lt;div&gt;EncartPJ_Conta&lt;/div&gt;" style="sketch=0;outlineConnect=0;fontColor=#232F3E;gradientColor=none;strokeColor=#232F3E;fillColor=#ffffff;dashed=0;verticalLabelPosition=bottom;verticalAlign=top;align=center;html=1;fontSize=12;fontStyle=0;aspect=fixed;shape=mxgraph.aws4.resourceIcon;resIcon=mxgraph.aws4.table;fontFamily=Verdana;" vertex="1" parent="1">
          <mxGeometry x="2904" y="1870.5" width="54.5" height="54.5" as="geometry" />
        </mxCell>
        <mxCell id="g5iHBWscEhBEzwBSpOcC-364" value="Data Frame&lt;div&gt;Cache_Conta&lt;/div&gt;" style="sketch=0;outlineConnect=0;fontColor=#232F3E;gradientColor=none;strokeColor=#232F3E;fillColor=#ffffff;dashed=0;verticalLabelPosition=bottom;verticalAlign=top;align=center;html=1;fontSize=12;fontStyle=0;aspect=fixed;shape=mxgraph.aws4.resourceIcon;resIcon=mxgraph.aws4.table;fontFamily=Verdana;" vertex="1" parent="1">
          <mxGeometry x="2773" y="2010" width="54.5" height="54.5" as="geometry" />
        </mxCell>
        <mxCell id="g5iHBWscEhBEzwBSpOcC-365" style="edgeStyle=orthogonalEdgeStyle;rounded=0;orthogonalLoop=1;jettySize=auto;html=1;strokeColor=#666666;strokeWidth=2;align=center;verticalAlign=middle;fontFamily=Helvetica;fontSize=11;fontColor=default;labelBackgroundColor=default;endArrow=open;endFill=0;" edge="1" parent="1" source="g5iHBWscEhBEzwBSpOcC-366" target="g5iHBWscEhBEzwBSpOcC-368">
          <mxGeometry relative="1" as="geometry">
            <Array as="points">
              <mxPoint x="3030" y="2043" />
              <mxPoint x="3030" y="1969" />
            </Array>
          </mxGeometry>
        </mxCell>
        <mxCell id="g5iHBWscEhBEzwBSpOcC-366" value="Join" style="verticalLabelPosition=bottom;shadow=0;dashed=0;align=right;html=1;verticalAlign=top;strokeWidth=3;shape=mxgraph.electrical.signal_sources.current_source;rotation=-90;horizontal=1;labelPosition=left;textDirection=vertical-lr;fontFamily=Verdana;strokeColor=#666666;" vertex="1" parent="1">
          <mxGeometry x="2909.25" y="2010" width="44" height="66" as="geometry" />
        </mxCell>
        <mxCell id="g5iHBWscEhBEzwBSpOcC-367" style="edgeStyle=orthogonalEdgeStyle;rounded=0;orthogonalLoop=1;jettySize=auto;html=1;entryX=0.639;entryY=0.05;entryDx=0;entryDy=0;entryPerimeter=0;strokeColor=#666666;strokeWidth=2;align=center;verticalAlign=middle;fontFamily=Helvetica;fontSize=11;fontColor=default;labelBackgroundColor=default;endArrow=open;endFill=0;" edge="1" parent="1" source="g5iHBWscEhBEzwBSpOcC-364" target="g5iHBWscEhBEzwBSpOcC-366">
          <mxGeometry relative="1" as="geometry" />
        </mxCell>
        <mxCell id="g5iHBWscEhBEzwBSpOcC-368" value="Data Frame&lt;div&gt;Delta_Conta&lt;/div&gt;" style="sketch=0;outlineConnect=0;fontColor=#232F3E;gradientColor=none;strokeColor=#232F3E;fillColor=#ffffff;dashed=0;verticalLabelPosition=bottom;verticalAlign=top;align=center;html=1;fontSize=12;fontStyle=0;aspect=fixed;shape=mxgraph.aws4.resourceIcon;resIcon=mxgraph.aws4.table;fontFamily=Verdana;" vertex="1" parent="1">
          <mxGeometry x="3067" y="1942" width="54.5" height="54.5" as="geometry" />
        </mxCell>
        <mxCell id="g5iHBWscEhBEzwBSpOcC-369" style="edgeStyle=orthogonalEdgeStyle;rounded=0;orthogonalLoop=1;jettySize=auto;html=1;entryX=0.926;entryY=0.512;entryDx=0;entryDy=0;entryPerimeter=0;strokeColor=#666666;strokeWidth=2;align=center;verticalAlign=middle;fontFamily=Helvetica;fontSize=11;fontColor=default;labelBackgroundColor=default;endArrow=open;endFill=0;sourcePerimeterSpacing=35;" edge="1" parent="1" source="g5iHBWscEhBEzwBSpOcC-361" target="g5iHBWscEhBEzwBSpOcC-366">
          <mxGeometry relative="1" as="geometry" />
        </mxCell>
        <mxCell id="g5iHBWscEhBEzwBSpOcC-370" style="edgeStyle=orthogonalEdgeStyle;rounded=0;orthogonalLoop=1;jettySize=auto;html=1;strokeColor=#666666;strokeWidth=2;align=center;verticalAlign=middle;fontFamily=Helvetica;fontSize=11;fontColor=default;labelBackgroundColor=default;endArrow=open;endFill=0;" edge="1" parent="1" source="g5iHBWscEhBEzwBSpOcC-371" target="g5iHBWscEhBEzwBSpOcC-364">
          <mxGeometry relative="1" as="geometry" />
        </mxCell>
        <mxCell id="g5iHBWscEhBEzwBSpOcC-371" value="Data Frame&lt;div&gt;Cache_Conta&lt;/div&gt;" style="sketch=0;outlineConnect=0;fontColor=#232F3E;gradientColor=none;strokeColor=#232F3E;fillColor=#ffffff;dashed=0;verticalLabelPosition=bottom;verticalAlign=top;align=center;html=1;fontSize=12;fontStyle=0;aspect=fixed;shape=mxgraph.aws4.resourceIcon;resIcon=mxgraph.aws4.table;fontFamily=Verdana;" vertex="1" parent="1">
          <mxGeometry x="2600.75" y="2010" width="54.5" height="54.5" as="geometry" />
        </mxCell>
        <mxCell id="g5iHBWscEhBEzwBSpOcC-372" style="edgeStyle=orthogonalEdgeStyle;rounded=0;orthogonalLoop=1;jettySize=auto;html=1;strokeColor=#666666;strokeWidth=2;align=center;verticalAlign=middle;fontFamily=Helvetica;fontSize=11;fontColor=default;labelBackgroundColor=default;endArrow=open;endFill=0;" edge="1" parent="1" source="g5iHBWscEhBEzwBSpOcC-373" target="g5iHBWscEhBEzwBSpOcC-361">
          <mxGeometry relative="1" as="geometry">
            <mxPoint x="2773" y="1897" as="targetPoint" />
          </mxGeometry>
        </mxCell>
        <mxCell id="g5iHBWscEhBEzwBSpOcC-373" value="Data Frame&lt;div&gt;EncartPJ&lt;/div&gt;" style="sketch=0;outlineConnect=0;fontColor=#232F3E;gradientColor=none;strokeColor=#232F3E;fillColor=#ffffff;dashed=0;verticalLabelPosition=bottom;verticalAlign=top;align=center;html=1;fontSize=12;fontStyle=0;aspect=fixed;shape=mxgraph.aws4.resourceIcon;resIcon=mxgraph.aws4.table;fontFamily=Verdana;" vertex="1" parent="1">
          <mxGeometry x="2593" y="1862.75" width="70" height="70" as="geometry" />
        </mxCell>
        <mxCell id="g5iHBWscEhBEzwBSpOcC-374" value="" style="sketch=0;outlineConnect=0;fontColor=#232F3E;gradientColor=none;strokeColor=#232F3E;fillColor=#ffffff;dashed=0;verticalLabelPosition=bottom;verticalAlign=top;align=center;html=1;fontSize=12;fontStyle=0;aspect=fixed;shape=mxgraph.aws4.resourceIcon;resIcon=mxgraph.aws4.table;fontFamily=Verdana;" vertex="1" parent="1">
          <mxGeometry x="2178" y="1605.5" width="70" height="70" as="geometry" />
        </mxCell>
        <mxCell id="g5iHBWscEhBEzwBSpOcC-375" value="CNPJ9&lt;div&gt;CARTEIRA&lt;/div&gt;" style="sketch=0;outlineConnect=0;fontColor=#232F3E;gradientColor=none;fillColor=#7AA116;strokeColor=none;dashed=0;verticalLabelPosition=bottom;verticalAlign=top;align=center;html=1;fontSize=12;fontStyle=0;aspect=fixed;pointerEvents=1;shape=mxgraph.aws4.bucket;fontFamily=Tahoma;container=0;" vertex="1" parent="1">
          <mxGeometry x="1411" y="1547.5" width="55.77" height="58" as="geometry" />
        </mxCell>
        <mxCell id="g5iHBWscEhBEzwBSpOcC-376" value="CARTEIRA&lt;div&gt;DA CONTA&lt;/div&gt;" style="sketch=0;outlineConnect=0;fontColor=#232F3E;gradientColor=none;fillColor=#7AA116;strokeColor=none;dashed=0;verticalLabelPosition=bottom;verticalAlign=top;align=center;html=1;fontSize=12;fontStyle=0;aspect=fixed;pointerEvents=1;shape=mxgraph.aws4.bucket;fontFamily=Tahoma;container=0;" vertex="1" parent="1">
          <mxGeometry x="1411" y="1446.5" width="55.77" height="58" as="geometry" />
        </mxCell>
        <mxCell id="g5iHBWscEhBEzwBSpOcC-377" value="CLIENTE&lt;div&gt;CARTEIRA&lt;/div&gt;" style="sketch=0;outlineConnect=0;fontColor=#232F3E;gradientColor=none;fillColor=#7AA116;strokeColor=none;dashed=0;verticalLabelPosition=bottom;verticalAlign=top;align=center;html=1;fontSize=12;fontStyle=0;aspect=fixed;pointerEvents=1;shape=mxgraph.aws4.bucket;fontFamily=Tahoma;container=0;" vertex="1" parent="1">
          <mxGeometry x="1411" y="1748.5" width="55.77" height="58" as="geometry" />
        </mxCell>
        <mxCell id="g5iHBWscEhBEzwBSpOcC-378" value="CONTA&lt;div&gt;CLIENTE&lt;/div&gt;" style="sketch=0;outlineConnect=0;fontColor=#232F3E;gradientColor=none;fillColor=#7AA116;strokeColor=none;dashed=0;verticalLabelPosition=bottom;verticalAlign=top;align=center;html=1;fontSize=12;fontStyle=0;aspect=fixed;pointerEvents=1;shape=mxgraph.aws4.bucket;fontFamily=Tahoma;container=0;" vertex="1" parent="1">
          <mxGeometry x="1411" y="1647.5" width="55.77" height="58" as="geometry" />
        </mxCell>
        <mxCell id="g5iHBWscEhBEzwBSpOcC-379" value="read&lt;div&gt;parquet&lt;/div&gt;" style="edgeStyle=orthogonalEdgeStyle;rounded=0;orthogonalLoop=1;jettySize=auto;html=1;entryX=1;entryY=0.5;entryDx=0;entryDy=0;" edge="1" parent="1" source="g5iHBWscEhBEzwBSpOcC-380" target="g5iHBWscEhBEzwBSpOcC-383">
          <mxGeometry relative="1" as="geometry" />
        </mxCell>
        <mxCell id="g5iHBWscEhBEzwBSpOcC-380" value="Extract&lt;div&gt;Linked Bases&lt;/div&gt;" style="rounded=1;whiteSpace=wrap;html=1;fontFamily=Verdana;strokeWidth=3;strokeColor=#666666;" vertex="1" parent="1">
          <mxGeometry x="1895" y="1605.5" width="176.32" height="71" as="geometry" />
        </mxCell>
        <mxCell id="g5iHBWscEhBEzwBSpOcC-381" value="Data Frame&lt;div&gt;Linked Bases&lt;/div&gt;" style="sketch=0;outlineConnect=0;fontColor=#232F3E;gradientColor=none;strokeColor=#232F3E;fillColor=#ffffff;dashed=0;verticalLabelPosition=bottom;verticalAlign=top;align=center;html=1;fontSize=12;fontStyle=0;aspect=fixed;shape=mxgraph.aws4.resourceIcon;resIcon=mxgraph.aws4.table;fontFamily=Verdana;" vertex="1" parent="1">
          <mxGeometry x="2198" y="1624" width="70" height="70" as="geometry" />
        </mxCell>
        <mxCell id="g5iHBWscEhBEzwBSpOcC-382" value="read" style="edgeStyle=orthogonalEdgeStyle;rounded=0;orthogonalLoop=1;jettySize=auto;html=1;strokeColor=#B3B3B3;dashed=1;strokeWidth=2;" edge="1" parent="1" source="g5iHBWscEhBEzwBSpOcC-383" target="g5iHBWscEhBEzwBSpOcC-376">
          <mxGeometry relative="1" as="geometry">
            <Array as="points">
              <mxPoint x="1552" y="1643.5" />
              <mxPoint x="1552" y="1484.5" />
            </Array>
          </mxGeometry>
        </mxCell>
        <mxCell id="g5iHBWscEhBEzwBSpOcC-383" value="pySpark" style="verticalLabelPosition=middle;verticalAlign=middle;html=1;shape=process;whiteSpace=wrap;rounded=1;size=0.14;arcSize=6;labelPosition=center;align=center;fontFamily=Verdana;" vertex="1" parent="1">
          <mxGeometry x="1599" y="1619" width="134" height="43" as="geometry" />
        </mxCell>
        <mxCell id="g5iHBWscEhBEzwBSpOcC-384" value="read" style="edgeStyle=orthogonalEdgeStyle;rounded=0;orthogonalLoop=1;jettySize=auto;html=1;strokeColor=#B3B3B3;dashed=1;strokeWidth=2;exitX=0;exitY=0.5;exitDx=0;exitDy=0;" edge="1" parent="1" source="g5iHBWscEhBEzwBSpOcC-383" target="g5iHBWscEhBEzwBSpOcC-375">
          <mxGeometry relative="1" as="geometry">
            <mxPoint x="1609" y="1653.5" as="sourcePoint" />
            <mxPoint x="1477" y="1494.5" as="targetPoint" />
            <Array as="points">
              <mxPoint x="1552" y="1643.5" />
              <mxPoint x="1552" y="1576.5" />
            </Array>
          </mxGeometry>
        </mxCell>
        <mxCell id="g5iHBWscEhBEzwBSpOcC-385" value="read" style="edgeStyle=orthogonalEdgeStyle;rounded=0;orthogonalLoop=1;jettySize=auto;html=1;strokeColor=#B3B3B3;dashed=1;strokeWidth=2;exitX=0;exitY=0.5;exitDx=0;exitDy=0;" edge="1" parent="1" source="g5iHBWscEhBEzwBSpOcC-383" target="g5iHBWscEhBEzwBSpOcC-378">
          <mxGeometry relative="1" as="geometry">
            <mxPoint x="1609" y="1653.5" as="sourcePoint" />
            <mxPoint x="1477" y="1586.5" as="targetPoint" />
            <Array as="points">
              <mxPoint x="1552" y="1643.5" />
              <mxPoint x="1552" y="1680.5" />
            </Array>
          </mxGeometry>
        </mxCell>
        <mxCell id="g5iHBWscEhBEzwBSpOcC-386" value="read" style="edgeStyle=orthogonalEdgeStyle;rounded=0;orthogonalLoop=1;jettySize=auto;html=1;strokeColor=#B3B3B3;dashed=1;strokeWidth=2;exitX=0;exitY=0.5;exitDx=0;exitDy=0;" edge="1" parent="1" source="g5iHBWscEhBEzwBSpOcC-383" target="g5iHBWscEhBEzwBSpOcC-377">
          <mxGeometry relative="1" as="geometry">
            <mxPoint x="1611" y="1743.5" as="sourcePoint" />
            <mxPoint x="1479" y="1780.5" as="targetPoint" />
            <Array as="points">
              <mxPoint x="1551" y="1643.5" />
              <mxPoint x="1551" y="1780.5" />
            </Array>
          </mxGeometry>
        </mxCell>
        <mxCell id="g5iHBWscEhBEzwBSpOcC-387" style="edgeStyle=orthogonalEdgeStyle;rounded=0;orthogonalLoop=1;jettySize=auto;html=1;strokeWidth=3;strokeColor=#666666;" edge="1" parent="1">
          <mxGeometry relative="1" as="geometry">
            <mxPoint x="2071.32" y="1643.3899999999999" as="sourcePoint" />
            <mxPoint x="2180.32" y="1643.3899999999999" as="targetPoint" />
          </mxGeometry>
        </mxCell>
        <mxCell id="YnsC97xw09o-qkvb76Xq-4" value="CONTA&lt;div&gt;GESTORA&lt;/div&gt;" style="sketch=0;outlineConnect=0;fontColor=#232F3E;gradientColor=none;fillColor=#7AA116;strokeColor=none;dashed=0;verticalLabelPosition=bottom;verticalAlign=top;align=center;html=1;fontSize=12;fontStyle=0;aspect=fixed;pointerEvents=1;shape=mxgraph.aws4.bucket;fontFamily=Tahoma;container=0;" vertex="1" parent="1">
          <mxGeometry x="1638.11" y="1007.5" width="55.77" height="58" as="geometry" />
        </mxCell>
        <mxCell id="g5iHBWscEhBEzwBSpOcC-388" value="Carteira da Conta" style="rounded=1;whiteSpace=wrap;html=1;arcSize=5;verticalAlign=top;" vertex="1" parent="1">
          <mxGeometry x="2715" y="2208" width="465" height="458" as="geometry" />
        </mxCell>
        <mxCell id="g5iHBWscEhBEzwBSpOcC-389" value="Data Frame&lt;div&gt;EncartPJ_Carteira_Conta&lt;/div&gt;" style="sketch=0;outlineConnect=0;fontColor=#232F3E;gradientColor=none;strokeColor=#232F3E;fillColor=#ffffff;dashed=0;verticalLabelPosition=bottom;verticalAlign=top;align=center;html=1;fontSize=12;fontStyle=0;aspect=fixed;shape=mxgraph.aws4.resourceIcon;resIcon=mxgraph.aws4.table;fontFamily=Verdana;" vertex="1" parent="1">
          <mxGeometry x="2904" y="2244.5" width="54.5" height="54.5" as="geometry" />
        </mxCell>
        <mxCell id="g5iHBWscEhBEzwBSpOcC-390" value="Data Frame&lt;div&gt;Cache_Carteira_Conta&lt;/div&gt;" style="sketch=0;outlineConnect=0;fontColor=#232F3E;gradientColor=none;strokeColor=#232F3E;fillColor=#ffffff;dashed=0;verticalLabelPosition=bottom;verticalAlign=top;align=center;html=1;fontSize=12;fontStyle=0;aspect=fixed;shape=mxgraph.aws4.resourceIcon;resIcon=mxgraph.aws4.table;fontFamily=Verdana;" vertex="1" parent="1">
          <mxGeometry x="2773" y="2384" width="54.5" height="54.5" as="geometry" />
        </mxCell>
        <mxCell id="g5iHBWscEhBEzwBSpOcC-391" style="edgeStyle=orthogonalEdgeStyle;rounded=0;orthogonalLoop=1;jettySize=auto;html=1;strokeColor=#666666;strokeWidth=2;align=center;verticalAlign=middle;fontFamily=Helvetica;fontSize=11;fontColor=default;labelBackgroundColor=default;endArrow=open;endFill=0;" edge="1" parent="1" source="g5iHBWscEhBEzwBSpOcC-392" target="g5iHBWscEhBEzwBSpOcC-394">
          <mxGeometry relative="1" as="geometry">
            <Array as="points" />
          </mxGeometry>
        </mxCell>
        <mxCell id="g5iHBWscEhBEzwBSpOcC-392" value="Join" style="verticalLabelPosition=bottom;shadow=0;dashed=0;align=right;html=1;verticalAlign=top;strokeWidth=3;shape=mxgraph.electrical.signal_sources.current_source;rotation=-90;horizontal=1;labelPosition=left;textDirection=vertical-lr;fontFamily=Verdana;strokeColor=#666666;" vertex="1" parent="1">
          <mxGeometry x="2909.25" y="2384" width="44" height="66" as="geometry" />
        </mxCell>
        <mxCell id="g5iHBWscEhBEzwBSpOcC-393" style="edgeStyle=orthogonalEdgeStyle;rounded=0;orthogonalLoop=1;jettySize=auto;html=1;entryX=0.639;entryY=0.05;entryDx=0;entryDy=0;entryPerimeter=0;strokeColor=#666666;strokeWidth=2;align=center;verticalAlign=middle;fontFamily=Helvetica;fontSize=11;fontColor=default;labelBackgroundColor=default;endArrow=open;endFill=0;" edge="1" parent="1" source="g5iHBWscEhBEzwBSpOcC-390" target="g5iHBWscEhBEzwBSpOcC-392">
          <mxGeometry relative="1" as="geometry" />
        </mxCell>
        <mxCell id="g5iHBWscEhBEzwBSpOcC-394" value="Data Frame&lt;div&gt;Delta_Carteira_Conta&lt;/div&gt;" style="sketch=0;outlineConnect=0;fontColor=#232F3E;gradientColor=none;strokeColor=#232F3E;fillColor=#ffffff;dashed=0;verticalLabelPosition=bottom;verticalAlign=top;align=center;html=1;fontSize=12;fontStyle=0;aspect=fixed;shape=mxgraph.aws4.resourceIcon;resIcon=mxgraph.aws4.table;fontFamily=Verdana;" vertex="1" parent="1">
          <mxGeometry x="3067" y="2389.75" width="54.5" height="54.5" as="geometry" />
        </mxCell>
        <mxCell id="g5iHBWscEhBEzwBSpOcC-395" style="edgeStyle=orthogonalEdgeStyle;rounded=0;orthogonalLoop=1;jettySize=auto;html=1;entryX=0.926;entryY=0.512;entryDx=0;entryDy=0;entryPerimeter=0;strokeColor=#666666;strokeWidth=2;align=center;verticalAlign=middle;fontFamily=Helvetica;fontSize=11;fontColor=default;labelBackgroundColor=default;endArrow=open;endFill=0;sourcePerimeterSpacing=35;" edge="1" parent="1" source="g5iHBWscEhBEzwBSpOcC-389" target="g5iHBWscEhBEzwBSpOcC-392">
          <mxGeometry relative="1" as="geometry" />
        </mxCell>
        <mxCell id="g5iHBWscEhBEzwBSpOcC-396" style="edgeStyle=orthogonalEdgeStyle;rounded=0;orthogonalLoop=1;jettySize=auto;html=1;strokeColor=#666666;strokeWidth=2;align=center;verticalAlign=middle;fontFamily=Helvetica;fontSize=11;fontColor=default;labelBackgroundColor=default;endArrow=open;endFill=0;entryX=0.5;entryY=0;entryDx=0;entryDy=0;entryPerimeter=0;" edge="1" parent="1" source="g5iHBWscEhBEzwBSpOcC-397" target="g5iHBWscEhBEzwBSpOcC-402">
          <mxGeometry relative="1" as="geometry" />
        </mxCell>
        <mxCell id="g5iHBWscEhBEzwBSpOcC-397" value="Data Frame&lt;div&gt;Cache_Carteira_Conta&lt;/div&gt;" style="sketch=0;outlineConnect=0;fontColor=#232F3E;gradientColor=none;strokeColor=#232F3E;fillColor=#ffffff;dashed=0;verticalLabelPosition=bottom;verticalAlign=top;align=center;html=1;fontSize=12;fontStyle=0;aspect=fixed;shape=mxgraph.aws4.resourceIcon;resIcon=mxgraph.aws4.table;fontFamily=Verdana;" vertex="1" parent="1">
          <mxGeometry x="2532" y="2384" width="54.5" height="54.5" as="geometry" />
        </mxCell>
        <mxCell id="g5iHBWscEhBEzwBSpOcC-398" style="edgeStyle=orthogonalEdgeStyle;rounded=0;orthogonalLoop=1;jettySize=auto;html=1;strokeColor=#666666;strokeWidth=2;align=center;verticalAlign=middle;fontFamily=Helvetica;fontSize=11;fontColor=default;labelBackgroundColor=default;endArrow=open;endFill=0;" edge="1" parent="1" source="g5iHBWscEhBEzwBSpOcC-406" target="g5iHBWscEhBEzwBSpOcC-389">
          <mxGeometry relative="1" as="geometry">
            <mxPoint x="2773" y="2271" as="targetPoint" />
          </mxGeometry>
        </mxCell>
        <mxCell id="g5iHBWscEhBEzwBSpOcC-399" value="Data Frame&lt;div&gt;EncartPJ&lt;/div&gt;" style="sketch=0;outlineConnect=0;fontColor=#232F3E;gradientColor=none;strokeColor=#232F3E;fillColor=#ffffff;dashed=0;verticalLabelPosition=bottom;verticalAlign=top;align=center;html=1;fontSize=12;fontStyle=0;aspect=fixed;shape=mxgraph.aws4.resourceIcon;resIcon=mxgraph.aws4.table;fontFamily=Verdana;" vertex="1" parent="1">
          <mxGeometry x="2529.75" y="2240.88" width="63.25" height="63.25" as="geometry" />
        </mxCell>
        <mxCell id="g5iHBWscEhBEzwBSpOcC-400" value="Data Frame&lt;div&gt;Cache_Carteira&lt;/div&gt;" style="sketch=0;outlineConnect=0;fontColor=#232F3E;gradientColor=none;strokeColor=#232F3E;fillColor=#ffffff;dashed=0;verticalLabelPosition=bottom;verticalAlign=top;align=center;html=1;fontSize=12;fontStyle=0;aspect=fixed;shape=mxgraph.aws4.resourceIcon;resIcon=mxgraph.aws4.table;fontFamily=Verdana;" vertex="1" parent="1">
          <mxGeometry x="2532" y="2497" width="54.5" height="54.5" as="geometry" />
        </mxCell>
        <mxCell id="g5iHBWscEhBEzwBSpOcC-401" value="Data Frame&lt;div&gt;Cache_Conta&lt;/div&gt;" style="sketch=0;outlineConnect=0;fontColor=#232F3E;gradientColor=none;strokeColor=#232F3E;fillColor=#ffffff;dashed=0;verticalLabelPosition=bottom;verticalAlign=top;align=center;html=1;fontSize=12;fontStyle=0;aspect=fixed;shape=mxgraph.aws4.resourceIcon;resIcon=mxgraph.aws4.table;fontFamily=Verdana;" vertex="1" parent="1">
          <mxGeometry x="2532" y="2617" width="54.5" height="54.5" as="geometry" />
        </mxCell>
        <mxCell id="g5iHBWscEhBEzwBSpOcC-405" style="edgeStyle=orthogonalEdgeStyle;rounded=0;orthogonalLoop=1;jettySize=auto;html=1;strokeColor=#666666;strokeWidth=2;align=center;verticalAlign=middle;fontFamily=Helvetica;fontSize=11;fontColor=default;labelBackgroundColor=default;endArrow=open;endFill=0;" edge="1" parent="1" source="g5iHBWscEhBEzwBSpOcC-402" target="g5iHBWscEhBEzwBSpOcC-390">
          <mxGeometry relative="1" as="geometry" />
        </mxCell>
        <mxCell id="g5iHBWscEhBEzwBSpOcC-402" value="Join" style="verticalLabelPosition=bottom;shadow=0;dashed=0;align=right;html=1;verticalAlign=top;strokeWidth=3;shape=mxgraph.electrical.signal_sources.current_source;rotation=-90;horizontal=1;labelPosition=left;textDirection=vertical-lr;fontFamily=Verdana;strokeColor=#666666;" vertex="1" parent="1">
          <mxGeometry x="2777.5" y="2533" width="44" height="66" as="geometry" />
        </mxCell>
        <mxCell id="g5iHBWscEhBEzwBSpOcC-403" style="edgeStyle=orthogonalEdgeStyle;rounded=0;orthogonalLoop=1;jettySize=auto;html=1;entryX=0.5;entryY=0;entryDx=0;entryDy=0;entryPerimeter=0;strokeColor=#666666;strokeWidth=2;align=center;verticalAlign=middle;fontFamily=Helvetica;fontSize=11;fontColor=default;labelBackgroundColor=default;endArrow=open;endFill=0;" edge="1" parent="1" source="g5iHBWscEhBEzwBSpOcC-400" target="g5iHBWscEhBEzwBSpOcC-402">
          <mxGeometry relative="1" as="geometry" />
        </mxCell>
        <mxCell id="g5iHBWscEhBEzwBSpOcC-404" style="edgeStyle=orthogonalEdgeStyle;rounded=0;orthogonalLoop=1;jettySize=auto;html=1;entryX=0.5;entryY=0;entryDx=0;entryDy=0;entryPerimeter=0;strokeColor=#666666;strokeWidth=2;align=center;verticalAlign=middle;fontFamily=Helvetica;fontSize=11;fontColor=default;labelBackgroundColor=default;endArrow=open;endFill=0;" edge="1" parent="1" source="g5iHBWscEhBEzwBSpOcC-401" target="g5iHBWscEhBEzwBSpOcC-402">
          <mxGeometry relative="1" as="geometry" />
        </mxCell>
        <mxCell id="g5iHBWscEhBEzwBSpOcC-407" value="" style="edgeStyle=orthogonalEdgeStyle;rounded=0;orthogonalLoop=1;jettySize=auto;html=1;strokeColor=#666666;strokeWidth=2;align=center;verticalAlign=middle;fontFamily=Helvetica;fontSize=11;fontColor=default;labelBackgroundColor=default;endArrow=open;endFill=0;" edge="1" parent="1" source="g5iHBWscEhBEzwBSpOcC-399" target="g5iHBWscEhBEzwBSpOcC-406">
          <mxGeometry relative="1" as="geometry">
            <mxPoint x="2904" y="2272" as="targetPoint" />
            <mxPoint x="2663" y="2272" as="sourcePoint" />
          </mxGeometry>
        </mxCell>
        <mxCell id="g5iHBWscEhBEzwBSpOcC-406" value="Carteira da Conta" style="sketch=0;outlineConnect=0;fontColor=#232F3E;gradientColor=none;fillColor=#666666;strokeColor=none;dashed=0;verticalLabelPosition=bottom;verticalAlign=top;align=center;html=1;fontSize=12;fontStyle=0;aspect=fixed;pointerEvents=1;shape=mxgraph.aws4.filtering_rule;" vertex="1" parent="1">
          <mxGeometry x="2773" y="2246" width="53" height="53" as="geometry" />
        </mxCell>
        <mxCell id="2cERoE-P70ZcHIxyYowz-1" value="Conta do Cliente" style="rounded=1;whiteSpace=wrap;html=1;arcSize=5;verticalAlign=top;" vertex="1" parent="1">
          <mxGeometry x="2725" y="3319" width="465" height="458" as="geometry" />
        </mxCell>
        <mxCell id="2cERoE-P70ZcHIxyYowz-2" value="Data Frame&lt;div&gt;EncartPJ_Conta_Cliente&lt;/div&gt;" style="sketch=0;outlineConnect=0;fontColor=#232F3E;gradientColor=none;strokeColor=#232F3E;fillColor=#ffffff;dashed=0;verticalLabelPosition=bottom;verticalAlign=top;align=center;html=1;fontSize=12;fontStyle=0;aspect=fixed;shape=mxgraph.aws4.resourceIcon;resIcon=mxgraph.aws4.table;fontFamily=Verdana;" vertex="1" parent="1">
          <mxGeometry x="2914" y="3355.5" width="54.5" height="54.5" as="geometry" />
        </mxCell>
        <mxCell id="2cERoE-P70ZcHIxyYowz-3" value="Data Frame&lt;div&gt;Cache_Conta_Cliente&lt;/div&gt;" style="sketch=0;outlineConnect=0;fontColor=#232F3E;gradientColor=none;strokeColor=#232F3E;fillColor=#ffffff;dashed=0;verticalLabelPosition=bottom;verticalAlign=top;align=center;html=1;fontSize=12;fontStyle=0;aspect=fixed;shape=mxgraph.aws4.resourceIcon;resIcon=mxgraph.aws4.table;fontFamily=Verdana;" vertex="1" parent="1">
          <mxGeometry x="2783" y="3495" width="54.5" height="54.5" as="geometry" />
        </mxCell>
        <mxCell id="2cERoE-P70ZcHIxyYowz-4" style="edgeStyle=orthogonalEdgeStyle;rounded=0;orthogonalLoop=1;jettySize=auto;html=1;strokeColor=#666666;strokeWidth=2;align=center;verticalAlign=middle;fontFamily=Helvetica;fontSize=11;fontColor=default;labelBackgroundColor=default;endArrow=open;endFill=0;" edge="1" parent="1" source="2cERoE-P70ZcHIxyYowz-5" target="2cERoE-P70ZcHIxyYowz-7">
          <mxGeometry relative="1" as="geometry">
            <Array as="points" />
          </mxGeometry>
        </mxCell>
        <mxCell id="2cERoE-P70ZcHIxyYowz-5" value="Join" style="verticalLabelPosition=bottom;shadow=0;dashed=0;align=right;html=1;verticalAlign=top;strokeWidth=3;shape=mxgraph.electrical.signal_sources.current_source;rotation=-90;horizontal=1;labelPosition=left;textDirection=vertical-lr;fontFamily=Verdana;strokeColor=#666666;" vertex="1" parent="1">
          <mxGeometry x="2919.25" y="3495" width="44" height="66" as="geometry" />
        </mxCell>
        <mxCell id="2cERoE-P70ZcHIxyYowz-6" style="edgeStyle=orthogonalEdgeStyle;rounded=0;orthogonalLoop=1;jettySize=auto;html=1;entryX=0.639;entryY=0.05;entryDx=0;entryDy=0;entryPerimeter=0;strokeColor=#666666;strokeWidth=2;align=center;verticalAlign=middle;fontFamily=Helvetica;fontSize=11;fontColor=default;labelBackgroundColor=default;endArrow=open;endFill=0;" edge="1" parent="1" source="2cERoE-P70ZcHIxyYowz-3" target="2cERoE-P70ZcHIxyYowz-5">
          <mxGeometry relative="1" as="geometry" />
        </mxCell>
        <mxCell id="2cERoE-P70ZcHIxyYowz-7" value="Data Frame&lt;div&gt;Delta_Conta_Cliente&lt;/div&gt;" style="sketch=0;outlineConnect=0;fontColor=#232F3E;gradientColor=none;strokeColor=#232F3E;fillColor=#ffffff;dashed=0;verticalLabelPosition=bottom;verticalAlign=top;align=center;html=1;fontSize=12;fontStyle=0;aspect=fixed;shape=mxgraph.aws4.resourceIcon;resIcon=mxgraph.aws4.table;fontFamily=Verdana;" vertex="1" parent="1">
          <mxGeometry x="3077" y="3500.75" width="54.5" height="54.5" as="geometry" />
        </mxCell>
        <mxCell id="2cERoE-P70ZcHIxyYowz-8" style="edgeStyle=orthogonalEdgeStyle;rounded=0;orthogonalLoop=1;jettySize=auto;html=1;entryX=0.926;entryY=0.512;entryDx=0;entryDy=0;entryPerimeter=0;strokeColor=#666666;strokeWidth=2;align=center;verticalAlign=middle;fontFamily=Helvetica;fontSize=11;fontColor=default;labelBackgroundColor=default;endArrow=open;endFill=0;sourcePerimeterSpacing=35;" edge="1" parent="1" source="2cERoE-P70ZcHIxyYowz-2" target="2cERoE-P70ZcHIxyYowz-5">
          <mxGeometry relative="1" as="geometry" />
        </mxCell>
        <mxCell id="2cERoE-P70ZcHIxyYowz-9" style="edgeStyle=orthogonalEdgeStyle;rounded=0;orthogonalLoop=1;jettySize=auto;html=1;strokeColor=#666666;strokeWidth=2;align=center;verticalAlign=middle;fontFamily=Helvetica;fontSize=11;fontColor=default;labelBackgroundColor=default;endArrow=open;endFill=0;entryX=0.5;entryY=0;entryDx=0;entryDy=0;entryPerimeter=0;" edge="1" parent="1" source="2cERoE-P70ZcHIxyYowz-10" target="2cERoE-P70ZcHIxyYowz-15">
          <mxGeometry relative="1" as="geometry" />
        </mxCell>
        <mxCell id="2cERoE-P70ZcHIxyYowz-10" value="Data Frame&lt;div&gt;Cache_Conta_Cliente&lt;/div&gt;" style="sketch=0;outlineConnect=0;fontColor=#232F3E;gradientColor=none;strokeColor=#232F3E;fillColor=#ffffff;dashed=0;verticalLabelPosition=bottom;verticalAlign=top;align=center;html=1;fontSize=12;fontStyle=0;aspect=fixed;shape=mxgraph.aws4.resourceIcon;resIcon=mxgraph.aws4.table;fontFamily=Verdana;" vertex="1" parent="1">
          <mxGeometry x="2539.75" y="3537" width="54.5" height="54.5" as="geometry" />
        </mxCell>
        <mxCell id="2cERoE-P70ZcHIxyYowz-11" style="edgeStyle=orthogonalEdgeStyle;rounded=0;orthogonalLoop=1;jettySize=auto;html=1;strokeColor=#666666;strokeWidth=2;align=center;verticalAlign=middle;fontFamily=Helvetica;fontSize=11;fontColor=default;labelBackgroundColor=default;endArrow=open;endFill=0;" edge="1" parent="1" source="2cERoE-P70ZcHIxyYowz-18" target="2cERoE-P70ZcHIxyYowz-2">
          <mxGeometry relative="1" as="geometry">
            <mxPoint x="2783" y="3382" as="targetPoint" />
          </mxGeometry>
        </mxCell>
        <mxCell id="2cERoE-P70ZcHIxyYowz-12" value="Data Frame&lt;div&gt;EncartPJ&lt;/div&gt;" style="sketch=0;outlineConnect=0;fontColor=#232F3E;gradientColor=none;strokeColor=#232F3E;fillColor=#ffffff;dashed=0;verticalLabelPosition=bottom;verticalAlign=top;align=center;html=1;fontSize=12;fontStyle=0;aspect=fixed;shape=mxgraph.aws4.resourceIcon;resIcon=mxgraph.aws4.table;fontFamily=Verdana;" vertex="1" parent="1">
          <mxGeometry x="2539.75" y="3351.88" width="63.25" height="63.25" as="geometry" />
        </mxCell>
        <mxCell id="2cERoE-P70ZcHIxyYowz-13" value="Data Frame&lt;div&gt;Cache_Conta&lt;/div&gt;" style="sketch=0;outlineConnect=0;fontColor=#232F3E;gradientColor=none;strokeColor=#232F3E;fillColor=#ffffff;dashed=0;verticalLabelPosition=bottom;verticalAlign=top;align=center;html=1;fontSize=12;fontStyle=0;aspect=fixed;shape=mxgraph.aws4.resourceIcon;resIcon=mxgraph.aws4.table;fontFamily=Verdana;" vertex="1" parent="1">
          <mxGeometry x="2539.75" y="3650" width="54.5" height="54.5" as="geometry" />
        </mxCell>
        <mxCell id="2cERoE-P70ZcHIxyYowz-14" style="edgeStyle=orthogonalEdgeStyle;rounded=0;orthogonalLoop=1;jettySize=auto;html=1;strokeColor=#666666;strokeWidth=2;align=center;verticalAlign=middle;fontFamily=Helvetica;fontSize=11;fontColor=default;labelBackgroundColor=default;endArrow=open;endFill=0;" edge="1" parent="1" source="2cERoE-P70ZcHIxyYowz-15" target="2cERoE-P70ZcHIxyYowz-3">
          <mxGeometry relative="1" as="geometry" />
        </mxCell>
        <mxCell id="2cERoE-P70ZcHIxyYowz-15" value="Join" style="verticalLabelPosition=bottom;shadow=0;dashed=0;align=right;html=1;verticalAlign=top;strokeWidth=3;shape=mxgraph.electrical.signal_sources.current_source;rotation=-90;horizontal=1;labelPosition=left;textDirection=vertical-lr;fontFamily=Verdana;strokeColor=#666666;" vertex="1" parent="1">
          <mxGeometry x="2787.5" y="3644" width="44" height="66" as="geometry" />
        </mxCell>
        <mxCell id="2cERoE-P70ZcHIxyYowz-16" style="edgeStyle=orthogonalEdgeStyle;rounded=0;orthogonalLoop=1;jettySize=auto;html=1;entryX=0.5;entryY=0;entryDx=0;entryDy=0;entryPerimeter=0;strokeColor=#666666;strokeWidth=2;align=center;verticalAlign=middle;fontFamily=Helvetica;fontSize=11;fontColor=default;labelBackgroundColor=default;endArrow=open;endFill=0;" edge="1" parent="1" source="2cERoE-P70ZcHIxyYowz-13" target="2cERoE-P70ZcHIxyYowz-15">
          <mxGeometry relative="1" as="geometry" />
        </mxCell>
        <mxCell id="2cERoE-P70ZcHIxyYowz-17" value="" style="edgeStyle=orthogonalEdgeStyle;rounded=0;orthogonalLoop=1;jettySize=auto;html=1;strokeColor=#666666;strokeWidth=2;align=center;verticalAlign=middle;fontFamily=Helvetica;fontSize=11;fontColor=default;labelBackgroundColor=default;endArrow=open;endFill=0;" edge="1" parent="1" source="2cERoE-P70ZcHIxyYowz-12" target="2cERoE-P70ZcHIxyYowz-18">
          <mxGeometry relative="1" as="geometry">
            <mxPoint x="2914" y="3383" as="targetPoint" />
            <mxPoint x="2673" y="3383" as="sourcePoint" />
          </mxGeometry>
        </mxCell>
        <mxCell id="2cERoE-P70ZcHIxyYowz-18" value="Conta_Cliente" style="sketch=0;outlineConnect=0;fontColor=#232F3E;gradientColor=none;fillColor=#666666;strokeColor=none;dashed=0;verticalLabelPosition=bottom;verticalAlign=top;align=center;html=1;fontSize=12;fontStyle=0;aspect=fixed;pointerEvents=1;shape=mxgraph.aws4.filtering_rule;" vertex="1" parent="1">
          <mxGeometry x="2783" y="3357" width="53" height="53" as="geometry" />
        </mxCell>
        <mxCell id="2cERoE-P70ZcHIxyYowz-19" value="CNPJ9 Carteira" style="rounded=1;whiteSpace=wrap;html=1;arcSize=5;verticalAlign=top;" vertex="1" parent="1">
          <mxGeometry x="2715" y="2754" width="465" height="458" as="geometry" />
        </mxCell>
        <mxCell id="2cERoE-P70ZcHIxyYowz-20" value="Data Frame&lt;div&gt;EncartPJ_Cnpj9_Carteira&lt;/div&gt;" style="sketch=0;outlineConnect=0;fontColor=#232F3E;gradientColor=none;strokeColor=#232F3E;fillColor=#ffffff;dashed=0;verticalLabelPosition=bottom;verticalAlign=top;align=center;html=1;fontSize=12;fontStyle=0;aspect=fixed;shape=mxgraph.aws4.resourceIcon;resIcon=mxgraph.aws4.table;fontFamily=Verdana;" vertex="1" parent="1">
          <mxGeometry x="2904" y="2790.5" width="54.5" height="54.5" as="geometry" />
        </mxCell>
        <mxCell id="2cERoE-P70ZcHIxyYowz-21" value="Data Frame&lt;div&gt;Cache_Cnpj9_Carteira&lt;/div&gt;" style="sketch=0;outlineConnect=0;fontColor=#232F3E;gradientColor=none;strokeColor=#232F3E;fillColor=#ffffff;dashed=0;verticalLabelPosition=bottom;verticalAlign=top;align=center;html=1;fontSize=12;fontStyle=0;aspect=fixed;shape=mxgraph.aws4.resourceIcon;resIcon=mxgraph.aws4.table;fontFamily=Verdana;" vertex="1" parent="1">
          <mxGeometry x="2773" y="2930" width="54.5" height="54.5" as="geometry" />
        </mxCell>
        <mxCell id="2cERoE-P70ZcHIxyYowz-22" style="edgeStyle=orthogonalEdgeStyle;rounded=0;orthogonalLoop=1;jettySize=auto;html=1;strokeColor=#666666;strokeWidth=2;align=center;verticalAlign=middle;fontFamily=Helvetica;fontSize=11;fontColor=default;labelBackgroundColor=default;endArrow=open;endFill=0;" edge="1" parent="1" source="2cERoE-P70ZcHIxyYowz-23" target="2cERoE-P70ZcHIxyYowz-25">
          <mxGeometry relative="1" as="geometry">
            <Array as="points" />
          </mxGeometry>
        </mxCell>
        <mxCell id="2cERoE-P70ZcHIxyYowz-23" value="Join" style="verticalLabelPosition=bottom;shadow=0;dashed=0;align=right;html=1;verticalAlign=top;strokeWidth=3;shape=mxgraph.electrical.signal_sources.current_source;rotation=-90;horizontal=1;labelPosition=left;textDirection=vertical-lr;fontFamily=Verdana;strokeColor=#666666;" vertex="1" parent="1">
          <mxGeometry x="2909.25" y="2930" width="44" height="66" as="geometry" />
        </mxCell>
        <mxCell id="2cERoE-P70ZcHIxyYowz-24" style="edgeStyle=orthogonalEdgeStyle;rounded=0;orthogonalLoop=1;jettySize=auto;html=1;entryX=0.639;entryY=0.05;entryDx=0;entryDy=0;entryPerimeter=0;strokeColor=#666666;strokeWidth=2;align=center;verticalAlign=middle;fontFamily=Helvetica;fontSize=11;fontColor=default;labelBackgroundColor=default;endArrow=open;endFill=0;" edge="1" parent="1" source="2cERoE-P70ZcHIxyYowz-21" target="2cERoE-P70ZcHIxyYowz-23">
          <mxGeometry relative="1" as="geometry" />
        </mxCell>
        <mxCell id="2cERoE-P70ZcHIxyYowz-25" value="Data Frame&lt;div&gt;Delta_Cnpj9_Carteira&lt;/div&gt;" style="sketch=0;outlineConnect=0;fontColor=#232F3E;gradientColor=none;strokeColor=#232F3E;fillColor=#ffffff;dashed=0;verticalLabelPosition=bottom;verticalAlign=top;align=center;html=1;fontSize=12;fontStyle=0;aspect=fixed;shape=mxgraph.aws4.resourceIcon;resIcon=mxgraph.aws4.table;fontFamily=Verdana;" vertex="1" parent="1">
          <mxGeometry x="3067" y="2935.75" width="54.5" height="54.5" as="geometry" />
        </mxCell>
        <mxCell id="2cERoE-P70ZcHIxyYowz-26" style="edgeStyle=orthogonalEdgeStyle;rounded=0;orthogonalLoop=1;jettySize=auto;html=1;entryX=0.926;entryY=0.512;entryDx=0;entryDy=0;entryPerimeter=0;strokeColor=#666666;strokeWidth=2;align=center;verticalAlign=middle;fontFamily=Helvetica;fontSize=11;fontColor=default;labelBackgroundColor=default;endArrow=open;endFill=0;sourcePerimeterSpacing=35;" edge="1" parent="1" source="2cERoE-P70ZcHIxyYowz-20" target="2cERoE-P70ZcHIxyYowz-23">
          <mxGeometry relative="1" as="geometry" />
        </mxCell>
        <mxCell id="2cERoE-P70ZcHIxyYowz-27" style="edgeStyle=orthogonalEdgeStyle;rounded=0;orthogonalLoop=1;jettySize=auto;html=1;strokeColor=#666666;strokeWidth=2;align=center;verticalAlign=middle;fontFamily=Helvetica;fontSize=11;fontColor=default;labelBackgroundColor=default;endArrow=open;endFill=0;entryX=0.5;entryY=0;entryDx=0;entryDy=0;entryPerimeter=0;" edge="1" parent="1" source="2cERoE-P70ZcHIxyYowz-28" target="2cERoE-P70ZcHIxyYowz-34">
          <mxGeometry relative="1" as="geometry" />
        </mxCell>
        <mxCell id="2cERoE-P70ZcHIxyYowz-28" value="Data Frame&lt;div&gt;Cache_Cnpj9_Carteira&lt;/div&gt;" style="sketch=0;outlineConnect=0;fontColor=#232F3E;gradientColor=none;strokeColor=#232F3E;fillColor=#ffffff;dashed=0;verticalLabelPosition=bottom;verticalAlign=top;align=center;html=1;fontSize=12;fontStyle=0;aspect=fixed;shape=mxgraph.aws4.resourceIcon;resIcon=mxgraph.aws4.table;fontFamily=Verdana;" vertex="1" parent="1">
          <mxGeometry x="2532" y="2930" width="54.5" height="54.5" as="geometry" />
        </mxCell>
        <mxCell id="2cERoE-P70ZcHIxyYowz-29" style="edgeStyle=orthogonalEdgeStyle;rounded=0;orthogonalLoop=1;jettySize=auto;html=1;strokeColor=#666666;strokeWidth=2;align=center;verticalAlign=middle;fontFamily=Helvetica;fontSize=11;fontColor=default;labelBackgroundColor=default;endArrow=open;endFill=0;" edge="1" parent="1" source="2cERoE-P70ZcHIxyYowz-38" target="2cERoE-P70ZcHIxyYowz-20">
          <mxGeometry relative="1" as="geometry">
            <mxPoint x="2773" y="2817" as="targetPoint" />
          </mxGeometry>
        </mxCell>
        <mxCell id="2cERoE-P70ZcHIxyYowz-30" value="Data Frame&lt;div&gt;EncartPJ&lt;/div&gt;" style="sketch=0;outlineConnect=0;fontColor=#232F3E;gradientColor=none;strokeColor=#232F3E;fillColor=#ffffff;dashed=0;verticalLabelPosition=bottom;verticalAlign=top;align=center;html=1;fontSize=12;fontStyle=0;aspect=fixed;shape=mxgraph.aws4.resourceIcon;resIcon=mxgraph.aws4.table;fontFamily=Verdana;" vertex="1" parent="1">
          <mxGeometry x="2529.75" y="2786.88" width="63.25" height="63.25" as="geometry" />
        </mxCell>
        <mxCell id="2cERoE-P70ZcHIxyYowz-31" value="Data Frame&lt;div&gt;Cache_Carteira&lt;/div&gt;" style="sketch=0;outlineConnect=0;fontColor=#232F3E;gradientColor=none;strokeColor=#232F3E;fillColor=#ffffff;dashed=0;verticalLabelPosition=bottom;verticalAlign=top;align=center;html=1;fontSize=12;fontStyle=0;aspect=fixed;shape=mxgraph.aws4.resourceIcon;resIcon=mxgraph.aws4.table;fontFamily=Verdana;" vertex="1" parent="1">
          <mxGeometry x="2532" y="3043" width="54.5" height="54.5" as="geometry" />
        </mxCell>
        <mxCell id="2cERoE-P70ZcHIxyYowz-32" value="Data Frame&lt;div&gt;Cache_Cnpj9&lt;/div&gt;" style="sketch=0;outlineConnect=0;fontColor=#232F3E;gradientColor=none;strokeColor=#232F3E;fillColor=#ffffff;dashed=0;verticalLabelPosition=bottom;verticalAlign=top;align=center;html=1;fontSize=12;fontStyle=0;aspect=fixed;shape=mxgraph.aws4.resourceIcon;resIcon=mxgraph.aws4.table;fontFamily=Verdana;" vertex="1" parent="1">
          <mxGeometry x="2532" y="3163" width="54.5" height="54.5" as="geometry" />
        </mxCell>
        <mxCell id="2cERoE-P70ZcHIxyYowz-33" style="edgeStyle=orthogonalEdgeStyle;rounded=0;orthogonalLoop=1;jettySize=auto;html=1;strokeColor=#666666;strokeWidth=2;align=center;verticalAlign=middle;fontFamily=Helvetica;fontSize=11;fontColor=default;labelBackgroundColor=default;endArrow=open;endFill=0;" edge="1" parent="1" source="2cERoE-P70ZcHIxyYowz-34" target="2cERoE-P70ZcHIxyYowz-21">
          <mxGeometry relative="1" as="geometry" />
        </mxCell>
        <mxCell id="2cERoE-P70ZcHIxyYowz-34" value="Join" style="verticalLabelPosition=bottom;shadow=0;dashed=0;align=right;html=1;verticalAlign=top;strokeWidth=3;shape=mxgraph.electrical.signal_sources.current_source;rotation=-90;horizontal=1;labelPosition=left;textDirection=vertical-lr;fontFamily=Verdana;strokeColor=#666666;" vertex="1" parent="1">
          <mxGeometry x="2777.5" y="3079" width="44" height="66" as="geometry" />
        </mxCell>
        <mxCell id="2cERoE-P70ZcHIxyYowz-35" style="edgeStyle=orthogonalEdgeStyle;rounded=0;orthogonalLoop=1;jettySize=auto;html=1;entryX=0.5;entryY=0;entryDx=0;entryDy=0;entryPerimeter=0;strokeColor=#666666;strokeWidth=2;align=center;verticalAlign=middle;fontFamily=Helvetica;fontSize=11;fontColor=default;labelBackgroundColor=default;endArrow=open;endFill=0;" edge="1" parent="1" source="2cERoE-P70ZcHIxyYowz-31" target="2cERoE-P70ZcHIxyYowz-34">
          <mxGeometry relative="1" as="geometry" />
        </mxCell>
        <mxCell id="2cERoE-P70ZcHIxyYowz-36" style="edgeStyle=orthogonalEdgeStyle;rounded=0;orthogonalLoop=1;jettySize=auto;html=1;entryX=0.5;entryY=0;entryDx=0;entryDy=0;entryPerimeter=0;strokeColor=#666666;strokeWidth=2;align=center;verticalAlign=middle;fontFamily=Helvetica;fontSize=11;fontColor=default;labelBackgroundColor=default;endArrow=open;endFill=0;" edge="1" parent="1" source="2cERoE-P70ZcHIxyYowz-32" target="2cERoE-P70ZcHIxyYowz-34">
          <mxGeometry relative="1" as="geometry" />
        </mxCell>
        <mxCell id="2cERoE-P70ZcHIxyYowz-37" value="" style="edgeStyle=orthogonalEdgeStyle;rounded=0;orthogonalLoop=1;jettySize=auto;html=1;strokeColor=#666666;strokeWidth=2;align=center;verticalAlign=middle;fontFamily=Helvetica;fontSize=11;fontColor=default;labelBackgroundColor=default;endArrow=open;endFill=0;" edge="1" parent="1" source="2cERoE-P70ZcHIxyYowz-30" target="2cERoE-P70ZcHIxyYowz-38">
          <mxGeometry relative="1" as="geometry">
            <mxPoint x="2904" y="2818" as="targetPoint" />
            <mxPoint x="2663" y="2818" as="sourcePoint" />
          </mxGeometry>
        </mxCell>
        <mxCell id="2cERoE-P70ZcHIxyYowz-38" value="Cnpj9 Carteira" style="sketch=0;outlineConnect=0;fontColor=#232F3E;gradientColor=none;fillColor=#666666;strokeColor=none;dashed=0;verticalLabelPosition=bottom;verticalAlign=top;align=center;html=1;fontSize=12;fontStyle=0;aspect=fixed;pointerEvents=1;shape=mxgraph.aws4.filtering_rule;" vertex="1" parent="1">
          <mxGeometry x="2773" y="2792" width="53" height="53" as="geometry" />
        </mxCell>
        <mxCell id="2cERoE-P70ZcHIxyYowz-39" value="Cliente Carteira" style="rounded=1;whiteSpace=wrap;html=1;arcSize=5;verticalAlign=top;" vertex="1" parent="1">
          <mxGeometry x="2725" y="3852" width="465" height="458" as="geometry" />
        </mxCell>
        <mxCell id="2cERoE-P70ZcHIxyYowz-40" value="Data Frame&lt;div&gt;EncartPJ_Cliente_Carteira&lt;/div&gt;" style="sketch=0;outlineConnect=0;fontColor=#232F3E;gradientColor=none;strokeColor=#232F3E;fillColor=#ffffff;dashed=0;verticalLabelPosition=bottom;verticalAlign=top;align=center;html=1;fontSize=12;fontStyle=0;aspect=fixed;shape=mxgraph.aws4.resourceIcon;resIcon=mxgraph.aws4.table;fontFamily=Verdana;" vertex="1" parent="1">
          <mxGeometry x="2914" y="3888.5" width="54.5" height="54.5" as="geometry" />
        </mxCell>
        <mxCell id="2cERoE-P70ZcHIxyYowz-41" value="Data Frame&lt;div&gt;Cache_Cliente_Carteira&lt;/div&gt;" style="sketch=0;outlineConnect=0;fontColor=#232F3E;gradientColor=none;strokeColor=#232F3E;fillColor=#ffffff;dashed=0;verticalLabelPosition=bottom;verticalAlign=top;align=center;html=1;fontSize=12;fontStyle=0;aspect=fixed;shape=mxgraph.aws4.resourceIcon;resIcon=mxgraph.aws4.table;fontFamily=Verdana;" vertex="1" parent="1">
          <mxGeometry x="2783" y="4028" width="54.5" height="54.5" as="geometry" />
        </mxCell>
        <mxCell id="2cERoE-P70ZcHIxyYowz-42" style="edgeStyle=orthogonalEdgeStyle;rounded=0;orthogonalLoop=1;jettySize=auto;html=1;strokeColor=#666666;strokeWidth=2;align=center;verticalAlign=middle;fontFamily=Helvetica;fontSize=11;fontColor=default;labelBackgroundColor=default;endArrow=open;endFill=0;" edge="1" parent="1" source="2cERoE-P70ZcHIxyYowz-43" target="2cERoE-P70ZcHIxyYowz-45">
          <mxGeometry relative="1" as="geometry">
            <Array as="points" />
          </mxGeometry>
        </mxCell>
        <mxCell id="2cERoE-P70ZcHIxyYowz-43" value="Join" style="verticalLabelPosition=bottom;shadow=0;dashed=0;align=right;html=1;verticalAlign=top;strokeWidth=3;shape=mxgraph.electrical.signal_sources.current_source;rotation=-90;horizontal=1;labelPosition=left;textDirection=vertical-lr;fontFamily=Verdana;strokeColor=#666666;" vertex="1" parent="1">
          <mxGeometry x="2919.25" y="4028" width="44" height="66" as="geometry" />
        </mxCell>
        <mxCell id="2cERoE-P70ZcHIxyYowz-44" style="edgeStyle=orthogonalEdgeStyle;rounded=0;orthogonalLoop=1;jettySize=auto;html=1;entryX=0.639;entryY=0.05;entryDx=0;entryDy=0;entryPerimeter=0;strokeColor=#666666;strokeWidth=2;align=center;verticalAlign=middle;fontFamily=Helvetica;fontSize=11;fontColor=default;labelBackgroundColor=default;endArrow=open;endFill=0;" edge="1" parent="1" source="2cERoE-P70ZcHIxyYowz-41" target="2cERoE-P70ZcHIxyYowz-43">
          <mxGeometry relative="1" as="geometry" />
        </mxCell>
        <mxCell id="2cERoE-P70ZcHIxyYowz-45" value="Data Frame&lt;div&gt;Delta_Cliente_Carteira&lt;/div&gt;" style="sketch=0;outlineConnect=0;fontColor=#232F3E;gradientColor=none;strokeColor=#232F3E;fillColor=#ffffff;dashed=0;verticalLabelPosition=bottom;verticalAlign=top;align=center;html=1;fontSize=12;fontStyle=0;aspect=fixed;shape=mxgraph.aws4.resourceIcon;resIcon=mxgraph.aws4.table;fontFamily=Verdana;" vertex="1" parent="1">
          <mxGeometry x="3077" y="4033.75" width="54.5" height="54.5" as="geometry" />
        </mxCell>
        <mxCell id="2cERoE-P70ZcHIxyYowz-46" style="edgeStyle=orthogonalEdgeStyle;rounded=0;orthogonalLoop=1;jettySize=auto;html=1;entryX=0.926;entryY=0.512;entryDx=0;entryDy=0;entryPerimeter=0;strokeColor=#666666;strokeWidth=2;align=center;verticalAlign=middle;fontFamily=Helvetica;fontSize=11;fontColor=default;labelBackgroundColor=default;endArrow=open;endFill=0;sourcePerimeterSpacing=35;" edge="1" parent="1" source="2cERoE-P70ZcHIxyYowz-40" target="2cERoE-P70ZcHIxyYowz-43">
          <mxGeometry relative="1" as="geometry" />
        </mxCell>
        <mxCell id="2cERoE-P70ZcHIxyYowz-47" style="edgeStyle=orthogonalEdgeStyle;rounded=0;orthogonalLoop=1;jettySize=auto;html=1;strokeColor=#666666;strokeWidth=2;align=center;verticalAlign=middle;fontFamily=Helvetica;fontSize=11;fontColor=default;labelBackgroundColor=default;endArrow=open;endFill=0;entryX=0.5;entryY=0;entryDx=0;entryDy=0;entryPerimeter=0;" edge="1" parent="1" source="2cERoE-P70ZcHIxyYowz-48" target="2cERoE-P70ZcHIxyYowz-53">
          <mxGeometry relative="1" as="geometry" />
        </mxCell>
        <mxCell id="2cERoE-P70ZcHIxyYowz-48" value="Data Frame&lt;div&gt;Cache_Cliente_Carteira&lt;/div&gt;" style="sketch=0;outlineConnect=0;fontColor=#232F3E;gradientColor=none;strokeColor=#232F3E;fillColor=#ffffff;dashed=0;verticalLabelPosition=bottom;verticalAlign=top;align=center;html=1;fontSize=12;fontStyle=0;aspect=fixed;shape=mxgraph.aws4.resourceIcon;resIcon=mxgraph.aws4.table;fontFamily=Verdana;" vertex="1" parent="1">
          <mxGeometry x="2539.75" y="4070" width="54.5" height="54.5" as="geometry" />
        </mxCell>
        <mxCell id="2cERoE-P70ZcHIxyYowz-49" style="edgeStyle=orthogonalEdgeStyle;rounded=0;orthogonalLoop=1;jettySize=auto;html=1;strokeColor=#666666;strokeWidth=2;align=center;verticalAlign=middle;fontFamily=Helvetica;fontSize=11;fontColor=default;labelBackgroundColor=default;endArrow=open;endFill=0;" edge="1" parent="1" source="2cERoE-P70ZcHIxyYowz-56" target="2cERoE-P70ZcHIxyYowz-40">
          <mxGeometry relative="1" as="geometry">
            <mxPoint x="2783" y="3915" as="targetPoint" />
          </mxGeometry>
        </mxCell>
        <mxCell id="2cERoE-P70ZcHIxyYowz-50" value="Data Frame&lt;div&gt;EncartPJ&lt;/div&gt;" style="sketch=0;outlineConnect=0;fontColor=#232F3E;gradientColor=none;strokeColor=#232F3E;fillColor=#ffffff;dashed=0;verticalLabelPosition=bottom;verticalAlign=top;align=center;html=1;fontSize=12;fontStyle=0;aspect=fixed;shape=mxgraph.aws4.resourceIcon;resIcon=mxgraph.aws4.table;fontFamily=Verdana;" vertex="1" parent="1">
          <mxGeometry x="2539.75" y="3884.88" width="63.25" height="63.25" as="geometry" />
        </mxCell>
        <mxCell id="2cERoE-P70ZcHIxyYowz-51" value="Data Frame&lt;div&gt;Cache_Carteira&lt;/div&gt;" style="sketch=0;outlineConnect=0;fontColor=#232F3E;gradientColor=none;strokeColor=#232F3E;fillColor=#ffffff;dashed=0;verticalLabelPosition=bottom;verticalAlign=top;align=center;html=1;fontSize=12;fontStyle=0;aspect=fixed;shape=mxgraph.aws4.resourceIcon;resIcon=mxgraph.aws4.table;fontFamily=Verdana;" vertex="1" parent="1">
          <mxGeometry x="2539.75" y="4183" width="54.5" height="54.5" as="geometry" />
        </mxCell>
        <mxCell id="2cERoE-P70ZcHIxyYowz-52" style="edgeStyle=orthogonalEdgeStyle;rounded=0;orthogonalLoop=1;jettySize=auto;html=1;strokeColor=#666666;strokeWidth=2;align=center;verticalAlign=middle;fontFamily=Helvetica;fontSize=11;fontColor=default;labelBackgroundColor=default;endArrow=open;endFill=0;" edge="1" parent="1" source="2cERoE-P70ZcHIxyYowz-53" target="2cERoE-P70ZcHIxyYowz-41">
          <mxGeometry relative="1" as="geometry" />
        </mxCell>
        <mxCell id="2cERoE-P70ZcHIxyYowz-53" value="Join" style="verticalLabelPosition=bottom;shadow=0;dashed=0;align=right;html=1;verticalAlign=top;strokeWidth=3;shape=mxgraph.electrical.signal_sources.current_source;rotation=-90;horizontal=1;labelPosition=left;textDirection=vertical-lr;fontFamily=Verdana;strokeColor=#666666;" vertex="1" parent="1">
          <mxGeometry x="2787.5" y="4177" width="44" height="66" as="geometry" />
        </mxCell>
        <mxCell id="2cERoE-P70ZcHIxyYowz-54" style="edgeStyle=orthogonalEdgeStyle;rounded=0;orthogonalLoop=1;jettySize=auto;html=1;entryX=0.5;entryY=0;entryDx=0;entryDy=0;entryPerimeter=0;strokeColor=#666666;strokeWidth=2;align=center;verticalAlign=middle;fontFamily=Helvetica;fontSize=11;fontColor=default;labelBackgroundColor=default;endArrow=open;endFill=0;" edge="1" parent="1" source="2cERoE-P70ZcHIxyYowz-51" target="2cERoE-P70ZcHIxyYowz-53">
          <mxGeometry relative="1" as="geometry" />
        </mxCell>
        <mxCell id="2cERoE-P70ZcHIxyYowz-55" value="" style="edgeStyle=orthogonalEdgeStyle;rounded=0;orthogonalLoop=1;jettySize=auto;html=1;strokeColor=#666666;strokeWidth=2;align=center;verticalAlign=middle;fontFamily=Helvetica;fontSize=11;fontColor=default;labelBackgroundColor=default;endArrow=open;endFill=0;" edge="1" parent="1" source="2cERoE-P70ZcHIxyYowz-50" target="2cERoE-P70ZcHIxyYowz-56">
          <mxGeometry relative="1" as="geometry">
            <mxPoint x="2914" y="3916" as="targetPoint" />
            <mxPoint x="2673" y="3916" as="sourcePoint" />
          </mxGeometry>
        </mxCell>
        <mxCell id="2cERoE-P70ZcHIxyYowz-56" value="Cliente Carteira" style="sketch=0;outlineConnect=0;fontColor=#232F3E;gradientColor=none;fillColor=#666666;strokeColor=none;dashed=0;verticalLabelPosition=bottom;verticalAlign=top;align=center;html=1;fontSize=12;fontStyle=0;aspect=fixed;pointerEvents=1;shape=mxgraph.aws4.filtering_rule;" vertex="1" parent="1">
          <mxGeometry x="2783" y="3890" width="53" height="53" as="geometry" />
        </mxCell>
        <mxCell id="2cERoE-P70ZcHIxyYowz-57" value="" style="verticalLabelPosition=bottom;verticalAlign=top;html=1;strokeWidth=2;shape=mxgraph.arrows2.arrow;dy=0.6;dx=40;notch=0;" vertex="1" parent="1">
          <mxGeometry x="2344" y="1341" width="100" height="70" as="geometry" />
        </mxCell>
        <mxCell id="2cERoE-P70ZcHIxyYowz-58" value="" style="verticalLabelPosition=bottom;verticalAlign=top;html=1;strokeWidth=2;shape=mxgraph.arrows2.arrow;dy=0.6;dx=40;notch=0;" vertex="1" parent="1">
          <mxGeometry x="3314" y="1067.5" width="100" height="70" as="geometry" />
        </mxCell>
      </root>
    </mxGraphModel>
  </diagram>
</mxfile>
